<?xml version="1.0" standalone="no"?>
<!DOCTYPE svg PUBLIC "-//W3C//DTD SVG 1.1//EN" "http://www.w3.org/Graphics/SVG/1.1/DTD/svg11.dtd" >
<svg xmlns="http://www.w3.org/2000/svg">
<metadata></metadata>
<defs>
<font id="pf_din_text_cond_prolight" horiz-adv-x="1818" >
<font-face units-per-em="1000" ascent="750" descent="-250" />
<missing-glyph horiz-adv-x="204" />
<glyph unicode="fj" horiz-adv-x="412" d="M138 442v-442h-64v442h-56v51h56v100q0 36 11 62t30.5 42.5t45 24.5t55.5 8q87 0 135 -52l-40 -43q-19 20 -43.5 28t-51.5 8q-40 0 -59 -20t-19 -56v-102h211v-569q0 -55 -29.5 -90t-90.5 -35h-23v57h9t9 1q35 1 49 19t14 53v513h-149z" />
<glyph unicode="ffj" horiz-adv-x="625" d="M349 494h211v-570q0 -55 -29.5 -90t-90.5 -35h-23v57q1 0 9 -0.5t9 0.5q35 2 48.5 21.5t13.5 57.5v507h-148v-442h-63v442h-148v-442h-63v442h-56v52h56v89q0 36 11 61.5t30.5 42t45.5 24t55 7.5q59 0 99 -24q20 23 48.5 32.5t62.5 9.5q87 0 135 -52l-40 -43 q-20 19 -44 27.5t-51 8.5q-39 0 -58.5 -20t-19.5 -56v-107zM216 659q-39 0 -58.5 -20t-19.5 -57v-88h148v107q0 10 1 20t4 19q-17 11 -36.5 15t-38.5 4z" />
<glyph unicode="ff" horiz-adv-x="455" d="M217 721q53 0 93 -22q15 20 38 29.5t51 9.5h46v-58h-37q-35 0 -48 -20.5t-13 -47.5v-118h95v-52h-95v-442h-62v442h-147v-442h-63v442h-56v52h56v91q0 36 11 61.5t30.5 42t45 24.5t55.5 8zM285 494v122q0 13 3 28q-17 11 -36 14.5t-36 3.5q-78 0 -78 -76v-92h147z" />
<glyph unicode="fi" horiz-adv-x="412" d="M287 0v442h-148v-442h-64v442h-56v52h56v102q0 36 11 62t30.5 42t45.5 23.5t55 7.5q85 0 134 -53l-39 -43q-20 20 -44 28t-52 8q-77 0 -77 -76v-101h210v-494h-62z" />
<glyph unicode="fl" horiz-adv-x="438" d="M403 -3q-56 0 -86 24t-30 89v554q-23 7 -39 9t-33 2q-41 0 -59 -21.5t-18 -62.5v-97h98v-52h-98v-442h-63v442h-56v52h56v101q0 67 39 103t102 36q20 0 54.5 -4.5t79.5 -20.5v-590q0 -32 12.5 -49t46.5 -17h14v-56h-20z" />
<glyph unicode="ffi" horiz-adv-x="625" d="M497 0v442h-148v-442h-63v442h-147v-442h-64v442h-56v52h56v89q0 36 11 62t30.5 42.5t45.5 24t55 7.5q57 0 100 -25q20 23 48 32.5t62 9.5q88 0 136 -52l-41 -43q-19 20 -43 28t-52 8q-39 0 -58.5 -20t-19.5 -56v-107h211v-494h-63zM217 659q-41 0 -59.5 -20t-18.5 -57 v-88h147v107q0 22 4 38q-17 11 -36.5 15.5t-36.5 4.5z" />
<glyph unicode="ffl" horiz-adv-x="649" d="M427 737q20 0 54.5 -5t78.5 -21v-592q0 -32 13 -49t47 -17h14v-56h-21q-55 0 -85.5 24t-30.5 89v557q-22 7 -38 9t-33 2q-41 0 -59.5 -21t-18.5 -62v-101h99v-52h-99v-442h-62v442h-147v-442h-64v442h-56v52h56v89q0 36 11.5 62t31 42t45 23.5t54.5 7.5q26 0 52 -6 t48 -18q20 23 48 33t62 10zM217 658q-78 0 -78 -76v-88h147v103q0 25 4 42q-18 11 -37 15t-36 4z" />
<glyph unicode="ft" horiz-adv-x="453" d="M139 442v-442h-64v442h-56v52h56v114q0 61 32.5 90t82.5 29h44v-58h-35q-35 0 -47.5 -20.5t-12.5 -47.5v-107h148v130h62v-130h77v-52h-77v-315q0 -33 13.5 -51.5t47.5 -18.5h24v-57h-38q-53 0 -81 30t-28 80v332h-148z" />
<glyph unicode=" "  horiz-adv-x="204" />
<glyph unicode="&#x09;" horiz-adv-x="204" />
<glyph unicode="&#xa0;" horiz-adv-x="204" />
<glyph unicode="!" horiz-adv-x="221" d="M86 175l-7 521h62l-7 -521h-48zM77 0v71h68v-71h-68z" />
<glyph unicode="&#x22;" horiz-adv-x="249" d="M152 508v188h48v-188h-48zM50 508v188h49v-188h-49z" />
<glyph unicode="#" horiz-adv-x="425" d="M9 265h84l28 170h-77v44h84q0 3 3 19.5t7 39.5t8 50t8 50t6.5 39.5t2.5 19.5h45l-35 -218h115q0 3 2.5 19.5t6.5 39.5t8.5 50t8.5 50t6.5 39.5t2.5 19.5h46l-36 -218h81v-44h-88l-28 -170h80v-44h-87q0 -3 -2.5 -19.5t-6.5 -40t-8 -50.5t-8 -50.5t-7 -40.5t-3 -20h-46 l35 221h-114l-36 -221h-45l36 221h-77v44zM138 265h115q0 4 4.5 29.5t9.5 55.5t9 55.5t5 29.5h-115z" />
<glyph unicode="$" horiz-adv-x="425" d="M195 -6q-66 4 -108.5 35t-65.5 79l51 31q17 -33 47 -57.5t76 -28.5v275q-41 15 -71.5 32t-50.5 38.5t-30 49t-10 64.5q0 38 10.5 70.5t31.5 57t51 39t69 17.5v83h36v-83q63 -4 102 -32.5t56 -64.5l-52 -34q-15 30 -40.5 49t-65.5 23v-255q91 -23 129.5 -69t38.5 -128 q0 -83 -42 -134.5t-126 -56.5v-102h-36v102zM335 184q0 31 -7 52t-20.5 35.5t-32.5 25t-44 19.5v-263q56 5 80 41t24 90zM96 512q1 -47 26 -72t73 -45v243q-48 -5 -73.5 -40t-25.5 -86z" />
<glyph unicode="%" horiz-adv-x="620" d="M253 377q0 -24 -8.5 -43t-23.5 -32t-35 -20t-42 -7q-45 0 -77.5 27t-32.5 75v220q0 48 32 75t78 27t77.5 -27t31.5 -75v-220zM202 596q0 25 -16 41t-42 16q-27 0 -43.5 -16t-16.5 -41v-218q0 -26 16.5 -42t43.5 -16q26 0 42 16t16 42v218zM145 -17h-46l369 731h47z M583 96q0 -24 -9 -42.5t-24 -31.5t-34.5 -19.5t-41.5 -6.5t-42 6.5t-35 19.5t-24 31.5t-9 42.5v225q0 24 9 42t24 31t35 19.5t42 6.5t41.5 -6.5t34.5 -19.5t24 -31t9 -42v-225zM532 320q0 25 -16 39.5t-42 14.5q-27 0 -43.5 -14.5t-16.5 -39.5v-224q0 -26 16.5 -40t43.5 -14 q26 0 42 14t16 40v224z" />
<glyph unicode="&#x26;" horiz-adv-x="544" d="M260 703q45 0 79.5 -14t60.5 -47q-11 -10 -22.5 -19.5t-22.5 -18.5q-22 23 -44 32t-52 9q-22 0 -38.5 -8.5t-27 -21.5t-16 -29t-5.5 -31q0 -21 11 -49.5t29.5 -61t42 -68t48 -70.5t48.5 -68.5t44 -62.5q15 29 22.5 60.5t11.5 62.5q14 -2 29 -2.5t29 -1.5q-5 -43 -18 -88 t-36 -85q20 -30 42 -61t43 -60h-75q-12 18 -25 35.5t-25 36.5q-39 -44 -81 -61t-88 -17q-76 0 -121.5 46t-45.5 124q0 65 32 117t95 100q-15 24 -28.5 45t-23 42t-15.5 42t-6 44q0 30 9.5 57.5t28.5 47.5t47 32t64 12zM360 118q-36 54 -72 107.5t-73 107.5 q-47 -37 -72 -77.5t-25 -87.5q0 -52 30.5 -85t83.5 -33q35 0 69.5 19t58.5 49z" />
<glyph unicode="'" horiz-adv-x="186" d="M68 508v188h49v-188h-49z" />
<glyph unicode="(" horiz-adv-x="245" d="M204 -116q-31 39 -59 86.5t-49 101t-33 111.5t-12 120q0 60 11.5 118t31.5 111t47.5 101t59.5 88l31 -18q-54 -85 -85.5 -189t-31.5 -207q0 -110 32.5 -215t84.5 -188l-28 -20v0z" />
<glyph unicode=")" horiz-adv-x="245" d="M63 -116q-14 9 -29 20q52 82 84.5 187t32.5 215q0 51 -8 103.5t-23.5 103.5t-37.5 99t-49 90l32 17q31 -40 58.5 -87.5t47.5 -101t31.5 -111t11.5 -118.5t-12 -119t-33 -111.5t-48.5 -100.5t-57.5 -86z" />
<glyph unicode="*" horiz-adv-x="346" d="M280 444l-44 -32l-64 105q-3 -4 -12.5 -19.5t-20 -33t-19.5 -33.5t-12 -20q-2 2 -8.5 6.5t-13.5 10t-13.5 9.5t-8.5 6l77 95q-5 1 -21.5 6t-35.5 10t-35.5 10t-21.5 6q1 3 3 10t5 15.5t5 16t3 10.5l110 -47q0 5 -1 23t-2.5 38t-3 38t-1.5 23h53l-9 -122q4 2 20.5 8.5 t35 14t35 14.5t21.5 10q1 -3 3 -11t5 -16t5 -15t3 -10l-115 -32z" />
<glyph unicode="+" horiz-adv-x="425" d="M237 265v-177h-48v177h-169v50h169v176h48v-176h168v-50h-168z" />
<glyph unicode="," horiz-adv-x="189" d="M87 -107h-38l26 105h-20v82h76v-80z" />
<glyph unicode="-" horiz-adv-x="358" d="M51 235v56h261v-56h-261z" />
<glyph unicode="." horiz-adv-x="185" d="M55 0v81h76v-81h-76z" />
<glyph unicode="/" horiz-adv-x="343" d="M65 -38h-50l248 761h50z" />
<glyph unicode="0" horiz-adv-x="425" d="M375 153q0 -39 -13.5 -68.5t-36 -49.5t-51.5 -30.5t-61 -10.5t-61.5 10.5t-52 30.5t-35.5 49.5t-13 68.5v389q0 39 13 68.5t35.5 50t52 31t61.5 10.5t61 -10.5t51.5 -31t36 -50t13.5 -68.5v-389zM313 541q0 47 -27.5 74t-72.5 27t-73 -27t-28 -74v-386q0 -48 28 -75 t73 -27t72.5 27t27.5 75v386z" />
<glyph unicode="1" horiz-adv-x="425" d="M262 0h-62v629l-100 -72l1 67l98 72h63v-696z" />
<glyph unicode="2" horiz-adv-x="425" d="M204 642q-42 0 -68 -28.5t-34 -81.5l-63 10q9 72 52 115.5t115 43.5q78 0 121.5 -43t43.5 -118q0 -38 -13 -75t-35 -72l-213 -334h250v-59h-323v59l233 367q16 26 24.5 56.5t8.5 55.5q0 20 -5.5 38.5t-17 33t-30.5 23.5t-46 9z" />
<glyph unicode="3" horiz-adv-x="425" d="M90 146q7 -41 28 -67.5t69 -26.5q30 0 50.5 10.5t33 29t18 44.5t5.5 57q0 72 -24 107t-78 35h-39v55h33q54 0 79 29t25 92q0 26 -5 50t-16.5 42t-31 29t-48.5 11q-24 0 -41 -8t-27.5 -21.5t-17 -30.5t-9.5 -36l-61 11q5 31 16.5 57t31 45.5t46.5 30.5t62 11 q49 0 80.5 -15t50 -40.5t26 -60t7.5 -73.5q0 -20 -3.5 -42.5t-12.5 -43t-25 -37.5t-41 -26q30 -7 47 -23.5t25.5 -39t11 -49t2.5 -54.5q0 -44 -8.5 -81t-28.5 -64.5t-53.5 -43t-82.5 -15.5q-28 0 -54.5 8t-47.5 25.5t-35 43.5t-18 62z" />
<glyph unicode="4" horiz-adv-x="425" d="M345 111v-111h-62v111h-257v61l195 524h66l-197 -526h193v202h62v-202h56v-59h-56z" />
<glyph unicode="5" horiz-adv-x="425" d="M230 455q46 0 74.5 -16.5t44.5 -46t21.5 -69t5.5 -85.5q0 -59 -7.5 -104.5t-26 -76.5t-51 -47t-82.5 -16q-140 0 -161 141l62 12q6 -44 29 -70.5t71 -26.5q35 0 55.5 14.5t31 39.5t13.5 58.5t3 71.5q0 36 -3.5 66.5t-14.5 52.5t-30.5 34t-50.5 12q-29 0 -54 -15t-39 -38 h-57v350h305v-58h-249l2 -225q24 23 52 32.5t56 9.5z" />
<glyph unicode="6" horiz-adv-x="425" d="M230 396q38 0 66 -15t46 -41t26.5 -61.5t8.5 -76.5q0 -97 -40.5 -152.5t-125.5 -55.5q-161 0 -161 193q0 45 8 90t34 104l143 315h66l-142 -317l2 -1q14 9 32 13.5t37 4.5zM214 341q-31 0 -50.5 -12.5t-31 -33.5t-16 -48.5t-4.5 -56.5q0 -65 22 -102t78 -37q50 0 76 34 t26 109q0 32 -5 59t-16.5 46.5t-30.5 30.5t-48 11z" />
<glyph unicode="7" horiz-adv-x="425" d="M163 0h-65l215 638h-206v-97h-58v155h329v-58z" />
<glyph unicode="8" horiz-adv-x="425" d="M383 191q0 -54 -14 -92t-37 -61t-54 -33.5t-64 -10.5q-34 0 -64.5 10.5t-54 33.5t-37 61t-13.5 93q0 72 22 112.5t61 57.5q-42 22 -59 57.5t-17 97.5q0 48 13 83t35 57.5t51.5 33.5t62.5 11q34 0 64 -10.5t52 -33t34.5 -57.5t12.5 -84q0 -61 -19.5 -97.5t-55.5 -57.5 q42 -18 61.5 -58.5t19.5 -112.5zM214 643q-101 0 -101 -130q0 -64 26.5 -94.5t74.5 -30.5t74 31t26 97q0 127 -100 127zM214 336q-47 0 -77 -32t-30 -108q0 -79 30 -112t77 -33q54 0 79.5 35.5t25.5 109.5q0 77 -28 108.5t-77 31.5z" />
<glyph unicode="9" horiz-adv-x="425" d="M195 299q-38 0 -66 15t-46 41t-26.5 61.5t-8.5 76.5q0 97 40.5 152.5t125.5 55.5q162 0 162 -193q0 -45 -8.5 -90t-34.5 -104l-143 -315h-66l142 317l-2 1q-14 -9 -32 -13.5t-37 -4.5zM211 354q31 0 50.5 11.5t31 31.5t16 48t4.5 60q0 65 -22 102t-78 37q-50 0 -76 -34 t-26 -109q0 -32 5 -59t16.5 -46.5t30.5 -30.5t48 -11z" />
<glyph unicode=":" horiz-adv-x="186" d="M54 0v81h75v-81h-75zM54 301v82h75v-82h-75z" />
<glyph unicode=";" horiz-adv-x="186" d="M55 301v81h76v-81h-76zM87 -107h-38l25 105h-19v82h76v-80z" />
<glyph unicode="&#x3c;" horiz-adv-x="425" d="M397 82l-371 185v47l370 186v-54l-315 -155q5 -2 29 -13.5t57.5 -28t71.5 -35.5t71.5 -35.5t57.5 -28.5t29 -14v-54z" />
<glyph unicode="=" horiz-adv-x="425" d="M20 346v50h385v-50h-385zM20 178v52h385v-52h-385z" />
<glyph unicode="&#x3e;" horiz-adv-x="425" d="M27 136q5 2 29 14l57 28.5l71 35.5l71 35.5t57 28t29 13.5l-314 155v54l371 -186v-47l-371 -185v54z" />
<glyph unicode="?" horiz-adv-x="414" d="M385 527q0 -27 -5 -47.5t-13 -38t-18.5 -33.5t-22.5 -32q-11 -15 -24 -31t-24.5 -33.5t-19.5 -36.5t-8 -40v-65h-63v57q0 63 35 110q18 25 35 46.5t30.5 42t22 42t8.5 45.5t-4.5 47t-16.5 41t-33 29t-54 11q-24 0 -44 -9.5t-34.5 -25.5t-23 -36.5t-10.5 -42.5 q-16 3 -31 5.5t-32 4.5q13 83 62.5 123.5t116.5 40.5q43 0 75 -13t53.5 -36t32 -55t10.5 -70zM184 0v72h68v-72h-68z" />
<glyph unicode="@" horiz-adv-x="774" d="M502 255q0 -31 15 -48t41 -17q23 0 43.5 9t36 31.5t24.5 60t9 94.5q0 65 -22 116t-58.5 85.5t-85 52.5t-102.5 18q-72 0 -128 -24.5t-94.5 -67.5t-59 -102t-20.5 -127q0 -75 21 -135.5t60.5 -103t96 -66t128.5 -23.5q53 0 97 9.5t89 32.5l18 -46q-46 -18 -95.5 -30.5 t-103.5 -12.5q-81 0 -148 25t-115 73t-74 117.5t-26 159.5q0 80 24.5 147.5t70 116.5t110 76.5t145.5 27.5q73 0 133 -23.5t103 -65.5t66 -101t23 -129q0 -68 -14 -114t-37 -75t-53.5 -41.5t-63.5 -12.5q-8 0 -21.5 3t-27 10t-25.5 19t-16 29q-1 0 -2 -1q-16 -27 -48.5 -40 t-63.5 -13q-53 0 -83 30t-30 81q0 22 6.5 42.5t20.5 37t36 26.5t53 10h97v52q0 30 -18 47.5t-59 17.5q-24 0 -45 -10.5t-33 -29.5l-41 23q19 29 49.5 46.5t68.5 17.5q27 0 50.5 -5.5t41 -18.5t27 -34.5t9.5 -53.5v-173zM287 262q0 -32 21 -49t58 -17q36 0 61 18t25 54v65 h-85q-35 0 -57.5 -16.5t-22.5 -54.5z" />
<glyph unicode="A" horiz-adv-x="489" d="M412 0l-47 167h-242l-47 -167h-66l203 696h63l203 -696h-67zM289 440l-43 162h-4q-2 -8 -8 -31t-13 -50t-13.5 -50.5t-8.5 -30.5q-3 -12 -12 -42.5t-18.5 -65t-18.5 -65t-13 -42.5h213z" />
<glyph unicode="B" horiz-adv-x="502" d="M462 197q0 -98 -50.5 -147.5t-133.5 -49.5h-213v696h200q95 0 140 -49t45 -130q0 -48 -19 -88t-74 -64v-3q28 -7 48 -23.5t33 -38.5t18.5 -48.5t5.5 -54.5zM129 638v-248h132q64 0 94.5 34t30.5 91q0 56 -31.5 89.5t-97.5 33.5h-128zM129 333v-271h140q36 0 60.5 11 t39.5 30t21.5 44.5t6.5 54.5q0 57 -30 94t-96 37h-142z" />
<glyph unicode="C" horiz-adv-x="463" d="M439 130q-16 -67 -68 -101.5t-121 -34.5q-46 0 -83 15t-63 41.5t-40 64t-14 82.5v302q0 44 13.5 81t39.5 64t63 42t84 15q69 0 120.5 -34.5t68.5 -98.5l-62 -23q-10 45 -43 70t-84 25q-32 0 -57.5 -11t-43 -30t-26.5 -44.5t-9 -54.5v-305q0 -29 9.5 -55t27 -45t42.5 -30 t57 -11q49 0 83 25t45 73z" />
<glyph unicode="D" horiz-adv-x="514" d="M259 696q143 0 187 -110q12 -34 14.5 -85t2.5 -117v-115q0 -48 -2.5 -86.5t-13.5 -66.5q-13 -34 -33.5 -56t-47 -35.5t-58 -19t-65.5 -5.5h-179v696h195zM399 459q0 23 -2 47.5t-9 44.5q-13 42 -48.5 64t-90.5 22h-120v-578h120q109 0 138 85q6 16 9 37t3 41v237z" />
<glyph unicode="E" horiz-adv-x="449" d="M65 0v696h362v-60h-298v-253h256v-58h-256v-263h298v-62h-362z" />
<glyph unicode="F" horiz-adv-x="438" d="M130 636v-255h255v-58h-255v-323h-65v696h362v-60h-297z" />
<glyph unicode="G" horiz-adv-x="498" d="M250 52q30 0 55 10.5t43 29.5t28 43.5t10 53.5v118h-118v58h183v-171q0 -45 -15 -82.5t-41.5 -63.5t-63.5 -40.5t-81 -14.5q-47 0 -84 15t-63 42t-40 64.5t-14 82.5v302q0 44 14 81t40 64t63 42t84 15q69 0 120.5 -34t68.5 -100l-10 -3.5t-21 -7t-21 -6.5l-10 -3 q-11 44 -44 68.5t-83 24.5q-32 0 -57.5 -11t-43 -30t-27 -44.5t-9.5 -54.5v-307q0 -29 9.5 -54.5t27 -45t43 -30.5t57.5 -11z" />
<glyph unicode="H" horiz-adv-x="526" d="M395 0v325h-266v-325h-64v696h64v-313h266v313h66v-696h-66z" />
<glyph unicode="I" horiz-adv-x="206" d="M70 0v696h65v-696h-65z" />
<glyph unicode="J" horiz-adv-x="396" d="M328 176q0 -48 -14.5 -82.5t-40 -56.5t-59.5 -32.5t-73 -10.5q-40 0 -76.5 14.5t-59.5 42.5l46 43q17 -17 40.5 -28t47.5 -11q25 0 47.5 6.5t39.5 21t26.5 38.5t9.5 60v515h66v-520z" />
<glyph unicode="K" horiz-adv-x="509" d="M425 0l-178 366q-7 -9 -24 -34t-35.5 -53t-35.5 -52.5t-23 -33.5v-193h-65v696h65v-400h2q66 102 132.5 200.5t132.5 199.5h71q-45 -69 -90 -135.5t-90 -134.5l209 -426h-71z" />
<glyph unicode="L" horiz-adv-x="437" d="M65 0v696h64v-634h291v-62h-355z" />
<glyph unicode="M" horiz-adv-x="647" d="M523 0v538l-3 -1l-79 -190l-93 -211h-46q-5 13 -18 43t-28 63.5t-28 63.5t-19 43l-77 187l-4 -1v-535h-63v696h65q4 -11 13 -31.5t20 -46.5t23.5 -53.5t23.5 -53.5t20 -46.5t14 -31.5l81 -194h2l83 196l113 261h64v-696h-64z" />
<glyph unicode="N" horiz-adv-x="555" d="M429 0l-200 372q-8 14 -21.5 39.5t-28 52.5t-28 52.5t-20.5 39.5h-2v-556h-65v696h63q8 -15 23.5 -44t35 -65t40.5 -75.5t40 -75t34.5 -64.5t24.5 -44l99 -187l4 1v554h64v-696h-63z" />
<glyph unicode="O" horiz-adv-x="491" d="M446 199q0 -46 -14.5 -83.5t-41 -64.5t-63 -42t-81.5 -15q-52 0 -90 16.5t-63 45.5t-37 68t-12 83v293q0 38 12 74t36.5 64.5t62.5 45.5t91 17q49 0 86 -16.5t62.5 -44t38.5 -64t13 -76.5v-301zM380 499q0 23 -7.5 48t-23.5 45.5t-41.5 34t-61.5 13.5t-62 -12.5 t-43 -32.5t-25 -45.5t-8 -50.5v-293q0 -33 8.5 -61t26 -48.5t43.5 -32t61 -11.5q28 0 52.5 10.5t42.5 29.5t28 45t10 56v305z" />
<glyph unicode="P" horiz-adv-x="478" d="M460 492q0 -40 -10.5 -77t-34 -65t-60.5 -45t-90 -17h-135v-288h-65v696h196q96 0 147.5 -50.5t51.5 -153.5zM395 493q0 67 -33 105t-103 38h-129v-287h130q38 0 64 11.5t41.5 31t22.5 46t7 55.5z" />
<glyph unicode="Q" horiz-adv-x="500" d="M453 199q0 -33 -7.5 -61t-19.5 -51l74 -59l-34 -43q-2 2 -13 10.5t-23.5 18.5t-23.5 19t-14 11q-26 -25 -62 -37.5t-78 -12.5q-52 0 -90 16.5t-62.5 45.5t-36.5 68t-12 83v293q0 38 12 74t36.5 64.5t62.5 45.5t90 17q49 0 86.5 -16.5t63 -44t38.5 -64t13 -76.5v-301z M387 499q0 23 -7.5 48t-24 45.5t-42 34t-61.5 13.5t-62 -12.5t-43 -32.5t-25 -45.5t-8 -50.5l1 -293q0 -33 8.5 -61t26 -48.5t43.5 -32t61 -11.5q52 0 87 32l-84 67l36 41l80 -65q14 30 14 66v305z" />
<glyph unicode="R" horiz-adv-x="499" d="M275 696q89 0 137 -49.5t48 -139.5q0 -69 -32 -117t-97 -68l138 -322h-71l-130 314l-139 -1v-313h-64v696h210zM129 637v-268h134q64 0 98 35.5t34 102.5q0 65 -33.5 97.5t-98.5 32.5h-134z" />
<glyph unicode="S" horiz-adv-x="471" d="M437 186q0 -88 -52.5 -140.5t-150.5 -52.5q-79 0 -130.5 31.5t-77.5 85.5l57 33q21 -37 58 -62.5t94 -25.5q70 0 102 36.5t32 94.5q0 32 -9.5 54t-27 37.5t-42.5 26.5t-56 21q-51 15 -87 32t-59 39t-33.5 51t-10.5 68q0 41 13.5 75.5t38.5 59t61 38.5t82 14 q76 0 119.5 -25t68.5 -66l-56 -38q-20 35 -52 51.5t-83 16.5q-62 0 -94 -36.5t-32 -89.5q0 -29 11.5 -49.5t32.5 -35t49.5 -26t63.5 -22.5q45 -14 77 -31t52.5 -40t30.5 -53.5t10 -71.5z" />
<glyph unicode="T" horiz-adv-x="401" d="M233 637v-637h-64v637h-166v59h394v-59h-164z" />
<glyph unicode="U" horiz-adv-x="510" d="M456 696v-502q0 -47 -15.5 -84t-42.5 -63t-63.5 -39.5t-79.5 -13.5q-45 0 -81.5 14.5t-63 40.5t-41 63.5t-14.5 82.5v501h63v-501q0 -30 10 -55.5t28.5 -44t43.5 -29.5t55 -11q58 0 97 36.5t39 102.5v502h65z" />
<glyph unicode="V" horiz-adv-x="461" d="M380 696h66l-186 -696h-62q-47 175 -93 348t-92 348h66q10 -38 21 -83t24 -95.5t26.5 -105t27.5 -109.5l50 -197h2q11 46 21.5 90.5t20.5 90.5z" />
<glyph unicode="W" horiz-adv-x="699" d="M347 566q-13 -55 -24.5 -107.5t-23.5 -109.5q-10 -42 -21 -90.5t-22 -95.5t-20.5 -89.5t-16.5 -73.5h-61q-35 175 -70 348t-71 348h66l60 -313l46 -255h3l52 230l78 338h55l80 -344l50 -224h3l43 237l61 331h67l-141 -696h-60l-78 336q-14 57 -26 115t-26 115h-3z" />
<glyph unicode="X" horiz-adv-x="437" d="M360 0l-141 296l-142 -296h-71l178 359l-167 337h70l132 -278l130 278h71l-168 -337l179 -359h-71z" />
<glyph unicode="Y" horiz-adv-x="428" d="M156 500q14 -33 27.5 -68.5t27.5 -68.5l68 160l72 173h66l-174 -406v-290h-62v290l-174 406h67q20 -50 41 -98.5t41 -97.5z" />
<glyph unicode="Z" horiz-adv-x="405" d="M25 0v59l286 578h-272v59h341v-56l-286 -579h283v-61h-352z" />
<glyph unicode="[" horiz-adv-x="226" d="M68 -105v803h141v-43h-84v-718h84v-42h-141z" />
<glyph unicode="\" horiz-adv-x="259" d="M4 717h49l199 -747h-50z" />
<glyph unicode="]" horiz-adv-x="226" d="M29 -106v43h83v718h-83v43h139v-804h-139z" />
<glyph unicode="^" horiz-adv-x="425" d="M22 343l170 351h46l169 -351h-53l-140 293q-2 -4 -12 -26t-25 -53.5t-31.5 -67t-31.5 -66.5t-25.5 -53.5t-12.5 -26.5h-54z" />
<glyph unicode="_" horiz-adv-x="499" d="M0 -122v50h499v-50h-499z" />
<glyph unicode="`" horiz-adv-x="418" d="M266 556l-96 157l63 21l71 -162z" />
<glyph unicode="a" horiz-adv-x="418" d="M305 42q-20 -27 -54 -37.5t-73 -10.5q-71 0 -107.5 40.5t-36.5 101.5q0 31 9.5 59t29.5 48t51 32t74 12h110v68q0 40 -24.5 63t-74.5 23q-34 0 -62 -11.5t-43 -37.5q-11 6 -24 15t-24 16q21 36 60 56.5t93 20.5q34 0 64 -7t52 -24t34.5 -45t12.5 -70v-354h-64v41z M308 232h-112q-45 0 -74 -22t-29 -70q0 -39 26 -63.5t77 -24.5q22 0 42 5t35.5 15.5t25 28t9.5 43.5v88z" />
<glyph unicode="b" horiz-adv-x="420" d="M110 57q-1 0 -1 -0.5t-1 -0.5v-56h-62v725h62v-295h2q20 31 50 50t72 19q52 0 82.5 -21t46 -56t19.5 -79.5t4 -91.5q0 -50 -5 -96.5t-21 -82t-46 -57t-81 -21.5q-36 0 -67 14t-54 49zM214 438q-36 0 -57 -18t-32 -45t-14.5 -59.5t-3.5 -61.5q0 -31 1.5 -66.5t11.5 -65.5 t31.5 -50t62.5 -20q34 0 55.5 14.5t32.5 40.5t15 61.5t4 77.5q0 41 -3.5 76t-14.5 61t-32 40.5t-57 14.5z" />
<glyph unicode="c" horiz-adv-x="379" d="M307 110q13 -8 26 -14.5l27 -13.5q-18 -42 -56 -65t-91 -23q-56 0 -91 19.5t-55 54t-27.5 82.5t-7.5 104q0 52 9.5 97t31 78t56.5 52t86 19q54 0 90.5 -23.5t55.5 -65.5l-53 -31q-11 28 -35 44.5t-57 16.5q-39 0 -63 -15.5t-36.5 -41.5t-17 -60t-4.5 -71t4 -73t17 -64.5 t36.5 -46t61.5 -17.5q34 0 58 16.5t35 41.5z" />
<glyph unicode="d" horiz-adv-x="420" d="M309 57q-23 -35 -54 -49t-67 -14q-51 0 -81 20.5t-46 55t-21 80t-5 94.5q0 47 5 93t22 82t48.5 58t84.5 22q38 0 65.5 -15t48.5 -43h2v284h62v-725h-62v56q-1 0 -2 1zM207 438q-37 0 -58.5 -16.5t-33 -43.5t-14.5 -61.5t-3 -71.5q0 -39 4 -74.5t15 -61.5t32 -41.5 t56 -15.5q40 0 61.5 20.5t31.5 51t11.5 66t1.5 64.5q0 33 -3 65.5t-13.5 59t-31.5 43t-56 16.5z" />
<glyph unicode="e" horiz-adv-x="416" d="M366 85q-19 -43 -58 -67t-88 -24q-53 0 -88 15.5t-56 47.5t-30 80t-9 113q0 47 7 92t26.5 80t53 56.5t86.5 21.5q45 0 77.5 -15.5t53 -43t30 -65.5t9.5 -83v-62h-281q0 -41 5 -74t18.5 -57t36 -37t58.5 -13q32 0 58 18t38 44zM317 284q0 34 -4.5 63t-16 50t-32 32.5 t-53.5 11.5q-32 0 -53 -12t-33.5 -33.5t-17.5 -50.5t-6 -63h216v2z" />
<glyph unicode="f" horiz-adv-x="245" d="M139 442v-442h-64v442h-56v52h56v114q0 61 30.5 90t81.5 29h47v-58h-41q-17 0 -27.5 -5.5t-16.5 -15t-8 -22t-2 -25.5v-107h94v-52h-94z" />
<glyph unicode="g" horiz-adv-x="434" d="M378 -11q0 -91 -43 -144t-133 -53q-47 0 -84 22t-56 64l52 30q11 -23 34 -40.5t56 -17.5q59 0 85.5 35t26.5 94v85h-2q-20 -32 -50 -50.5t-72 -18.5q-52 0 -82.5 21t-46 55.5t-20 79t-4.5 91.5q0 48 5.5 94.5t22 83t46.5 58.5t80 22q36 0 67 -14.5t54 -49.5l2 1v56h62 v-504zM208 55q35 0 56 17t32.5 43.5t15.5 59t4 64.5q0 31 -3 66.5t-13.5 65.5t-31.5 50t-58 20q-36 0 -57 -15.5t-32.5 -42t-14.5 -61.5t-3 -75t3 -75t14 -61t31.5 -41t56.5 -15z" />
<glyph unicode="h" horiz-adv-x="436" d="M322 0v328q0 51 -24.5 80.5t-75.5 29.5q-48 0 -79 -32t-31 -84v-322h-62v726h63v-291h2q21 34 54.5 49.5t71.5 15.5q66 0 105 -40.5t39 -110.5v-349h-63z" />
<glyph unicode="i" horiz-adv-x="187" d="M61 621v66h65v-66h-65zM62 0v494h63v-494h-63z" />
<glyph unicode="j" horiz-adv-x="197" d="M132 -82q0 -53 -28 -88t-85 -35h-29v57h20q32 1 45 22.5t13 56.5v563h64v-576zM68 621v65h65v-65h-65z" />
<glyph unicode="k" horiz-adv-x="427" d="M352 0l-141 258q-7 -9 -19.5 -26t-27 -36t-27 -36.5t-19.5 -26.5v-133h-62v725h62v-497h1q14 18 41.5 55t58 77.5t58 78t41.5 55.5h72l-139 -186q7 -13 20.5 -37t30 -54t34.5 -62.5t34.5 -62.5t30 -54.5t20.5 -37.5h-69z" />
<glyph unicode="l" horiz-adv-x="211" d="M173 -3q-26 0 -47.5 5t-36.5 17.5t-22.5 34t-7.5 53.5v618h63v-606q0 -32 11.5 -48.5t42.5 -16.5h18v-57h-21z" />
<glyph unicode="m" horiz-adv-x="708" d="M369 425q26 36 60 54.5t79 18.5q66 0 105 -41t39 -109v-348h-63v309q0 58 -23 93t-77 35q-53 0 -79 -37t-26 -96v-304h-62v309q0 57 -23 92.5t-79 35.5q-53 0 -78.5 -38t-25.5 -97v-302h-61v492h61v-60h2q21 34 52.5 50t68.5 16q48 0 80.5 -20t48.5 -53h1v0z" />
<glyph unicode="n" horiz-adv-x="433" d="M321 0v328q0 51 -26.5 80t-77.5 29q-48 0 -77 -32t-29 -83v-322h-63v494h63v-61h3q21 34 54 50.5t71 16.5q66 0 105.5 -41t39.5 -110v-349h-63z" />
<glyph unicode="o" horiz-adv-x="429" d="M217 500q50 0 83.5 -19.5t53.5 -50.5q19 -26 26 -76t7 -108q0 -18 -1 -39.5t-3.5 -43t-6 -40.5t-7.5 -32q-19 -54 -62.5 -76t-97.5 -22q-51 0 -83.5 19t-50.5 49q-20 27 -27.5 74.5t-7.5 108.5q0 48 4 89.5t15 69.5q19 47 59.5 72t98.5 25zM215 443q-32 0 -57 -14.5 t-39 -43.5q-11 -20 -14 -58.5t-3 -89.5t5 -85.5t19 -54.5q27 -47 87 -47q33 0 60 16.5t39 51.5q8 20 10 55.5t2 77.5q0 45 -3.5 78.5t-11.5 51.5q-12 31 -36.5 46.5t-57.5 15.5z" />
<glyph unicode="p" horiz-adv-x="427" d="M109 436q23 35 54 49.5t67 14.5q51 0 81.5 -21t46 -55.5t20.5 -80t5 -94.5q0 -47 -5.5 -92.5t-22.5 -81.5t-48.5 -58t-83.5 -22q-38 0 -65 15t-49 43h-2v-254h-62v694h62v-56q1 0 2 -1zM211 55q37 0 58.5 16t32.5 43t14.5 61.5t3.5 71.5q0 39 -3.5 74.5t-14.5 62t-32 42 t-57 15.5q-39 0 -60.5 -18.5t-31.5 -47t-12 -62.5t-2 -65q0 -30 2 -64t12.5 -62.5t31 -47.5t58.5 -19z" />
<glyph unicode="q" horiz-adv-x="433" d="M212 55q35 0 56 18t32.5 45t15 59.5t3.5 61.5q0 31 -1.5 67t-11.5 66t-32 50t-62 20q-35 0 -56 -15.5t-32 -42t-15 -62t-4 -75.5q0 -37 2.5 -71.5t13.5 -61.5t32 -43t59 -16zM316 436q1 0 1 0.5t1 0.5v56h62v-695h-62v266h-2q-20 -32 -50 -50.5t-72 -18.5q-52 0 -82.5 21 t-46.5 55.5t-20.5 79t-4.5 91.5q0 48 5 94t21.5 82.5t47 58.5t81.5 22q38 0 68 -14t53 -49z" />
<glyph unicode="r" horiz-adv-x="299" d="M126 426q21 43 53 58.5t73 15.5q13 0 25 -2.5t21 -6.5l-14 -67q-11 5 -23.5 7.5t-23.5 2.5q-51 0 -82.5 -32t-31.5 -94v-308h-62v494h62v-68h3z" />
<glyph unicode="s" horiz-adv-x="398" d="M79 120q34 -70 120 -70q45 0 73.5 21t28.5 66q0 22 -7.5 36.5t-21.5 24t-33 16t-42 12.5q-36 9 -65 20t-49.5 26.5t-31.5 37.5t-11 53q0 63 42 100t116 37q63 0 102 -24t56 -67l-54 -27q-14 31 -41 46t-64 15q-49 0 -72 -23.5t-23 -56.5q0 -20 9.5 -32.5t26 -21.5t38 -15 t46.5 -13q35 -8 61.5 -19t44.5 -28t27 -40.5t9 -57.5q0 -64 -42.5 -103.5t-125.5 -39.5q-123 0 -169 98z" />
<glyph unicode="t" horiz-adv-x="244" d="M183 0q-54 0 -80.5 30t-26.5 81v331h-59v52h59v130h63v-130h76v-52h-76v-315q0 -33 11.5 -52t46.5 -19h27v-56h-41z" />
<glyph unicode="u" horiz-adv-x="440" d="M323 0v60h-3q-21 -35 -54.5 -50.5t-70.5 -15.5q-66 0 -105.5 40.5t-39.5 109.5v350h63v-329q0 -51 27.5 -81t76.5 -30q48 0 77 33t29 85v322h62v-494h-62z" />
<glyph unicode="v" horiz-adv-x="384" d="M195 91q4 14 10.5 37.5t13.5 49t13.5 49t10.5 37.5q6 20 14.5 51t17.5 64t18 64t15 51h68q-9 -28 -21.5 -67.5t-26.5 -85.5t-28.5 -94.5t-28 -94.5t-26 -85.5t-21.5 -66.5h-64q-9 27 -21.5 66.5t-26.5 85.5t-28.5 94.5t-28.5 94.5t-26.5 85.5t-21.5 67.5h68q6 -20 15 -51 t18.5 -64t18.5 -64t15 -51q1 -4 8.5 -30t16 -56.5t16 -56.5t9.5 -30h3z" />
<glyph unicode="w" horiz-adv-x="625" d="M480 0h-61l-69 249q-3 10 -8 29t-10.5 40t-11 40t-8.5 30h-1l-40 -148l-66 -240h-62l-135 493h66l66 -258q11 -42 19.5 -78t13.5 -57h4l34 128q6 22 15.5 57.5t20 74.5t20 75t15.5 58h61q36 -131 69 -261q8 -34 17 -67.5t18 -67.5h3l34 132q2 8 7 28.5t11.5 47t14 56 t14 56.5t11.5 47t7 29h66z" />
<glyph unicode="x" horiz-adv-x="381" d="M298 0l-107 205l-108 -205h-70l142 254l-135 240h71l100 -195l99 195h71l-136 -241l143 -253h-70z" />
<glyph unicode="y" horiz-adv-x="375" d="M191 98q6 21 15 52t20 68t22.5 76.5t22.5 76.5t20.5 68.5t15.5 53.5h65l-183 -598q-30 -98 -118 -98h-23v54h20q29 0 44.5 19.5t25.5 55.5l24 80q-41 122 -79.5 243t-79.5 244h67q16 -53 32 -104.5t32 -103.5q4 -15 11.5 -40.5t16 -53t15.5 -53t12 -40.5h2z" />
<glyph unicode="z" horiz-adv-x="361" d="M27 0v55l237 383h-221v55h292v-53l-237 -382h235v-58h-306z" />
<glyph unicode="{" horiz-adv-x="235" d="M177 -105q-38 0 -62 28.5t-24 76.5v138q0 59 -14 94t-55 43v40q21 4 34 17.5t21 33t11 42.5t3 46v128q0 51 22 83t64 32h46v-43h-27q-15 0 -25 -8.5t-15 -22t-7 -29t-2 -30.5v-130q0 -31 -6.5 -54.5t-16.5 -40.5t-21 -27.5t-20 -14.5v-2q22 -8 43 -43t21 -99v-127 q0 -15 2 -30.5t7.5 -28.5t15 -21.5t24.5 -8.5h27v-42h-46z" />
<glyph unicode="|" horiz-adv-x="191" d="M72 -162v878h51v-878h-51z" />
<glyph unicode="}" horiz-adv-x="235" d="M221 275q-41 -8 -55 -43t-14 -94v-138q0 -51 -25.5 -78t-63.5 -27h-43v42h28q15 0 24.5 8.5t15 21.5t7.5 28.5t2 30.5v137q0 30 6 53t15.5 39.5t20.5 26.5t21 14v2q-9 4 -20 14t-20.5 27t-16 40.5t-6.5 54.5v130q0 15 -2 30.5t-7 29t-14.5 22t-25.5 8.5h-28v41h42 q42 0 66 -28t24 -76v-137q0 -24 3 -47t10.5 -42t21 -32.5t34.5 -17.5v-40v0z" />
<glyph unicode="~" horiz-adv-x="425" d="M402 282q-21 -35 -46.5 -55t-60.5 -20q-19 0 -39 8.5t-41 18t-42 18t-41 8.5q-22 0 -36.5 -10.5t-32.5 -31.5l-39 28q20 32 47.5 50.5t61.5 18.5q22 0 43.5 -8t42 -17.5t40 -17.5t37.5 -8q20 0 34 11.5t32 34.5l40 -28v0z" />
<glyph unicode="&#xa1;" horiz-adv-x="221" d="M134 450q1 -54 1.5 -121.5t1.5 -138t2 -138t2 -121.5h-62q1 54 1.5 121.5t1.5 138t2 138t2 121.5h48zM145 626v-72h-68v72h68z" />
<glyph unicode="&#xa2;" horiz-adv-x="425" d="M201 -114v110q-47 5 -76.5 26t-46.5 55t-23.5 79t-6.5 98q0 48 8 90t26 74.5t47 53t72 26.5v100h38v-98q50 -2 85 -25.5t52 -63.5q-13 -8 -26 -15.5t-26 -15.5q-11 26 -33 42.5t-52 18.5v-389q29 2 51 18.5t32 39.5q14 -8 27 -14.5l27 -13.5q-18 -40 -53.5 -63t-83.5 -25 v-108h-38zM110 253q0 -33 3 -66t13 -60t28 -46.5t47 -25.5v383q-29 -6 -47 -23.5t-27.5 -42.5t-13 -55.5t-3.5 -63.5z" />
<glyph unicode="&#xa3;" horiz-adv-x="425" d="M214 701q62 0 109.5 -29.5t68.5 -95.5l-58 -22q-20 51 -49.5 69.5t-69.5 18.5q-18 0 -35.5 -6.5t-31 -19.5t-21.5 -32.5t-8 -45.5q0 -21 4.5 -41.5t11.5 -42t13.5 -46t11.5 -52.5h128v-51h-123q0 -74 -14 -132t-47 -116h278v-57h-352v52q32 51 53 107t21 125 q0 5 -0.5 10.5t-0.5 10.5h-73v51h65q-5 26 -12.5 49.5t-14 45.5t-11.5 43.5t-5 44.5q0 34 11 63.5t31.5 51.5t50.5 34.5t69 12.5z" />
<glyph unicode="&#xa4;" horiz-adv-x="535" d="M55 498l38 38l64 -63q53 38 114 38q59 0 113 -37l62 62l6 -6l13 -13t13 -13.5l6 -6.5l-62 -62q39 -56 39 -114q0 -61 -38 -114l62 -61l-6 -6.5t-13 -13.5l-13 -13l-6 -6l-62 62q-53 -39 -114 -39t-115 40l-64 -63l-6 6t-13 13.5t-13 13.5l-6 6l64 62q-20 25 -29 54t-9 59 q0 59 38 114zM137 321q0 -28 10.5 -52.5t29 -42.5t42.5 -28.5t51 -10.5q28 0 52.5 10.5t43 28.5t29 42.5t10.5 52.5t-10.5 52.5t-28.5 42.5t-42.5 28.5t-52.5 10.5q-27 0 -51.5 -10.5t-43 -28.5t-29 -42.5t-10.5 -52.5z" />
<glyph unicode="&#xa5;" horiz-adv-x="425" d="M264 339h120v-42h-135l-6 -20v-59h141v-42h-141v-176h-60v176h-137v42h137v58q0 3 -2 11t-3 10h-132v42h116l-143 357h63q10 -26 27.5 -72t37 -95.5t37 -95.5t27.5 -72h3q9 26 27 72t37 95.5t36.5 95.5t26.5 72h65z" />
<glyph unicode="&#xa6;" horiz-adv-x="191" d="M72 300v416h50v-416h-50zM122 254v-416h-50v416h50z" />
<glyph unicode="&#xa7;" horiz-adv-x="438" d="M400 287q0 -34 -15.5 -63.5t-43.5 -52.5q41 -47 41 -100q0 -66 -47 -106.5t-129 -40.5q-44 0 -86 17.5t-71 44.5q10 10 18 19.5t18 18.5q29 -26 59 -36.5t63 -10.5q53 0 84 23.5t31 68.5q0 39 -32.5 67t-93.5 55q-36 16 -63.5 31.5t-45.5 33.5t-27 40t-9 51 q0 34 17.5 63.5t46.5 50.5q-23 20 -34.5 44t-11.5 54q0 31 11.5 57.5t32.5 45.5t49.5 29.5t62.5 10.5q89 0 152 -55l-37 -43q-29 26 -57.5 35.5t-58.5 9.5q-45 0 -70 -25t-25 -60q0 -32 23.5 -52.5t62.5 -41.5q30 -16 63 -31.5t60 -35.5t44.5 -48t17.5 -68zM343 287 q0 27 -13 44.5t-37 32t-57.5 29t-73.5 35.5q-23 -11 -38 -31t-15 -46q0 -30 22 -51.5t52 -38.5t61.5 -29.5t51.5 -24.5q22 13 34.5 34t12.5 44v2z" />
<glyph unicode="&#xa8;" horiz-adv-x="420" d="M262 595v68h63v-68h-63zM94 595v68h65v-68h-65z" />
<glyph unicode="&#xa9;" horiz-adv-x="748" d="M498 211q-11 -42 -44 -65.5t-76 -23.5q-60 0 -94 36t-34 93v170q0 55 34 91.5t94 36.5q43 0 75.5 -23t43.5 -65l-45 -18q-7 26 -26 42.5t-48 16.5q-39 0 -59 -24t-20 -55v-174q0 -32 20 -56.5t59 -24.5q28 0 47.5 16.5t25.5 43.5zM376 -8q-74 0 -134 26.5t-102 73.5 t-65 110.5t-23 138.5t23 139.5t65.5 111.5t102 73.5t133.5 26.5q73 0 133 -26.5t102.5 -73.5t65.5 -111.5t23 -139.5t-23 -138.5t-65.5 -110.5t-102.5 -73.5t-133 -26.5zM376 647q-63 0 -114 -24t-87 -65t-55 -97t-19 -120t20 -119.5t56 -97t86.5 -65t112.5 -23.5 q63 0 114 23.5t86.5 65t55 97t19.5 119.5q0 65 -19.5 121t-55.5 97t-87 64.5t-113 23.5z" />
<glyph unicode="&#xaa;" horiz-adv-x="288" d="M143 609q25 0 46.5 -4.5t37.5 -16t24.5 -30.5t8.5 -48v-231h-52v32q-16 -18 -38.5 -27t-48.5 -9q-51 0 -76 27t-25 69q0 19 5.5 37.5t18.5 32t32.5 22t48.5 8.5h83v39q0 24 -14.5 38t-51.5 14q-45 0 -68 -34l-41 24q15 26 43.5 41.5t66.5 15.5zM70 373q0 -24 16 -38 t48 -14q29 0 51.5 13t22.5 44v49h-72q-29 0 -47.5 -12.5t-18.5 -41.5z" />
<glyph unicode="&#xab;" horiz-adv-x="410" d="M309 46l-114 183l115 182h61l-112 -182l112 -183h-62zM161 46l-114 183l114 182h62l-113 -182l113 -183h-62z" />
<glyph unicode="&#xac;" horiz-adv-x="425" d="M404 88h-49v177h-335v50h385z" />
<glyph unicode="&#xad;" horiz-adv-x="358" d="M51 235v56h261v-56h-261z" />
<glyph unicode="&#xae;" horiz-adv-x="520" d="M260 278q-45 0 -81.5 16t-63 44.5t-40.5 67.5t-14 85t14 85.5t40.5 68t63 45t81.5 16.5t81 -16.5t62 -45t40 -68t14 -85.5t-14 -85t-40 -67.5t-62.5 -44.5t-80.5 -16zM260 676q-38 0 -68.5 -14.5t-51.5 -39t-32.5 -58t-11.5 -72.5q0 -40 11.5 -73.5t33 -58t52 -38 t67.5 -13.5q38 0 68.5 14t51.5 39t32 58t11 72t-11.5 72.5t-33 58t-51.5 39t-67 14.5zM310 363l-46 108h-41v-108h-35v254h74q36 0 58.5 -17.5t22.5 -55.5q0 -23 -11 -41.5t-33 -27.5q13 -27 25.5 -55.5t24.5 -56.5h-39zM308 544q0 24 -14.5 32.5t-39.5 8.5h-31v-84h40 q20 0 32.5 10t12.5 33z" />
<glyph unicode="&#xaf;" horiz-adv-x="418" d="M101 588v59h239v-59h-239z" />
<glyph unicode="&#xb0;" horiz-adv-x="328" d="M279 587q0 -24 -9 -44.5t-24 -35.5t-35.5 -24t-44.5 -9t-44.5 9t-35.5 24t-24 35.5t-9 44.5q0 23 9 43.5t24 35.5t35.5 24t44.5 9t44.5 -9t35.5 -24t24 -35.5t9 -43.5zM237 587q0 30 -20.5 51t-50.5 21q-29 0 -50.5 -21t-21.5 -51q0 -31 21.5 -52t50.5 -21q30 0 50.5 21 t20.5 52z" />
<glyph unicode="&#xb1;" horiz-adv-x="425" d="M238 276v-171h-48v171h-166v49h166v171h48v-171h167v-49h-167zM24 10v50h381v-50h-381z" />
<glyph unicode="&#xb2;" horiz-adv-x="270" d="M23 371v42l150 213q12 16 16.5 31t4.5 32q0 22 -13 38.5t-45 16.5q-24 0 -41 -16.5t-20 -48.5l-51 7q5 48 35 76t78 28q53 0 81.5 -26.5t28.5 -73.5q0 -22 -7.5 -45t-22.5 -44l-132 -183h158v-47h-220z" />
<glyph unicode="&#xb3;" horiz-adv-x="270" d="M134 788q60 0 84.5 -32t24.5 -77q0 -24 -7.5 -50t-36.5 -42q31 -16 38.5 -42t7.5 -58q0 -53 -27 -87.5t-88 -34.5q-45 0 -73.5 22.5t-33.5 71.5l51 6q2 -26 16.5 -41t40.5 -15q37 0 50 24t13 58q0 33 -14.5 52.5t-46.5 19.5h-30v44h28q32 0 46 18t14 49q0 30 -13 49 t-45 19q-23 0 -39 -15t-21 -41l-50 8q6 41 35 67.5t76 26.5z" />
<glyph unicode="&#xb4;" horiz-adv-x="418" d="M170 572l72 162l62 -21l-96 -157z" />
<glyph unicode="&#xb6;" horiz-adv-x="468" d="M255 661v-742h-52v422q-40 2 -71 17t-52.5 40t-32.5 57t-11 68q0 31 7.5 65t26.5 62t52.5 46t85.5 18h222v-53h-45v-742h-53v742h-77z" />
<glyph unicode="&#xb7;" horiz-adv-x="185" d="M55 228v82h75v-82h-75z" />
<glyph unicode="&#xb8;" horiz-adv-x="427" d="M196 20q9 -1 17.5 -1.5t17.5 -0.5l-21 -68q26 -1 43 -9t27 -19.5t14 -24.5t4 -24q0 -12 -5 -25t-15.5 -24t-27 -18t-40.5 -7q-11 0 -35 2t-48 13l12 31q18 -8 35 -10.5t30 -2.5q18 0 33 10t15 31q0 20 -16.5 32t-42.5 12h-7l-17 14l27 89v0z" />
<glyph unicode="&#xb9;" horiz-adv-x="225" d="M159 371h-50v362l-65 -42v52l67 45h48v-417z" />
<glyph unicode="&#xba;" horiz-adv-x="296" d="M150 609q40 0 65 -15.5t39 -39.5q17 -31 17 -111q0 -37 -3.5 -62t-11.5 -45q-14 -32 -44 -47t-65 -15q-42 0 -67.5 15.5t-38.5 41.5q-10 20 -13 49t-3 60q0 32 3.5 59t15.5 48q16 29 40 45.5t66 16.5zM149 562q-17 0 -32 -6.5t-24 -20.5q-8 -11 -12.5 -37.5t-4.5 -62.5 q0 -29 3.5 -48.5t9.5 -31.5q8 -17 22 -26t37 -9q44 0 62 38q6 12 8 34t2 52q0 29 -2.5 48t-6.5 30q-14 40 -62 40z" />
<glyph unicode="&#xbb;" horiz-adv-x="410" d="M47 46l112 183l-112 182h62l115 -182l-115 -183h-62zM196 46l113 183l-113 182h61l115 -182l-115 -183h-61z" />
<glyph unicode="&#xbc;" horiz-adv-x="620" d="M531 64v-64h-51v64h-164v43l126 310h54l-126 -307h110v118h51v-118h36v-46h-36zM120 -17h-46l369 731h47zM168 279h-50v362l-65 -42v52l67 45h48v-417z" />
<glyph unicode="&#xbd;" horiz-adv-x="620" d="M350 0v42l150 213q12 17 16.5 32t4.5 32q0 21 -13 38t-45 17q-24 0 -41 -17t-20 -49l-51 8q5 47 35 75t78 28q53 0 81.5 -26.5t28.5 -73.5q0 -46 -30 -89l-132 -183h158v-47h-220zM111 -17h-46l369 731h47zM160 279h-50v362l-65 -42v52l67 45h48v-417z" />
<glyph unicode="&#xbe;" horiz-adv-x="620" d="M138 698q60 0 84.5 -32t24.5 -77q0 -24 -7.5 -50t-36.5 -42q31 -16 38.5 -42t7.5 -58q0 -53 -27 -87.5t-88 -34.5q-45 0 -73.5 22.5t-33.5 71.5l51 6q2 -26 16.5 -41t40.5 -15q37 0 50 24t13 58q0 33 -14.5 52.5t-46.5 19.5h-30v44h28q32 0 46 18t14 49q0 30 -13 49 t-45 19q-23 0 -39 -15t-21 -41l-50 8q6 41 35 67.5t76 26.5zM557 64v-64h-51v64h-164v43l126 310h54l-126 -307h110v118h51v-118h36v-46h-36zM159 -17h-46l369 731h47z" />
<glyph unicode="&#xbf;" horiz-adv-x="414" d="M228 -210q-85 0 -128 47.5t-43 122.5q1 46 15.5 77.5t37.5 64.5q12 18 26.5 36.5t27 37.5t20.5 38.5t8 40.5v65h63v-58q0 -56 -32 -105q-17 -26 -34.5 -49t-32 -45t-24 -43.5t-9.5 -44.5q0 -21 4.5 -43.5t16.5 -40.5t33 -29.5t55 -11.5q25 0 45 10t34.5 26.5t23 37 t9.5 42.5l64 -9q-6 -42 -22 -73t-40 -52t-54 -31.5t-64 -10.5zM258 490v-72h-68v72h68z" />
<glyph unicode="&#xc0;" horiz-adv-x="489" d="M412 0l-47 167h-242l-47 -167h-66l203 696h63l203 -696h-67zM289 440l-43 162h-4q-2 -8 -8 -31t-13 -50t-13.5 -50.5t-8.5 -30.5q-3 -12 -12 -42.5t-18.5 -65t-18.5 -65t-13 -42.5h213zM246 735l-159 98l47 49l141 -115z" />
<glyph unicode="&#xc1;" horiz-adv-x="489" d="M412 0l-47 167h-242l-47 -167h-66l203 696h63l203 -696h-67zM289 440l-43 162h-4q-2 -8 -8 -31t-13 -50t-13.5 -50.5t-8.5 -30.5q-3 -12 -12 -42.5t-18.5 -65t-18.5 -65t-13 -42.5h213zM216 758l139 112l44 -48l-156 -95z" />
<glyph unicode="&#xc2;" horiz-adv-x="489" d="M412 0l-47 167h-242l-47 -167h-66l203 696h63l203 -696h-67zM289 440l-43 162h-4q-2 -8 -8 -31t-13 -50t-13.5 -50.5t-8.5 -30.5q-3 -12 -12 -42.5t-18.5 -65t-18.5 -65t-13 -42.5h213zM244 813l-125 -80l-25 26l132 114h42l126 -113l-25 -27z" />
<glyph unicode="&#xc3;" horiz-adv-x="489" d="M412 0l-47 167h-242l-47 -167h-66l203 696h63l203 -696h-67zM289 440l-43 162h-4q-2 -8 -8 -31t-13 -50t-13.5 -50.5t-8.5 -30.5q-3 -12 -12 -42.5t-18.5 -65t-18.5 -65t-13 -42.5h213zM181 849q16 0 31.5 -6.5t30.5 -14t30 -14t29 -6.5q27 0 55 41l36 -22 q-18 -38 -41 -55.5t-48 -17.5q-16 0 -31.5 6t-31 13.5t-30.5 14t-28 6.5q-28 0 -57 -37l-36 20q17 32 41 52t50 20z" />
<glyph unicode="&#xc4;" horiz-adv-x="489" d="M412 0l-47 167h-242l-47 -167h-66l203 696h63l203 -696h-67zM289 440l-43 162h-4q-2 -8 -8 -31t-13 -50t-13.5 -50.5t-8.5 -30.5q-3 -12 -12 -42.5t-18.5 -65t-18.5 -65t-13 -42.5h213zM128 748v67h65v-67h-65zM293 748v67h64v-67h-64z" />
<glyph unicode="&#xc5;" horiz-adv-x="489" d="M412 0l-47 167h-242l-47 -167h-66l203 696h63l203 -696h-67zM289 440l-43 162h-4q-2 -8 -8 -31t-13 -50t-13.5 -50.5t-8.5 -30.5q-3 -12 -12 -42.5t-18.5 -65t-18.5 -65t-13 -42.5h213zM243 720q-36 0 -61 24.5t-25 58.5q0 18 6.5 33.5t18.5 27t27.5 18.5t33.5 7 q17 0 32 -7t26.5 -18.5t18 -27t6.5 -33.5q0 -34 -24.5 -58.5t-58.5 -24.5zM243 854q-22 0 -37 -14.5t-15 -36.5q0 -20 15 -34t37 -14q20 0 35 14t15 34q0 22 -15 36.5t-35 14.5z" />
<glyph unicode="&#xc6;" horiz-adv-x="787" d="M394 190h-224l-98 -190h-67q89 175 178 348t179 348h393v-60h-297v-253h256v-58h-256v-264h297v-61h-361v190zM390 626q-48 -95 -95.5 -189t-95.5 -189h195v377z" />
<glyph unicode="&#xc7;" horiz-adv-x="463" d="M439 130q-15 -64 -63 -98t-114 -37l-13 -45q26 -1 43 -9t27 -19.5t14 -24.5t4 -24q0 -12 -5 -25t-15.5 -24t-27 -18t-40.5 -7q-11 0 -35 2t-48 13l12 31q18 -8 35 -10.5t30 -2.5q18 0 33 10t15 31q0 20 -16.5 32t-42.5 12h-7l-17 14l19 64q-83 7 -130 62t-47 140v302 q0 44 13.5 81t39.5 64t63 42t84 15q69 0 120.5 -34.5t68.5 -98.5l-62 -23q-10 45 -43 70t-84 25q-32 0 -57.5 -11t-43 -30t-26.5 -44.5t-9 -54.5v-305q0 -29 9.5 -55t27 -45t42.5 -30t57 -11q49 0 83 25t45 73z" />
<glyph unicode="&#xc8;" horiz-adv-x="449" d="M65 0v696h362v-60h-298v-253h256v-58h-256v-263h298v-62h-362zM258 735l-159 98l47 49l141 -115z" />
<glyph unicode="&#xc9;" horiz-adv-x="449" d="M65 0v696h362v-60h-298v-253h256v-58h-256v-263h298v-62h-362zM177 758l139 112l44 -48l-156 -95z" />
<glyph unicode="&#xca;" horiz-adv-x="449" d="M65 0v696h362v-60h-298v-253h256v-58h-256v-263h298v-62h-362zM244 813l-125 -80l-25 26l132 114h42l126 -113l-25 -27z" />
<glyph unicode="&#xcb;" horiz-adv-x="449" d="M65 0v696h362v-60h-298v-253h256v-58h-256v-263h298v-62h-362zM299 765v68h63v-68h-63zM131 765v68h65v-68h-65z" />
<glyph unicode="&#xcc;" horiz-adv-x="206" d="M70 0v696h65v-696h-65zM109 735l-159 98l47 49l141 -115z" />
<glyph unicode="&#xcd;" horiz-adv-x="206" d="M70 0v696h65v-696h-65zM75 758l139 112l44 -48l-156 -95z" />
<glyph unicode="&#xce;" horiz-adv-x="206" d="M70 0v696h65v-696h-65zM100 813l-125 -80l-25 26l132 114h42l126 -113l-25 -27z" />
<glyph unicode="&#xcf;" horiz-adv-x="206" d="M70 0v696h65v-696h-65zM154 765v68h63v-68h-63zM-14 765v68h65v-68h-65z" />
<glyph unicode="&#xd0;" horiz-adv-x="514" d="M7 386h57v310h195q143 0 187 -110q12 -34 14.5 -85t2.5 -117v-115q0 -48 -2.5 -86.5t-13.5 -66.5q-13 -34 -33.5 -56t-47 -35.5t-58 -19t-65.5 -5.5h-179v337h-57v49zM399 459q0 23 -2 47.5t-9 44.5q-13 42 -48.5 64t-90.5 22h-120v-251h131v-49h-131v-278h120 q109 0 138 85q6 16 9 37t3 41v237z" />
<glyph unicode="&#xd1;" horiz-adv-x="555" d="M429 0l-200 372q-8 14 -21.5 39.5t-28 52.5t-28 52.5t-20.5 39.5h-2v-556h-65v696h63q8 -15 23.5 -44t35 -65t40.5 -75.5t40 -75t34.5 -64.5t24.5 -44l99 -187l4 1v554h64v-696h-63zM216 842q16 0 31.5 -6.5t30.5 -14t30 -14t29 -6.5q27 0 55 41l36 -22 q-18 -38 -41 -55.5t-48 -17.5q-16 0 -31.5 6t-31 13.5t-30.5 14t-28 6.5q-28 0 -57 -37l-36 20q17 32 41 52t50 20z" />
<glyph unicode="&#xd2;" horiz-adv-x="491" d="M446 199q0 -46 -14.5 -83.5t-41 -64.5t-63 -42t-81.5 -15q-52 0 -90 16.5t-63 45.5t-37 68t-12 83v293q0 38 12 74t36.5 64.5t62.5 45.5t91 17q49 0 86 -16.5t62.5 -44t38.5 -64t13 -76.5v-301zM380 499q0 23 -7.5 48t-23.5 45.5t-41.5 34t-61.5 13.5t-62 -12.5 t-43 -32.5t-25 -45.5t-8 -50.5v-293q0 -33 8.5 -61t26 -48.5t43.5 -32t61 -11.5q28 0 52.5 10.5t42.5 29.5t28 45t10 56v305zM270 735l-159 98l47 49l141 -115z" />
<glyph unicode="&#xd3;" horiz-adv-x="491" d="M446 199q0 -46 -14.5 -83.5t-41 -64.5t-63 -42t-81.5 -15q-52 0 -90 16.5t-63 45.5t-37 68t-12 83v293q0 38 12 74t36.5 64.5t62.5 45.5t91 17q49 0 86 -16.5t62.5 -44t38.5 -64t13 -76.5v-301zM380 499q0 23 -7.5 48t-23.5 45.5t-41.5 34t-61.5 13.5t-62 -12.5 t-43 -32.5t-25 -45.5t-8 -50.5v-293q0 -33 8.5 -61t26 -48.5t43.5 -32t61 -11.5q28 0 52.5 10.5t42.5 29.5t28 45t10 56v305zM204 758l139 112l44 -48l-156 -95z" />
<glyph unicode="&#xd4;" horiz-adv-x="491" d="M446 199q0 -46 -14.5 -83.5t-41 -64.5t-63 -42t-81.5 -15q-52 0 -90 16.5t-63 45.5t-37 68t-12 83v293q0 38 12 74t36.5 64.5t62.5 45.5t91 17q49 0 86 -16.5t62.5 -44t38.5 -64t13 -76.5v-301zM380 499q0 23 -7.5 48t-23.5 45.5t-41.5 34t-61.5 13.5t-62 -12.5 t-43 -32.5t-25 -45.5t-8 -50.5v-293q0 -33 8.5 -61t26 -48.5t43.5 -32t61 -11.5q28 0 52.5 10.5t42.5 29.5t28 45t10 56v305zM244 813l-125 -80l-25 26l132 114h42l126 -113l-25 -27z" />
<glyph unicode="&#xd5;" horiz-adv-x="491" d="M446 199q0 -46 -14.5 -83.5t-41 -64.5t-63 -42t-81.5 -15q-52 0 -90 16.5t-63 45.5t-37 68t-12 83v293q0 38 12 74t36.5 64.5t62.5 45.5t91 17q49 0 86 -16.5t62.5 -44t38.5 -64t13 -76.5v-301zM380 499q0 23 -7.5 48t-23.5 45.5t-41.5 34t-61.5 13.5t-62 -12.5 t-43 -32.5t-25 -45.5t-8 -50.5v-293q0 -33 8.5 -61t26 -48.5t43.5 -32t61 -11.5q28 0 52.5 10.5t42.5 29.5t28 45t10 56v305zM183 849q16 0 31.5 -6.5t30.5 -14t30 -14t29 -6.5q27 0 55 41l36 -22q-18 -38 -41 -55.5t-48 -17.5q-16 0 -31.5 6t-31 13.5t-30.5 14t-28 6.5 q-28 0 -57 -37l-36 20q17 32 41 52t50 20z" />
<glyph unicode="&#xd6;" horiz-adv-x="491" d="M446 199q0 -46 -14.5 -83.5t-41 -64.5t-63 -42t-81.5 -15q-52 0 -90 16.5t-63 45.5t-37 68t-12 83v293q0 38 12 74t36.5 64.5t62.5 45.5t91 17q49 0 86 -16.5t62.5 -44t38.5 -64t13 -76.5v-301zM380 499q0 23 -7.5 48t-23.5 45.5t-41.5 34t-61.5 13.5t-62 -12.5 t-43 -32.5t-25 -45.5t-8 -50.5v-293q0 -33 8.5 -61t26 -48.5t43.5 -32t61 -11.5q28 0 52.5 10.5t42.5 29.5t28 45t10 56v305zM291 748v67h64v-67h-64zM126 748v67h65v-67h-65z" />
<glyph unicode="&#xd7;" horiz-adv-x="461" d="M270 284l145 -144l-35 -35l-144 144l-149 -148l-34 34l149 149l-143 143l34 35l143 -143l147 148l35 -35z" />
<glyph unicode="&#xd8;" horiz-adv-x="491" d="M446 199q0 -46 -14.5 -83.5t-41 -64.5t-63 -42t-81.5 -15q-49 0 -85.5 14.5t-61.5 40.5l-30 -54q-8 5 -15.5 9.5t-14.5 9.5l37 66q-17 27 -24.5 59t-7.5 68v293q0 38 12 74t36.5 64.5t62.5 45.5t91 17q45 0 80 -14t60 -38l30 53l32 -19l-36 -65q34 -53 34 -118v-301z M380 499q0 25 -7 47q-60 -110 -120.5 -218.5t-120.5 -217.5q17 -26 45.5 -41.5t69.5 -15.5q28 0 52.5 10.5t42.5 29.5t28 45t10 56v305zM115 152q60 109 119 217.5t119 217.5q-16 23 -42.5 38t-64.5 15q-36 0 -62 -12.5t-43 -32.5t-25 -45.5t-8 -50.5v-293q0 -14 1.5 -28 t5.5 -26z" />
<glyph unicode="&#xd9;" horiz-adv-x="510" d="M456 696v-502q0 -47 -15.5 -84t-42.5 -63t-63.5 -39.5t-79.5 -13.5q-45 0 -81.5 14.5t-63 40.5t-41 63.5t-14.5 82.5v501h63v-501q0 -30 10 -55.5t28.5 -44t43.5 -29.5t55 -11q58 0 97 36.5t39 102.5v502h65zM283 735l-159 98l47 49l141 -115z" />
<glyph unicode="&#xda;" horiz-adv-x="510" d="M456 696v-502q0 -47 -15.5 -84t-42.5 -63t-63.5 -39.5t-79.5 -13.5q-45 0 -81.5 14.5t-63 40.5t-41 63.5t-14.5 82.5v501h63v-501q0 -30 10 -55.5t28.5 -44t43.5 -29.5t55 -11q58 0 97 36.5t39 102.5v502h65zM193 758l139 112l44 -48l-156 -95z" />
<glyph unicode="&#xdb;" horiz-adv-x="510" d="M456 696v-502q0 -47 -15.5 -84t-42.5 -63t-63.5 -39.5t-79.5 -13.5q-45 0 -81.5 14.5t-63 40.5t-41 63.5t-14.5 82.5v501h63v-501q0 -30 10 -55.5t28.5 -44t43.5 -29.5t55 -11q58 0 97 36.5t39 102.5v502h65zM256 813l-125 -80l-25 26l132 114h42l126 -113l-25 -27z" />
<glyph unicode="&#xdc;" horiz-adv-x="510" d="M456 696v-502q0 -47 -15.5 -84t-42.5 -63t-63.5 -39.5t-79.5 -13.5q-45 0 -81.5 14.5t-63 40.5t-41 63.5t-14.5 82.5v501h63v-501q0 -30 10 -55.5t28.5 -44t43.5 -29.5t55 -11q58 0 97 36.5t39 102.5v502h65zM308 748v67h64v-67h-64zM143 748v67h65v-67h-65z" />
<glyph unicode="&#xdd;" horiz-adv-x="428" d="M156 500q14 -33 27.5 -68.5t27.5 -68.5l68 160l72 173h66l-174 -406v-290h-62v290l-174 406h67q20 -50 41 -98.5t41 -97.5zM160 758l139 112l44 -48l-156 -95z" />
<glyph unicode="&#xde;" horiz-adv-x="478" d="M459 357q0 -40 -10.5 -77t-34 -65t-61 -45t-90.5 -17h-135l2 -153h-65v716h65l-2 -155h132q95 0 147 -50.5t52 -153.5zM394 358q0 66 -33 104t-103 38h-130v-287h131q38 0 64 11.5t41.5 31.5t22.5 46t7 56z" />
<glyph unicode="&#xdf;" horiz-adv-x="440" d="M217 726q78 0 118 -46t40 -118q0 -21 -3.5 -42.5t-11.5 -40.5t-21.5 -33.5t-33.5 -23.5v-1q30 -11 47 -30.5t26 -45t11.5 -55.5t2.5 -62q0 -43 -5.5 -84.5t-22 -74.5t-47 -53t-81.5 -20h-31v51h21q37 0 57.5 16.5t30.5 42t12 57.5t2 62q0 34 -3.5 64.5t-15 53t-33.5 35.5 t-58 13v54h9q25 0 41 10t26 25.5t14 35t4 39.5q0 49 -23.5 82t-74.5 33q-32 0 -51.5 -12t-30 -31t-14 -42.5t-3.5 -46.5v-538h-62v537q0 86 40 137.5t124 51.5z" />
<glyph unicode="&#xe0;" horiz-adv-x="418" d="M305 42q-20 -27 -54 -37.5t-73 -10.5q-71 0 -107.5 40.5t-36.5 101.5q0 31 9.5 59t29.5 48t51 32t74 12h110v68q0 40 -24.5 63t-74.5 23q-34 0 -62 -11.5t-43 -37.5q-11 6 -24 15t-24 16q21 36 60 56.5t93 20.5q34 0 64 -7t52 -24t34.5 -45t12.5 -70v-354h-64v41z M308 232h-112q-45 0 -74 -22t-29 -70q0 -39 26 -63.5t77 -24.5q22 0 42 5t35.5 15.5t25 28t9.5 43.5v88zM216 556l-96 157l63 21l71 -162z" />
<glyph unicode="&#xe1;" horiz-adv-x="418" d="M305 42q-20 -27 -54 -37.5t-73 -10.5q-71 0 -107.5 40.5t-36.5 101.5q0 31 9.5 59t29.5 48t51 32t74 12h110v68q0 40 -24.5 63t-74.5 23q-34 0 -62 -11.5t-43 -37.5q-11 6 -24 15t-24 16q21 36 60 56.5t93 20.5q34 0 64 -7t52 -24t34.5 -45t12.5 -70v-354h-64v41z M308 232h-112q-45 0 -74 -22t-29 -70q0 -39 26 -63.5t77 -24.5q22 0 42 5t35.5 15.5t25 28t9.5 43.5v88zM202 572l72 162l62 -21l-96 -157z" />
<glyph unicode="&#xe2;" horiz-adv-x="418" d="M305 42q-20 -27 -54 -37.5t-73 -10.5q-71 0 -107.5 40.5t-36.5 101.5q0 31 9.5 59t29.5 48t51 32t74 12h110v68q0 40 -24.5 63t-74.5 23q-34 0 -62 -11.5t-43 -37.5q-11 6 -24 15t-24 16q21 36 60 56.5t93 20.5q34 0 64 -7t52 -24t34.5 -45t12.5 -70v-354h-64v41z M308 232h-112q-45 0 -74 -22t-29 -70q0 -39 26 -63.5t77 -24.5q22 0 42 5t35.5 15.5t25 28t9.5 43.5v88zM213 652l-121 -99l-29 26l132 134h42l126 -132l-29 -27z" />
<glyph unicode="&#xe3;" horiz-adv-x="418" d="M305 42q-20 -27 -54 -37.5t-73 -10.5q-71 0 -107.5 40.5t-36.5 101.5q0 31 9.5 59t29.5 48t51 32t74 12h110v68q0 40 -24.5 63t-74.5 23q-34 0 -62 -11.5t-43 -37.5q-11 6 -24 15t-24 16q21 36 60 56.5t93 20.5q34 0 64 -7t52 -24t34.5 -45t12.5 -70v-354h-64v41z M308 232h-112q-45 0 -74 -22t-29 -70q0 -39 26 -63.5t77 -24.5q22 0 42 5t35.5 15.5t25 28t9.5 43.5v88zM156 679q16 0 31.5 -6.5t30.5 -14t30 -14t29 -6.5q27 0 55 41l36 -22q-18 -38 -41 -55.5t-48 -17.5q-16 0 -31.5 6t-31 13.5t-30.5 14t-28 6.5q-28 0 -57 -37l-36 20 q17 32 41 52t50 20z" />
<glyph unicode="&#xe4;" horiz-adv-x="418" d="M305 42q-20 -27 -54 -37.5t-73 -10.5q-71 0 -107.5 40.5t-36.5 101.5q0 31 9.5 59t29.5 48t51 32t74 12h110v68q0 40 -24.5 63t-74.5 23q-34 0 -62 -11.5t-43 -37.5q-11 6 -24 15t-24 16q21 36 60 56.5t93 20.5q34 0 64 -7t52 -24t34.5 -45t12.5 -70v-354h-64v41z M308 232h-112q-45 0 -74 -22t-29 -70q0 -39 26 -63.5t77 -24.5q22 0 42 5t35.5 15.5t25 28t9.5 43.5v88zM265 595v68h63v-68h-63zM97 595v68h65v-68h-65z" />
<glyph unicode="&#xe5;" horiz-adv-x="418" d="M305 42q-20 -27 -54 -37.5t-73 -10.5q-71 0 -107.5 40.5t-36.5 101.5q0 31 9.5 59t29.5 48t51 32t74 12h110v68q0 40 -24.5 63t-74.5 23q-34 0 -62 -11.5t-43 -37.5q-11 6 -24 15t-24 16q21 36 60 56.5t93 20.5q34 0 64 -7t52 -24t34.5 -45t12.5 -70v-354h-64v41z M308 232h-112q-45 0 -74 -22t-29 -70q0 -39 26 -63.5t77 -24.5q22 0 42 5t35.5 15.5t25 28t9.5 43.5v88zM216 552q-36 0 -61 24.5t-25 58.5q0 18 6.5 33.5t18.5 27t27.5 18.5t33.5 7q17 0 32 -7t26.5 -18.5t18 -27t6.5 -33.5q0 -34 -24.5 -58.5t-58.5 -24.5zM216 686 q-22 0 -37 -14.5t-15 -36.5q0 -20 15 -34t37 -14q20 0 35 14t15 34q0 22 -15 36.5t-35 14.5z" />
<glyph unicode="&#xe6;" horiz-adv-x="690" d="M636 78q-20 -42 -57.5 -63t-85.5 -21q-53 0 -92.5 18.5t-60.5 62.5q-36 -46 -77 -63.5t-86 -17.5q-71 0 -107.5 40.5t-36.5 100.5q0 70 41.5 111t126.5 41h107v68q0 40 -24.5 63t-75.5 23q-31 0 -59.5 -11t-44.5 -38l-24 16l-24 16q23 38 63 57t88 19q49 0 87.5 -14.5 t58.5 -52.5q20 34 53 50.5t77 16.5q45 0 77.5 -15.5t53 -43t30 -65t9.5 -82.5v-62h-280q0 -35 4 -67.5t16.5 -58.5t35.5 -41.5t61 -15.5q32 0 57 16t39 41zM308 232h-112q-20 0 -38.5 -4.5t-33 -15.5t-23 -28.5t-8.5 -44.5q0 -39 25.5 -63t77.5 -24t82 26.5t30 73.5v80z M591 284q0 33 -5.5 61.5t-18 50t-33 33.5t-50.5 12q-32 0 -52.5 -12t-33 -33.5t-17.5 -50t-6 -61.5h216z" />
<glyph unicode="&#xe7;" horiz-adv-x="379" d="M307 110q13 -8 26 -14.5l27 -13.5q-17 -40 -52.5 -63t-84.5 -25l-13 -44q26 -1 43 -9t27 -19.5t14 -24.5t4 -24q0 -12 -5 -25t-15.5 -24t-27 -18t-40.5 -7q-11 0 -35 2t-48 13l12 31q18 -8 35 -10.5t30 -2.5q18 0 33 10t15 31q0 20 -16.5 32t-42.5 12h-7l-17 14l19 65 q-48 4 -78 25t-47.5 55t-24 79.5t-6.5 98.5q0 52 9.5 97t31 78t56.5 52t86 19q54 0 90.5 -23.5t55.5 -65.5l-53 -31q-11 28 -35 44.5t-57 16.5q-39 0 -63 -15.5t-36.5 -41.5t-17 -60t-4.5 -71t4 -73t17 -64.5t36.5 -46t61.5 -17.5q34 0 58 16.5t35 41.5z" />
<glyph unicode="&#xe8;" horiz-adv-x="416" d="M366 85q-19 -43 -58 -67t-88 -24q-53 0 -88 15.5t-56 47.5t-30 80t-9 113q0 47 7 92t26.5 80t53 56.5t86.5 21.5q45 0 77.5 -15.5t53 -43t30 -65.5t9.5 -83v-62h-281q0 -41 5 -74t18.5 -57t36 -37t58.5 -13q32 0 58 18t38 44zM317 284q0 34 -4.5 63t-16 50t-32 32.5 t-53.5 11.5q-32 0 -53 -12t-33.5 -33.5t-17.5 -50.5t-6 -63h216v2zM213 556l-96 157l63 21l71 -162z" />
<glyph unicode="&#xe9;" horiz-adv-x="416" d="M366 85q-19 -43 -58 -67t-88 -24q-53 0 -88 15.5t-56 47.5t-30 80t-9 113q0 47 7 92t26.5 80t53 56.5t86.5 21.5q45 0 77.5 -15.5t53 -43t30 -65.5t9.5 -83v-62h-281q0 -41 5 -74t18.5 -57t36 -37t58.5 -13q32 0 58 18t38 44zM317 284q0 34 -4.5 63t-16 50t-32 32.5 t-53.5 11.5q-32 0 -53 -12t-33.5 -33.5t-17.5 -50.5t-6 -63h216v2zM175 572l72 162l62 -21l-96 -157z" />
<glyph unicode="&#xea;" horiz-adv-x="416" d="M366 85q-19 -43 -58 -67t-88 -24q-53 0 -88 15.5t-56 47.5t-30 80t-9 113q0 47 7 92t26.5 80t53 56.5t86.5 21.5q45 0 77.5 -15.5t53 -43t30 -65.5t9.5 -83v-62h-281q0 -41 5 -74t18.5 -57t36 -37t58.5 -13q32 0 58 18t38 44zM317 284q0 34 -4.5 63t-16 50t-32 32.5 t-53.5 11.5q-32 0 -53 -12t-33.5 -33.5t-17.5 -50.5t-6 -63h216v2zM214 652l-121 -99l-29 26l132 134h42l126 -132l-29 -27z" />
<glyph unicode="&#xeb;" horiz-adv-x="416" d="M366 85q-19 -43 -58 -67t-88 -24q-53 0 -88 15.5t-56 47.5t-30 80t-9 113q0 47 7 92t26.5 80t53 56.5t86.5 21.5q45 0 77.5 -15.5t53 -43t30 -65.5t9.5 -83v-62h-281q0 -41 5 -74t18.5 -57t36 -37t58.5 -13q32 0 58 18t38 44zM317 284q0 34 -4.5 63t-16 50t-32 32.5 t-53.5 11.5q-32 0 -53 -12t-33.5 -33.5t-17.5 -50.5t-6 -63h216v2zM263 595v68h63v-68h-63zM95 595v68h65v-68h-65z" />
<glyph unicode="&#xec;" horiz-adv-x="187" d="M62 0v494h63v-494h-63zM76 556l-96 157l63 21l71 -162z" />
<glyph unicode="&#xed;" horiz-adv-x="187" d="M62 0v494h63v-494h-63zM64 572l72 162l62 -21l-96 -157z" />
<glyph unicode="&#xee;" horiz-adv-x="260" d="M97 0v494h63v-494h-63zM130 652l-121 -99l-29 26l132 134h42l126 -132l-29 -27z" />
<glyph unicode="&#xef;" horiz-adv-x="201" d="M69 0v494h63v-494h-63zM153 595v68h63v-68h-63zM-15 595v68h65v-68h-65z" />
<glyph unicode="&#xf0;" horiz-adv-x="433" d="M207 471q14 0 30.5 -3.5t32.5 -11t30.5 -19.5t24.5 -29h3q0 21 -1.5 43.5t-5.5 44.5t-10 42t-15 35l-70 -50l-21 29l71 52q-20 26 -54.5 42.5t-78.5 23.5l9 56q40 -5 67.5 -14.5t47 -20.5t33 -24t24.5 -26l68 49l23 -29l-70 -51q16 -30 24.5 -63.5t12.5 -70.5t5 -76.5 t2 -82.5q0 -50 -2 -86t-5.5 -63t-9 -47t-13.5 -37q-20 -43 -57 -66.5t-98 -23.5q-63 0 -102 28q-36 27 -51 77.5t-15 125.5q0 45 5.5 84t14.5 62q17 46 56.5 73t94.5 27zM210 415q-27 0 -50.5 -11t-38.5 -39q-11 -21 -16.5 -53t-6.5 -84q0 -66 10 -103.5t36 -57.5 q25 -19 64 -19q32 0 56.5 13.5t38.5 45.5q20 44 20 132q0 46 -5.5 74t-13.5 46q-27 56 -94 56z" />
<glyph unicode="&#xf1;" horiz-adv-x="433" d="M321 0v328q0 51 -26.5 80t-77.5 29q-48 0 -77 -32t-29 -83v-322h-63v494h63v-61h3q21 34 54 50.5t71 16.5q66 0 105.5 -41t39.5 -110v-349h-63zM145 679q16 0 31.5 -6.5t30.5 -14t30 -14t29 -6.5q27 0 55 41l36 -22q-18 -38 -41 -55.5t-48 -17.5q-16 0 -31.5 6t-31 13.5 t-30.5 14t-28 6.5q-28 0 -57 -37l-36 20q17 32 41 52t50 20z" />
<glyph unicode="&#xf2;" horiz-adv-x="429" d="M217 500q50 0 83.5 -19.5t53.5 -50.5q19 -26 26 -76t7 -108q0 -18 -1 -39.5t-3.5 -43t-6 -40.5t-7.5 -32q-19 -54 -62.5 -76t-97.5 -22q-51 0 -83.5 19t-50.5 49q-20 27 -27.5 74.5t-7.5 108.5q0 48 4 89.5t15 69.5q19 47 59.5 72t98.5 25zM215 443q-32 0 -57 -14.5 t-39 -43.5q-11 -20 -14 -58.5t-3 -89.5t5 -85.5t19 -54.5q27 -47 87 -47q33 0 60 16.5t39 51.5q8 20 10 55.5t2 77.5q0 45 -3.5 78.5t-11.5 51.5q-12 31 -36.5 46.5t-57.5 15.5zM204 556l-96 157l63 21l71 -162z" />
<glyph unicode="&#xf3;" horiz-adv-x="429" d="M217 500q50 0 83.5 -19.5t53.5 -50.5q19 -26 26 -76t7 -108q0 -18 -1 -39.5t-3.5 -43t-6 -40.5t-7.5 -32q-19 -54 -62.5 -76t-97.5 -22q-51 0 -83.5 19t-50.5 49q-20 27 -27.5 74.5t-7.5 108.5q0 48 4 89.5t15 69.5q19 47 59.5 72t98.5 25zM215 443q-32 0 -57 -14.5 t-39 -43.5q-11 -20 -14 -58.5t-3 -89.5t5 -85.5t19 -54.5q27 -47 87 -47q33 0 60 16.5t39 51.5q8 20 10 55.5t2 77.5q0 45 -3.5 78.5t-11.5 51.5q-12 31 -36.5 46.5t-57.5 15.5zM177 572l72 162l62 -21l-96 -157z" />
<glyph unicode="&#xf4;" horiz-adv-x="429" d="M217 500q50 0 83.5 -19.5t53.5 -50.5q19 -26 26 -76t7 -108q0 -18 -1 -39.5t-3.5 -43t-6 -40.5t-7.5 -32q-19 -54 -62.5 -76t-97.5 -22q-51 0 -83.5 19t-50.5 49q-20 27 -27.5 74.5t-7.5 108.5q0 48 4 89.5t15 69.5q19 47 59.5 72t98.5 25zM215 443q-32 0 -57 -14.5 t-39 -43.5q-11 -20 -14 -58.5t-3 -89.5t5 -85.5t19 -54.5q27 -47 87 -47q33 0 60 16.5t39 51.5q8 20 10 55.5t2 77.5q0 45 -3.5 78.5t-11.5 51.5q-12 31 -36.5 46.5t-57.5 15.5zM214 652l-121 -99l-29 26l132 134h42l126 -132l-29 -27z" />
<glyph unicode="&#xf5;" horiz-adv-x="429" d="M217 500q50 0 83.5 -19.5t53.5 -50.5q19 -26 26 -76t7 -108q0 -18 -1 -39.5t-3.5 -43t-6 -40.5t-7.5 -32q-19 -54 -62.5 -76t-97.5 -22q-51 0 -83.5 19t-50.5 49q-20 27 -27.5 74.5t-7.5 108.5q0 48 4 89.5t15 69.5q19 47 59.5 72t98.5 25zM215 443q-32 0 -57 -14.5 t-39 -43.5q-11 -20 -14 -58.5t-3 -89.5t5 -85.5t19 -54.5q27 -47 87 -47q33 0 60 16.5t39 51.5q8 20 10 55.5t2 77.5q0 45 -3.5 78.5t-11.5 51.5q-12 31 -36.5 46.5t-57.5 15.5zM154 679q16 0 31.5 -6.5t30.5 -14t30 -14t29 -6.5q27 0 55 41l36 -22q-18 -38 -41 -55.5 t-48 -17.5q-16 0 -31.5 6t-31 13.5t-30.5 14t-28 6.5q-28 0 -57 -37l-36 20q17 32 41 52t50 20z" />
<glyph unicode="&#xf6;" horiz-adv-x="429" d="M217 500q50 0 83.5 -19.5t53.5 -50.5q19 -26 26 -76t7 -108q0 -18 -1 -39.5t-3.5 -43t-6 -40.5t-7.5 -32q-19 -54 -62.5 -76t-97.5 -22q-51 0 -83.5 19t-50.5 49q-20 27 -27.5 74.5t-7.5 108.5q0 48 4 89.5t15 69.5q19 47 59.5 72t98.5 25zM215 443q-32 0 -57 -14.5 t-39 -43.5q-11 -20 -14 -58.5t-3 -89.5t5 -85.5t19 -54.5q27 -47 87 -47q33 0 60 16.5t39 51.5q8 20 10 55.5t2 77.5q0 45 -3.5 78.5t-11.5 51.5q-12 31 -36.5 46.5t-57.5 15.5zM265 595v68h63v-68h-63zM97 595v68h65v-68h-65z" />
<glyph unicode="&#xf7;" horiz-adv-x="425" d="M261 454q0 -19 -13.5 -32.5t-32.5 -13.5q-20 0 -33 13.5t-13 32.5t13.5 32t32.5 13q18 0 32 -13t14 -32zM20 265v50h387v-50h-387zM215 171q18 0 32 -13t14 -33t-13.5 -33t-32.5 -13q-20 0 -33 13t-13 33t13.5 33t32.5 13z" />
<glyph unicode="&#xf8;" horiz-adv-x="429" d="M217 500q38 0 66.5 -12t48.5 -32l30 44l32 -22l-37 -54q17 -27 23.5 -75t6.5 -103q0 -18 -1 -39.5t-3.5 -43t-6 -40.5t-7.5 -32q-19 -54 -62.5 -76t-97.5 -22q-39 0 -67 11t-48 31l-24 -36l-30 22l31 46q-17 28 -24 73.5t-7 103.5q0 48 4 89.5t15 69.5q19 47 59.5 72 t98.5 25zM215 443q-32 0 -57 -14.5t-39 -43.5q-11 -20 -14 -58.5t-3 -89.5q0 -70 10 -109l185 275q-29 40 -82 40zM324 251q0 34 -2 62t-7 48l-184 -272q27 -39 82 -39q33 0 60 16.5t39 51.5q8 20 10 55.5t2 77.5z" />
<glyph unicode="&#xf9;" horiz-adv-x="440" d="M323 0v60h-3q-21 -35 -54.5 -50.5t-70.5 -15.5q-66 0 -105.5 40.5t-39.5 109.5v350h63v-329q0 -51 27.5 -81t76.5 -30q48 0 77 33t29 85v322h62v-494h-62zM215 556l-96 157l63 21l71 -162z" />
<glyph unicode="&#xfa;" horiz-adv-x="440" d="M323 0v60h-3q-21 -35 -54.5 -50.5t-70.5 -15.5q-66 0 -105.5 40.5t-39.5 109.5v350h63v-329q0 -51 27.5 -81t76.5 -30q48 0 77 33t29 85v322h62v-494h-62zM182 572l72 162l62 -21l-96 -157z" />
<glyph unicode="&#xfb;" horiz-adv-x="440" d="M323 0v60h-3q-21 -35 -54.5 -50.5t-70.5 -15.5q-66 0 -105.5 40.5t-39.5 109.5v350h63v-329q0 -51 27.5 -81t76.5 -30q48 0 77 33t29 85v322h62v-494h-62zM217 652l-121 -99l-29 26l132 134h42l126 -132l-29 -27z" />
<glyph unicode="&#xfc;" horiz-adv-x="440" d="M323 0v60h-3q-21 -35 -54.5 -50.5t-70.5 -15.5q-66 0 -105.5 40.5t-39.5 109.5v350h63v-329q0 -51 27.5 -81t76.5 -30q48 0 77 33t29 85v322h62v-494h-62zM265 595v68h63v-68h-63zM97 595v68h65v-68h-65z" />
<glyph unicode="&#xfd;" horiz-adv-x="375" d="M191 98q6 21 15 52t20 68t22.5 76.5t22.5 76.5t20.5 68.5t15.5 53.5h65l-183 -598q-30 -98 -118 -98h-23v54h20q29 0 44.5 19.5t25.5 55.5l24 80q-41 122 -79.5 243t-79.5 244h67q16 -53 32 -104.5t32 -103.5q4 -15 11.5 -40.5t16 -53t15.5 -53t12 -40.5h2zM161 572 l72 162l62 -21l-96 -157z" />
<glyph unicode="&#xfe;" horiz-adv-x="427" d="M109 436q23 35 54 49.5t67 14.5q51 0 81.5 -21t46 -55.5t20.5 -80t5 -94.5q0 -47 -5.5 -92.5t-22.5 -81.5t-48.5 -58t-83.5 -22q-38 0 -65 15t-49 43h-2v-254h-62v900h62v-262q1 0 2 -1zM211 55q37 0 58.5 16t32.5 43t14.5 61.5t3.5 71.5q0 39 -3.5 74.5t-14.5 62t-32 42 t-57 15.5q-39 0 -60.5 -18.5t-31.5 -47t-12 -62.5t-2 -65q0 -30 2 -64t12.5 -62.5t31 -47.5t58.5 -19z" />
<glyph unicode="&#xff;" horiz-adv-x="375" d="M191 98q6 21 15 52t20 68t22.5 76.5t22.5 76.5t20.5 68.5t15.5 53.5h65l-183 -598q-30 -98 -118 -98h-23v54h20q29 0 44.5 19.5t25.5 55.5l24 80q-41 122 -79.5 243t-79.5 244h67q16 -53 32 -104.5t32 -103.5q4 -15 11.5 -40.5t16 -53t15.5 -53t12 -40.5h2zM77 595v68h65 v-68h-65zM245 595v68h63v-68h-63z" />
<glyph unicode="&#x100;" horiz-adv-x="489" d="M412 0l-47 167h-242l-47 -167h-66l203 696h63l203 -696h-67zM289 440l-43 162h-4q-2 -8 -8 -31t-13 -50t-13.5 -50.5t-8.5 -30.5q-3 -12 -12 -42.5t-18.5 -65t-18.5 -65t-13 -42.5h213zM125 761v58h239v-58h-239z" />
<glyph unicode="&#x101;" horiz-adv-x="418" d="M305 42q-20 -27 -54 -37.5t-73 -10.5q-71 0 -107.5 40.5t-36.5 101.5q0 31 9.5 59t29.5 48t51 32t74 12h110v68q0 40 -24.5 63t-74.5 23q-34 0 -62 -11.5t-43 -37.5q-11 6 -24 15t-24 16q21 36 60 56.5t93 20.5q34 0 64 -7t52 -24t34.5 -45t12.5 -70v-354h-64v41z M308 232h-112q-45 0 -74 -22t-29 -70q0 -39 26 -63.5t77 -24.5q22 0 42 5t35.5 15.5t25 28t9.5 43.5v88zM101 588v59h239v-59h-239z" />
<glyph unicode="&#x102;" horiz-adv-x="489" d="M412 0l-47 167h-242l-47 -167h-66l203 696h63l203 -696h-67zM289 440l-43 162h-4q-2 -8 -8 -31t-13 -50t-13.5 -50.5t-8.5 -30.5q-3 -12 -12 -42.5t-18.5 -65t-18.5 -65t-13 -42.5h213zM168 862q3 -26 24 -47.5t53 -21.5q35 0 55.5 21.5t22.5 47.5h53q-2 -19 -10 -40 t-23.5 -38.5t-39.5 -29t-58 -11.5q-35 0 -59.5 11.5t-40 29t-23 38.5t-8.5 40h54z" />
<glyph unicode="&#x103;" horiz-adv-x="418" d="M305 42q-20 -27 -54 -37.5t-73 -10.5q-71 0 -107.5 40.5t-36.5 101.5q0 31 9.5 59t29.5 48t51 32t74 12h110v68q0 40 -24.5 63t-74.5 23q-34 0 -62 -11.5t-43 -37.5q-11 6 -24 15t-24 16q21 36 60 56.5t93 20.5q34 0 64 -7t52 -24t34.5 -45t12.5 -70v-354h-64v41z M308 232h-112q-45 0 -74 -22t-29 -70q0 -39 26 -63.5t77 -24.5q22 0 42 5t35.5 15.5t25 28t9.5 43.5v88zM142 687q3 -26 24.5 -47.5t52.5 -21.5q16 0 30 6t24.5 15.5t17 22t7.5 25.5h52q-2 -19 -10 -40t-23 -38.5t-39 -29t-59 -11.5t-59 11.5t-39.5 29t-23 38.5t-8.5 40h53z " />
<glyph unicode="&#x104;" horiz-adv-x="489" d="M374 -92q0 20 8.5 43.5t28.5 49.5l-46 166h-242l-47 -167h-66l203 696h63l203 -696h-20q-33 -47 -33 -81q0 -24 13 -36t36 -12q11 0 24.5 3.5t30.5 11.5l17 -40q-17 -10 -39 -16.5t-45 -6.5q-40 0 -64.5 25t-24.5 60zM289 440l-43 162h-4q-2 -8 -8 -31t-13 -50 t-13.5 -50.5t-8.5 -30.5q-3 -12 -12 -42.5t-18.5 -65t-18.5 -65t-13 -42.5h213z" />
<glyph unicode="&#x105;" horiz-adv-x="418" d="M270 -91q0 20 8.5 43.5t29.5 49.5v39l-3 1q-20 -27 -54 -37.5t-73 -10.5q-71 0 -107.5 40.5t-36.5 101.5q0 31 9.5 59t29.5 48t51 32t74 12h110v68q0 40 -24.5 63t-74.5 23q-34 0 -62 -11.5t-43 -37.5q-11 6 -24 15t-24 16q21 36 60 56.5t93 20.5q34 0 64 -7t52 -24 t34.5 -45t12.5 -70v-354h-17q-33 -47 -33 -80q0 -24 13 -36t36 -12q11 0 24.5 3.5t30.5 11.5l17 -40q-17 -10 -39 -16.5t-45 -6.5q-40 0 -64.5 25t-24.5 60zM308 232h-112q-45 0 -74 -22t-29 -70q0 -39 26 -63.5t77 -24.5q22 0 42 5t35.5 15.5t25 28t9.5 43.5v88z" />
<glyph unicode="&#x106;" horiz-adv-x="463" d="M439 130q-16 -67 -68 -101.5t-121 -34.5q-46 0 -83 15t-63 41.5t-40 64t-14 82.5v302q0 44 13.5 81t39.5 64t63 42t84 15q69 0 120.5 -34.5t68.5 -98.5l-62 -23q-10 45 -43 70t-84 25q-32 0 -57.5 -11t-43 -30t-26.5 -44.5t-9 -54.5v-305q0 -29 9.5 -55t27 -45t42.5 -30 t57 -11q49 0 83 25t45 73zM199 758l139 112l44 -48l-156 -95z" />
<glyph unicode="&#x107;" horiz-adv-x="379" d="M307 110q13 -8 26 -14.5l27 -13.5q-18 -42 -56 -65t-91 -23q-56 0 -91 19.5t-55 54t-27.5 82.5t-7.5 104q0 52 9.5 97t31 78t56.5 52t86 19q54 0 90.5 -23.5t55.5 -65.5l-53 -31q-11 28 -35 44.5t-57 16.5q-39 0 -63 -15.5t-36.5 -41.5t-17 -60t-4.5 -71t4 -73t17 -64.5 t36.5 -46t61.5 -17.5q34 0 58 16.5t35 41.5zM170 572l72 162l62 -21l-96 -157z" />
<glyph unicode="&#x108;" horiz-adv-x="463" d="M439 130q-16 -67 -68 -101.5t-121 -34.5q-46 0 -83 15t-63 41.5t-40 64t-14 82.5v302q0 44 13.5 81t39.5 64t63 42t84 15q69 0 120.5 -34.5t68.5 -98.5l-62 -23q-10 45 -43 70t-84 25q-32 0 -57.5 -11t-43 -30t-26.5 -44.5t-9 -54.5v-305q0 -29 9.5 -55t27 -45t42.5 -30 t57 -11q49 0 83 25t45 73zM246 813l-125 -80l-25 26l132 114h42l126 -113l-25 -27z" />
<glyph unicode="&#x109;" horiz-adv-x="379" d="M307 110q13 -8 26 -14.5l27 -13.5q-18 -42 -56 -65t-91 -23q-56 0 -91 19.5t-55 54t-27.5 82.5t-7.5 104q0 52 9.5 97t31 78t56.5 52t86 19q54 0 90.5 -23.5t55.5 -65.5l-53 -31q-11 28 -35 44.5t-57 16.5q-39 0 -63 -15.5t-36.5 -41.5t-17 -60t-4.5 -71t4 -73t17 -64.5 t36.5 -46t61.5 -17.5q34 0 58 16.5t35 41.5zM211 652l-121 -99l-29 26l132 134h42l126 -132l-29 -27z" />
<glyph unicode="&#x10a;" horiz-adv-x="463" d="M439 130q-16 -67 -68 -101.5t-121 -34.5q-46 0 -83 15t-63 41.5t-40 64t-14 82.5v302q0 44 13.5 81t39.5 64t63 42t84 15q69 0 120.5 -34.5t68.5 -98.5l-62 -23q-10 45 -43 70t-84 25q-32 0 -57.5 -11t-43 -30t-26.5 -44.5t-9 -54.5v-305q0 -29 9.5 -55t27 -45t42.5 -30 t57 -11q49 0 83 25t45 73zM217 765v68h64v-68h-64z" />
<glyph unicode="&#x10b;" horiz-adv-x="379" d="M307 110q13 -8 26 -14.5l27 -13.5q-18 -42 -56 -65t-91 -23q-56 0 -91 19.5t-55 54t-27.5 82.5t-7.5 104q0 52 9.5 97t31 78t56.5 52t86 19q54 0 90.5 -23.5t55.5 -65.5l-53 -31q-11 28 -35 44.5t-57 16.5q-39 0 -63 -15.5t-36.5 -41.5t-17 -60t-4.5 -71t4 -73t17 -64.5 t36.5 -46t61.5 -17.5q34 0 58 16.5t35 41.5zM174 597v68h64v-68h-64z" />
<glyph unicode="&#x10c;" horiz-adv-x="463" d="M439 130q-16 -67 -68 -101.5t-121 -34.5q-46 0 -83 15t-63 41.5t-40 64t-14 82.5v302q0 44 13.5 81t39.5 64t63 42t84 15q69 0 120.5 -34.5t68.5 -98.5l-62 -23q-10 45 -43 70t-84 25q-32 0 -57.5 -11t-43 -30t-26.5 -44.5t-9 -54.5v-305q0 -29 9.5 -55t27 -45t42.5 -30 t57 -11q49 0 83 25t45 73zM377 874l26 -26l-126 -114h-42l-132 115l24 26l126 -81z" />
<glyph unicode="&#x10d;" horiz-adv-x="379" d="M307 110q13 -8 26 -14.5l27 -13.5q-18 -42 -56 -65t-91 -23q-56 0 -91 19.5t-55 54t-27.5 82.5t-7.5 104q0 52 9.5 97t31 78t56.5 52t86 19q54 0 90.5 -23.5t55.5 -65.5l-53 -31q-11 28 -35 44.5t-57 16.5q-39 0 -63 -15.5t-36.5 -41.5t-17 -60t-4.5 -71t4 -73t17 -64.5 t36.5 -46t61.5 -17.5q34 0 58 16.5t35 41.5zM332 716l28 -27l-125 -134h-42l-133 136l29 25l122 -98z" />
<glyph unicode="&#x10e;" horiz-adv-x="514" d="M259 696q143 0 187 -110q12 -34 14.5 -85t2.5 -117v-115q0 -48 -2.5 -86.5t-13.5 -66.5q-13 -34 -33.5 -56t-47 -35.5t-58 -19t-65.5 -5.5h-179v696h195zM399 459q0 23 -2 47.5t-9 44.5q-13 42 -48.5 64t-90.5 22h-120v-578h120q109 0 138 85q6 16 9 37t3 41v237z M364 874l26 -26l-126 -114h-42l-132 115l24 26l126 -81z" />
<glyph unicode="&#x10f;" horiz-adv-x="485" d="M309 57q-23 -35 -54 -49t-67 -14q-51 0 -81 20.5t-46 55t-21 80t-5 94.5q0 47 5 93t22 82t48.5 58t84.5 22q38 0 65.5 -15t48.5 -43h2v284h62v-725h-62v56q-1 0 -2 1zM207 438q-37 0 -58.5 -16.5t-33 -43.5t-14.5 -61.5t-3 -71.5q0 -39 4 -74.5t15 -61.5t32 -41.5 t56 -15.5q40 0 61.5 20.5t31.5 51t11.5 66t1.5 64.5q0 33 -3 65.5t-13.5 59t-31.5 43t-56 16.5zM415 546l27 88h-22v82h76v-81l-44 -89h-37z" />
<glyph unicode="&#x110;" horiz-adv-x="514" d="M11 389h53v307h195q143 0 187 -110q12 -34 14.5 -85t2.5 -117v-115q0 -48 -2.5 -86.5t-13.5 -66.5q-13 -34 -33.5 -56t-47 -35.5t-58 -19t-65.5 -5.5h-179v340h-53v49zM399 459q0 23 -2 47.5t-9 44.5q-13 42 -48.5 64t-90.5 22h-120v-248h102v-49h-102v-281h120 q109 0 138 85q6 16 9 37t3 41v237z" />
<glyph unicode="&#x111;" horiz-adv-x="420" d="M167 618h144v107h62v-107h50v-46h-50v-572h-62v56q-1 0 -2 1q-23 -35 -54 -49t-67 -14q-51 0 -81 20.5t-46 55t-21 80t-5 94.5q0 47 5 93t22 82t48.5 58t84.5 22q38 0 65.5 -15t48.5 -43h2v131h-144v46zM207 438q-37 0 -58.5 -16.5t-33 -43.5t-14.5 -61.5t-3 -71.5 q0 -39 4 -74.5t15 -61.5t32 -41.5t56 -15.5q40 0 61.5 20.5t31.5 51t11.5 66t1.5 64.5q0 33 -3 65.5t-13.5 59t-31.5 43t-56 16.5z" />
<glyph unicode="&#x112;" horiz-adv-x="449" d="M65 0v696h362v-60h-298v-253h256v-58h-256v-263h298v-62h-362zM122 761v58h239v-58h-239z" />
<glyph unicode="&#x113;" horiz-adv-x="416" d="M366 85q-19 -43 -58 -67t-88 -24q-53 0 -88 15.5t-56 47.5t-30 80t-9 113q0 47 7 92t26.5 80t53 56.5t86.5 21.5q45 0 77.5 -15.5t53 -43t30 -65.5t9.5 -83v-62h-281q0 -41 5 -74t18.5 -57t36 -37t58.5 -13q32 0 58 18t38 44zM317 284q0 34 -4.5 63t-16 50t-32 32.5 t-53.5 11.5q-32 0 -53 -12t-33.5 -33.5t-17.5 -50.5t-6 -63h216v2zM101 588v59h239v-59h-239z" />
<glyph unicode="&#x114;" horiz-adv-x="449" d="M65 0v696h362v-60h-298v-253h256v-58h-256v-263h298v-62h-362zM165 862q3 -26 24 -47.5t53 -21.5q35 0 55.5 21.5t22.5 47.5h53q-2 -19 -10 -40t-23.5 -38.5t-39.5 -29t-58 -11.5q-35 0 -59.5 11.5t-40 29t-23 38.5t-8.5 40h54z" />
<glyph unicode="&#x115;" horiz-adv-x="416" d="M366 85q-19 -43 -58 -67t-88 -24q-53 0 -88 15.5t-56 47.5t-30 80t-9 113q0 47 7 92t26.5 80t53 56.5t86.5 21.5q45 0 77.5 -15.5t53 -43t30 -65.5t9.5 -83v-62h-281q0 -41 5 -74t18.5 -57t36 -37t58.5 -13q32 0 58 18t38 44zM317 284q0 34 -4.5 63t-16 50t-32 32.5 t-53.5 11.5q-32 0 -53 -12t-33.5 -33.5t-17.5 -50.5t-6 -63h216v2zM136 687q3 -26 24.5 -47.5t52.5 -21.5q16 0 30 6t24.5 15.5t17 22t7.5 25.5h52q-2 -19 -10 -40t-23 -38.5t-39 -29t-59 -11.5t-59 11.5t-39.5 29t-23 38.5t-8.5 40h53z" />
<glyph unicode="&#x116;" horiz-adv-x="449" d="M65 0v696h362v-60h-298v-253h256v-58h-256v-263h298v-62h-362zM215 765v68h64v-68h-64z" />
<glyph unicode="&#x117;" horiz-adv-x="416" d="M366 85q-19 -43 -58 -67t-88 -24q-53 0 -88 15.5t-56 47.5t-30 80t-9 113q0 47 7 92t26.5 80t53 56.5t86.5 21.5q45 0 77.5 -15.5t53 -43t30 -65.5t9.5 -83v-62h-281q0 -41 5 -74t18.5 -57t36 -37t58.5 -13q32 0 58 18t38 44zM317 284q0 34 -4.5 63t-16 50t-32 32.5 t-53.5 11.5q-32 0 -53 -12t-33.5 -33.5t-17.5 -50.5t-6 -63h216v2zM176 595v68h64v-68h-64z" />
<glyph unicode="&#x118;" horiz-adv-x="449" d="M340 -92q0 20 8.5 43t28.5 49h-312v696h362v-60h-298v-253h256v-58h-256v-263h298v-62q-17 -23 -26 -43.5t-9 -37.5q0 -24 13.5 -36t35.5 -12q12 0 25.5 3.5t30.5 11.5l16 -40q-17 -10 -38.5 -16.5t-44.5 -6.5q-41 0 -65.5 25t-24.5 60z" />
<glyph unicode="&#x119;" horiz-adv-x="416" d="M262 -32q0 8 1 16t4 16q-23 -6 -47 -6q-53 0 -88 15.5t-56 47.5t-30 80t-9 113q0 47 7 92t26.5 80t53 56.5t86.5 21.5q45 0 77.5 -15.5t53 -43t30 -65.5t9.5 -83v-62h-281q0 -41 5 -74t18.5 -57t36 -37t58.5 -13q32 0 58 18t38 44l53 -27q-12 -28 -33 -47 q-19 -35 -19 -59t13 -36t36 -12q11 0 24.5 3.5t30.5 11.5l17 -40q-17 -10 -39 -16.5t-45 -6.5q-40 0 -64.5 25t-24.5 60zM317 284q0 34 -4.5 63t-16 50t-32 32.5t-53.5 11.5q-32 0 -53 -12t-33.5 -33.5t-17.5 -50.5t-6 -63h216v2z" />
<glyph unicode="&#x11a;" horiz-adv-x="449" d="M65 0v696h362v-60h-298v-253h256v-58h-256v-263h298v-62h-362zM360 874l26 -26l-126 -114h-42l-132 115l24 26l126 -81z" />
<glyph unicode="&#x11b;" horiz-adv-x="416" d="M366 85q-19 -43 -58 -67t-88 -24q-53 0 -88 15.5t-56 47.5t-30 80t-9 113q0 47 7 92t26.5 80t53 56.5t86.5 21.5q45 0 77.5 -15.5t53 -43t30 -65.5t9.5 -83v-62h-281q0 -41 5 -74t18.5 -57t36 -37t58.5 -13q32 0 58 18t38 44zM317 284q0 34 -4.5 63t-16 50t-32 32.5 t-53.5 11.5q-32 0 -53 -12t-33.5 -33.5t-17.5 -50.5t-6 -63h216v2zM335 714l28 -27l-125 -134h-42l-133 136l29 25l122 -98z" />
<glyph unicode="&#x11c;" horiz-adv-x="498" d="M250 52q30 0 55 10.5t43 29.5t28 43.5t10 53.5v118h-118v58h183v-171q0 -45 -15 -82.5t-41.5 -63.5t-63.5 -40.5t-81 -14.5q-47 0 -84 15t-63 42t-40 64.5t-14 82.5v302q0 44 14 81t40 64t63 42t84 15q69 0 120.5 -34t68.5 -100l-10 -3.5t-21 -7t-21 -6.5l-10 -3 q-11 44 -44 68.5t-83 24.5q-32 0 -57.5 -11t-43 -30t-27 -44.5t-9.5 -54.5v-307q0 -29 9.5 -54.5t27 -45t43 -30.5t57.5 -11zM244 813l-125 -80l-25 26l132 114h42l126 -113l-25 -27z" />
<glyph unicode="&#x11d;" horiz-adv-x="434" d="M378 -11q0 -91 -43 -144t-133 -53q-47 0 -84 22t-56 64l52 30q11 -23 34 -40.5t56 -17.5q59 0 85.5 35t26.5 94v85h-2q-20 -32 -50 -50.5t-72 -18.5q-52 0 -82.5 21t-46 55.5t-20 79t-4.5 91.5q0 48 5.5 94.5t22 83t46.5 58.5t80 22q36 0 67 -14.5t54 -49.5l2 1v56h62 v-504zM208 55q35 0 56 17t32.5 43.5t15.5 59t4 64.5q0 31 -3 66.5t-13.5 65.5t-31.5 50t-58 20q-36 0 -57 -15.5t-32.5 -42t-14.5 -61.5t-3 -75t3 -75t14 -61t31.5 -41t56.5 -15zM221 652l-121 -99l-29 26l132 134h42l126 -132l-29 -27z" />
<glyph unicode="&#x11e;" horiz-adv-x="498" d="M250 52q30 0 55 10.5t43 29.5t28 43.5t10 53.5v118h-118v58h183v-171q0 -45 -15 -82.5t-41.5 -63.5t-63.5 -40.5t-81 -14.5q-47 0 -84 15t-63 42t-40 64.5t-14 82.5v302q0 44 14 81t40 64t63 42t84 15q69 0 120.5 -34t68.5 -100l-10 -3.5t-21 -7t-21 -6.5l-10 -3 q-11 44 -44 68.5t-83 24.5q-32 0 -57.5 -11t-43 -30t-27 -44.5t-9.5 -54.5v-307q0 -29 9.5 -54.5t27 -45t43 -30.5t57.5 -11zM165 862q3 -26 24 -47.5t53 -21.5q35 0 55.5 21.5t22.5 47.5h53q-2 -19 -10 -40t-23.5 -38.5t-39.5 -29t-58 -11.5q-35 0 -59.5 11.5t-40 29 t-23 38.5t-8.5 40h54z" />
<glyph unicode="&#x11f;" horiz-adv-x="434" d="M378 -11q0 -91 -43 -144t-133 -53q-47 0 -84 22t-56 64l52 30q11 -23 34 -40.5t56 -17.5q59 0 85.5 35t26.5 94v85h-2q-20 -32 -50 -50.5t-72 -18.5q-52 0 -82.5 21t-46 55.5t-20 79t-4.5 91.5q0 48 5.5 94.5t22 83t46.5 58.5t80 22q36 0 67 -14.5t54 -49.5l2 1v56h62 v-504zM208 55q35 0 56 17t32.5 43.5t15.5 59t4 64.5q0 31 -3 66.5t-13.5 65.5t-31.5 50t-58 20q-36 0 -57 -15.5t-32.5 -42t-14.5 -61.5t-3 -75t3 -75t14 -61t31.5 -41t56.5 -15zM139 687q3 -26 24.5 -47.5t52.5 -21.5q16 0 30 6t24.5 15.5t17 22t7.5 25.5h52 q-2 -19 -10 -40t-23 -38.5t-39 -29t-59 -11.5t-59 11.5t-39.5 29t-23 38.5t-8.5 40h53z" />
<glyph unicode="&#x120;" horiz-adv-x="498" d="M250 52q30 0 55 10.5t43 29.5t28 43.5t10 53.5v118h-118v58h183v-171q0 -45 -15 -82.5t-41.5 -63.5t-63.5 -40.5t-81 -14.5q-47 0 -84 15t-63 42t-40 64.5t-14 82.5v302q0 44 14 81t40 64t63 42t84 15q69 0 120.5 -34t68.5 -100l-10 -3.5t-21 -7t-21 -6.5l-10 -3 q-11 44 -44 68.5t-83 24.5q-32 0 -57.5 -11t-43 -30t-27 -44.5t-9.5 -54.5v-307q0 -29 9.5 -54.5t27 -45t43 -30.5t57.5 -11zM216 765v68h64v-68h-64z" />
<glyph unicode="&#x121;" horiz-adv-x="434" d="M378 -11q0 -91 -43 -144t-133 -53q-47 0 -84 22t-56 64l52 30q11 -23 34 -40.5t56 -17.5q59 0 85.5 35t26.5 94v85h-2q-20 -32 -50 -50.5t-72 -18.5q-52 0 -82.5 21t-46 55.5t-20 79t-4.5 91.5q0 48 5.5 94.5t22 83t46.5 58.5t80 22q36 0 67 -14.5t54 -49.5l2 1v56h62 v-504zM208 55q35 0 56 17t32.5 43.5t15.5 59t4 64.5q0 31 -3 66.5t-13.5 65.5t-31.5 50t-58 20q-36 0 -57 -15.5t-32.5 -42t-14.5 -61.5t-3 -75t3 -75t14 -61t31.5 -41t56.5 -15zM169 595v68h64v-68h-64z" />
<glyph unicode="&#x122;" horiz-adv-x="498" d="M250 52q30 0 55 10.5t43 29.5t28 43.5t10 53.5v118h-118v58h183v-171q0 -45 -15 -82.5t-41.5 -63.5t-63.5 -40.5t-81 -14.5q-47 0 -84 15t-63 42t-40 64.5t-14 82.5v302q0 44 14 81t40 64t63 42t84 15q69 0 120.5 -34t68.5 -100l-10 -3.5t-21 -7t-21 -6.5l-10 -3 q-11 44 -44 68.5t-83 24.5q-32 0 -57.5 -11t-43 -30t-27 -44.5t-9.5 -54.5v-307q0 -29 9.5 -54.5t27 -45t43 -30.5t57.5 -11zM211 -236l27 88h-22v82h76v-81l-44 -89h-37z" />
<glyph unicode="&#x123;" horiz-adv-x="434" d="M169 656q9 18 19 36t19 36h37q-5 -17 -10 -35.5t-10 -36.5h20v-82h-75v82zM378 -11q0 -91 -43 -144t-133 -53q-47 0 -84 22t-56 64l52 30q11 -23 34 -40.5t56 -17.5q59 0 85.5 35t26.5 94v85h-2q-20 -32 -50 -50.5t-72 -18.5q-52 0 -82.5 21t-46 55.5t-20 79t-4.5 91.5 q0 48 5.5 94.5t22 83t46.5 58.5t80 22q36 0 67 -14.5t54 -49.5l2 1v56h62v-504zM208 55q35 0 56 17t32.5 43.5t15.5 59t4 64.5q0 31 -3 66.5t-13.5 65.5t-31.5 50t-58 20q-36 0 -57 -15.5t-32.5 -42t-14.5 -61.5t-3 -75t3 -75t14 -61t31.5 -41t56.5 -15z" />
<glyph unicode="&#x124;" horiz-adv-x="526" d="M395 0v325h-266v-325h-64v696h64v-313h266v313h66v-696h-66zM256 813l-125 -80l-25 26l132 114h42l126 -113l-25 -27z" />
<glyph unicode="&#x125;" horiz-adv-x="436" d="M322 0v328q0 51 -24.5 80.5t-75.5 29.5q-48 0 -79 -32t-31 -84v-322h-62v726h63v-291h2q21 34 54.5 49.5t71.5 15.5q66 0 105 -40.5t39 -110.5v-349h-63zM83 813l-125 -80l-25 26l132 114h42l126 -113l-25 -27z" />
<glyph unicode="&#x126;" horiz-adv-x="526" d="M395 0v325h-266v-325h-64v548h-49v47h49v101h64v-101h266v101h66v-101h49v-47h-49v-548h-66zM395 383v165h-266v-165h266z" />
<glyph unicode="&#x127;" horiz-adv-x="436" d="M322 0v328q0 51 -24.5 80.5t-75.5 29.5q-48 0 -79 -32t-31 -84v-322h-62v583h-50v48h50v95h63v-95h188v-48h-188v-148h2q21 34 54.5 49.5t71.5 15.5q66 0 105 -40.5t39 -110.5v-349h-63z" />
<glyph unicode="&#x128;" horiz-adv-x="206" d="M70 0v696h65v-696h-65zM45 849q16 0 31.5 -6.5t30.5 -14t30 -14t29 -6.5q27 0 55 41l36 -22q-18 -38 -41 -55.5t-48 -17.5q-16 0 -31.5 6t-31 13.5t-30.5 14t-28 6.5q-28 0 -57 -37l-36 20q17 32 41 52t50 20z" />
<glyph unicode="&#x129;" horiz-adv-x="263" d="M71 679q16 0 31.5 -6.5t30.5 -14t30 -14t29 -6.5q27 0 55 41l36 -22q-18 -38 -41 -55.5t-48 -17.5q-16 0 -31.5 6t-31 13.5t-30.5 14t-28 6.5q-28 0 -57 -37l-36 20q17 32 41 52t50 20zM101 0v494h63v-494h-63z" />
<glyph unicode="&#x12a;" horiz-adv-x="206" d="M70 0v696h65v-696h-65zM-15 761v58h239v-58h-239z" />
<glyph unicode="&#x12b;" horiz-adv-x="199" d="M-20 588v59h239v-59h-239zM68 0v494h63v-494h-63z" />
<glyph unicode="&#x12c;" horiz-adv-x="222" d="M34 867q3 -26 24 -47.5t53 -21.5q35 0 55.5 21.5t22.5 47.5h53q-2 -19 -10 -40t-23.5 -38.5t-39.5 -29t-58 -11.5q-35 0 -59.5 11.5t-40 29t-23 38.5t-8.5 40h54zM76 0v696h65v-696h-65z" />
<glyph unicode="&#x12d;" horiz-adv-x="221" d="M33 693q3 -26 24.5 -47.5t52.5 -21.5q16 0 30 6t24.5 15.5t17 22t7.5 25.5h52q-2 -19 -10 -40t-23 -38.5t-39 -29t-59 -11.5t-59 11.5t-39.5 29t-23 38.5t-8.5 40h53zM82 0v494h63v-494h-63z" />
<glyph unicode="&#x12e;" horiz-adv-x="206" d="M40 -92q0 19 8.5 42.5t28.5 49.5h-7v696h65v-696h-10q-33 -47 -33 -81q0 -24 13 -36t36 -12q11 0 24.5 3.5t30.5 11.5l17 -40q-17 -10 -39 -16.5t-45 -6.5q-40 0 -64.5 25t-24.5 60z" />
<glyph unicode="&#x12f;" horiz-adv-x="187" d="M34 -91q0 19 8 42t28 49h-8v494h63v-494h-6q-33 -47 -33 -80q0 -24 13 -36t36 -12q11 0 24.5 3.5t30.5 11.5l17 -40q-17 -10 -39 -16.5t-45 -6.5q-40 0 -64.5 25t-24.5 60zM61 621v66h65v-66h-65z" />
<glyph unicode="&#x130;" horiz-adv-x="206" d="M70 0v696h65v-696h-65zM71 765v68h64v-68h-64z" />
<glyph unicode="&#x131;" horiz-adv-x="187" d="M62 0v494h63v-494h-63z" />
<glyph unicode="&#x132;" horiz-adv-x="572" d="M70 0v696h65v-696h-65zM502 176q0 -48 -14.5 -82.5t-40 -56.5t-59.5 -32.5t-73 -10.5q-40 0 -76.5 14.5t-59.5 42.5l46 43q17 -17 40.5 -28t47.5 -11q25 0 47.5 6.5t39.5 21t26.5 38.5t9.5 60v515h66v-520z" />
<glyph unicode="&#x133;" horiz-adv-x="371" d="M315 -82q0 -53 -28 -88t-85 -35h-29v57h20q32 1 45 22.5t13 56.5v563h64v-576zM62 0v494h63v-494h-63zM61 621v66h65v-66h-65zM251 621v65h65v-65h-65z" />
<glyph unicode="&#x134;" horiz-adv-x="396" d="M328 177q0 -48 -14.5 -82.5t-40 -56.5t-59.5 -32.5t-73 -10.5q-40 0 -76.5 14.5t-59.5 42.5l46 43q17 -17 40.5 -28t47.5 -11q25 0 47.5 6.5t39.5 21t26.5 38.5t9.5 60v515h66v-520zM294 815l-125 -80l-25 26l132 114h42l126 -113l-25 -27z" />
<glyph unicode="&#x135;" horiz-adv-x="260" d="M164 -82q0 -53 -28 -88t-85 -35h-29v57h20q32 1 45 22.5t13 56.5v563h64v-576zM131 652l-122 -99l-29 26l133 134h42l125 -132l-28 -27z" />
<glyph unicode="&#x136;" horiz-adv-x="509" d="M425 0l-178 366q-7 -9 -24 -34t-35.5 -53t-35.5 -52.5t-23 -33.5v-193h-65v696h65v-400h2q66 102 132.5 200.5t132.5 199.5h71q-45 -69 -90 -135.5t-90 -134.5l209 -426h-71zM220 -216l27 88h-22v82h76v-81l-44 -89h-37z" />
<glyph unicode="&#x137;" horiz-adv-x="427" d="M352 0l-141 258q-7 -9 -19.5 -26t-27 -36t-27 -36.5t-19.5 -26.5v-133h-62v725h62v-497h1q14 18 41.5 55t58 77.5t58 78t41.5 55.5h72l-139 -186q7 -13 20.5 -37t30 -54t34.5 -62.5t34.5 -62.5t30 -54.5t20.5 -37.5h-69zM190 -236l27 88h-22v82h76v-81l-44 -89h-37z" />
<glyph unicode="&#x138;" horiz-adv-x="423" d="M350 0l-139 258q-7 -9 -19.5 -26.5t-27 -36.5t-27 -36.5t-19.5 -26.5v-132h-62v494h62v-266h1q14 18 41.5 55t58 77.5t58 78t41.5 55.5h72l-139 -186l168 -308h-69z" />
<glyph unicode="&#x139;" horiz-adv-x="437" d="M73 758l139 112l44 -48l-156 -95zM65 0v696h64v-634h291v-62h-355z" />
<glyph unicode="&#x13a;" horiz-adv-x="211" d="M61 768l139 112l44 -48l-156 -95zM173 -3q-26 0 -47.5 5t-36.5 17.5t-22.5 34t-7.5 53.5v618h63v-606q0 -32 11.5 -48.5t42.5 -16.5h18v-57h-21z" />
<glyph unicode="&#x13b;" horiz-adv-x="437" d="M65 0v696h64v-634h291v-62h-355zM190 -236l27 88h-22v82h76v-81l-44 -89h-37z" />
<glyph unicode="&#x13c;" horiz-adv-x="211" d="M173 -3q-26 0 -47.5 5t-36.5 17.5t-22.5 34t-7.5 53.5v618h63v-606q0 -32 11.5 -48.5t42.5 -16.5h18v-57h-21zM70 -228l27 88h-22v82h76v-81l-44 -89h-37z" />
<glyph unicode="&#x13d;" horiz-adv-x="437" d="M65 0v696h64v-634h291v-62h-355zM265 518l27 88h-22v82h76v-81l-44 -89h-37z" />
<glyph unicode="&#x13e;" horiz-adv-x="254" d="M173 -3q-26 0 -47.5 5t-36.5 17.5t-22.5 34t-7.5 53.5v618h63v-606q0 -32 11.5 -48.5t42.5 -16.5h18v-57h-21zM168 547l27 88h-22v82h76v-81l-44 -89h-37z" />
<glyph unicode="&#x13f;" horiz-adv-x="437" d="M65 0v696h64v-634h291v-62h-355zM276 309v68h64v-68h-64z" />
<glyph unicode="&#x140;" horiz-adv-x="248" d="M179 336v68h64v-68h-64zM173 -3q-26 0 -47.5 5t-36.5 17.5t-22.5 34t-7.5 53.5v618h63v-606q0 -32 11.5 -48.5t42.5 -16.5h18v-57h-21z" />
<glyph unicode="&#x141;" horiz-adv-x="447" d="M76 0v249l-53 -30l-23 40l76 43v394h64v-357l128 74l22 -40l-150 -87v-224h291v-62h-355z" />
<glyph unicode="&#x142;" horiz-adv-x="236" d="M193 -3q-26 0 -47.5 5t-36.5 17.5t-22.5 34t-7.5 53.5v182l-54 -31l-23 39l77 45v383h63v-347l71 42l22 -41l-93 -54v-206q0 -32 11.5 -48.5t42.5 -16.5h18v-57h-21z" />
<glyph unicode="&#x143;" horiz-adv-x="555" d="M429 0l-200 372q-8 14 -21.5 39.5t-28 52.5t-28 52.5t-20.5 39.5h-2v-556h-65v696h63q8 -15 23.5 -44t35 -65t40.5 -75.5t40 -75t34.5 -64.5t24.5 -44l99 -187l4 1v554h64v-696h-63zM233 757l138 112q11 -12 22 -23.5t22 -24.5l-156 -94z" />
<glyph unicode="&#x144;" horiz-adv-x="433" d="M321 0v328q0 51 -26.5 80t-77.5 29q-48 0 -77 -32t-29 -83v-322h-63v494h63v-61h3q21 34 54 50.5t71 16.5q66 0 105.5 -41t39.5 -110v-349h-63zM160 572l72 162l62 -21l-96 -157z" />
<glyph unicode="&#x145;" horiz-adv-x="555" d="M429 0l-200 372q-8 14 -21.5 39.5t-28 52.5t-28 52.5t-20.5 39.5h-2v-556h-65v696h63q8 -15 23.5 -44t35 -65t40.5 -75.5t40 -75t34.5 -64.5t24.5 -44l99 -187l4 1v554h64v-696h-63zM230 -216l27 88h-22v82h76v-81l-44 -89h-37z" />
<glyph unicode="&#x146;" horiz-adv-x="433" d="M321 0v328q0 51 -26.5 80t-77.5 29q-48 0 -77 -32t-29 -83v-322h-63v494h63v-61h3q21 34 54 50.5t71 16.5q66 0 105.5 -41t39.5 -110v-349h-63zM175 -236l27 88h-22v82h76v-81l-44 -89h-37z" />
<glyph unicode="&#x147;" horiz-adv-x="555" d="M429 0l-200 372q-8 14 -21.5 39.5t-28 52.5t-28 52.5t-20.5 39.5h-2v-556h-65v696h63q8 -15 23.5 -44t35 -65t40.5 -75.5t40 -75t34.5 -64.5t24.5 -44l99 -187l4 1v554h64v-696h-63zM407 874l26 -26l-126 -114h-42l-132 115l24 26l126 -81z" />
<glyph unicode="&#x148;" horiz-adv-x="433" d="M321 0v328q0 51 -26.5 80t-77.5 29q-48 0 -77 -32t-29 -83v-322h-63v494h63v-61h3q21 34 54 50.5t71 16.5q66 0 105.5 -41t39.5 -110v-349h-63zM322 714l28 -27l-125 -134h-42l-133 136l29 25l122 -98z" />
<glyph unicode="&#x149;" horiz-adv-x="457" d="M345 0v328q0 51 -26.5 80t-77.5 29q-48 0 -77 -32t-29 -83v-322h-63v494h63v-61h3q21 34 54 50.5t71 16.5q66 0 105.5 -41t39.5 -110v-349h-63zM0 491l27 88h-22v82h76v-81l-44 -89h-37z" />
<glyph unicode="&#x14a;" horiz-adv-x="558" d="M128 553v-553h-64v696h62q18 -32 42 -77t51.5 -96t57 -106t57.5 -107l90 -170h4v556h63v-760q0 -55 -26 -78t-64 -23q-34 0 -69 17l16 45q25 -10 42 -10q39 0 39 49v66l-206 378q-4 7 -17.5 32.5t-29 54.5t-29 54t-17.5 32h-2z" />
<glyph unicode="&#x14b;" horiz-adv-x="433" d="M384 -63q0 -56 -25.5 -79.5t-64.5 -23.5q-35 0 -70 17l16 45q11 -4 22 -6.5t20 -2.5q39 0 39 50v391q0 51 -24 80t-78 29q-48 0 -78 -33t-30 -84v-320h-63v494h63v-61h3q21 34 55.5 50.5t71.5 16.5q69 0 106 -41t37 -110v-412z" />
<glyph unicode="&#x14c;" horiz-adv-x="491" d="M446 199q0 -46 -14.5 -83.5t-41 -64.5t-63 -42t-81.5 -15q-52 0 -90 16.5t-63 45.5t-37 68t-12 83v293q0 38 12 74t36.5 64.5t62.5 45.5t91 17q49 0 86 -16.5t62.5 -44t38.5 -64t13 -76.5v-301zM380 499q0 23 -7.5 48t-23.5 45.5t-41.5 34t-61.5 13.5t-62 -12.5 t-43 -32.5t-25 -45.5t-8 -50.5v-293q0 -33 8.5 -61t26 -48.5t43.5 -32t61 -11.5q28 0 52.5 10.5t42.5 29.5t28 45t10 56v305zM124 761v58h239v-58h-239z" />
<glyph unicode="&#x14d;" horiz-adv-x="429" d="M217 500q50 0 83.5 -19.5t53.5 -50.5q19 -26 26 -76t7 -108q0 -18 -1 -39.5t-3.5 -43t-6 -40.5t-7.5 -32q-19 -54 -62.5 -76t-97.5 -22q-51 0 -83.5 19t-50.5 49q-20 27 -27.5 74.5t-7.5 108.5q0 48 4 89.5t15 69.5q19 47 59.5 72t98.5 25zM215 443q-32 0 -57 -14.5 t-39 -43.5q-11 -20 -14 -58.5t-3 -89.5t5 -85.5t19 -54.5q27 -47 87 -47q33 0 60 16.5t39 51.5q8 20 10 55.5t2 77.5q0 45 -3.5 78.5t-11.5 51.5q-12 31 -36.5 46.5t-57.5 15.5zM97 588v59h239v-59h-239z" />
<glyph unicode="&#x14e;" horiz-adv-x="491" d="M446 199q0 -46 -14.5 -83.5t-41 -64.5t-63 -42t-81.5 -15q-52 0 -90 16.5t-63 45.5t-37 68t-12 83v293q0 38 12 74t36.5 64.5t62.5 45.5t91 17q49 0 86 -16.5t62.5 -44t38.5 -64t13 -76.5v-301zM380 499q0 23 -7.5 48t-23.5 45.5t-41.5 34t-61.5 13.5t-62 -12.5 t-43 -32.5t-25 -45.5t-8 -50.5v-293q0 -33 8.5 -61t26 -48.5t43.5 -32t61 -11.5q28 0 52.5 10.5t42.5 29.5t28 45t10 56v305zM170 862q3 -26 24 -47.5t53 -21.5q35 0 55.5 21.5t22.5 47.5h53q-2 -19 -10 -40t-23.5 -38.5t-39.5 -29t-58 -11.5q-35 0 -59.5 11.5t-40 29 t-23 38.5t-8.5 40h54z" />
<glyph unicode="&#x14f;" horiz-adv-x="429" d="M217 500q50 0 83.5 -19.5t53.5 -50.5q19 -26 26 -76t7 -108q0 -18 -1 -39.5t-3.5 -43t-6 -40.5t-7.5 -32q-19 -54 -62.5 -76t-97.5 -22q-51 0 -83.5 19t-50.5 49q-20 27 -27.5 74.5t-7.5 108.5q0 48 4 89.5t15 69.5q19 47 59.5 72t98.5 25zM215 443q-32 0 -57 -14.5 t-39 -43.5q-11 -20 -14 -58.5t-3 -89.5t5 -85.5t19 -54.5q27 -47 87 -47q33 0 60 16.5t39 51.5q8 20 10 55.5t2 77.5q0 45 -3.5 78.5t-11.5 51.5q-12 31 -36.5 46.5t-57.5 15.5zM136 687q3 -26 24.5 -47.5t52.5 -21.5q16 0 30 6t24.5 15.5t17 22t7.5 25.5h52q-2 -19 -10 -40 t-23 -38.5t-39 -29t-59 -11.5t-59 11.5t-39.5 29t-23 38.5t-8.5 40h53z" />
<glyph unicode="&#x150;" horiz-adv-x="491" d="M446 199q0 -46 -14.5 -83.5t-41 -64.5t-63 -42t-81.5 -15q-52 0 -90 16.5t-63 45.5t-37 68t-12 83v293q0 38 12 74t36.5 64.5t62.5 45.5t91 17q49 0 86 -16.5t62.5 -44t38.5 -64t13 -76.5v-301zM380 499q0 23 -7.5 48t-23.5 45.5t-41.5 34t-61.5 13.5t-62 -12.5 t-43 -32.5t-25 -45.5t-8 -50.5v-293q0 -33 8.5 -61t26 -48.5t43.5 -32t61 -11.5q28 0 52.5 10.5t42.5 29.5t28 45t10 56v305zM117 759l138 111l45 -48l-157 -94zM264 759l138 111l44 -48l-157 -94z" />
<glyph unicode="&#x151;" horiz-adv-x="429" d="M217 500q50 0 83.5 -19.5t53.5 -50.5q19 -26 26 -76t7 -108q0 -18 -1 -39.5t-3.5 -43t-6 -40.5t-7.5 -32q-19 -54 -62.5 -76t-97.5 -22q-51 0 -83.5 19t-50.5 49q-20 27 -27.5 74.5t-7.5 108.5q0 48 4 89.5t15 69.5q19 47 59.5 72t98.5 25zM215 443q-32 0 -57 -14.5 t-39 -43.5q-11 -20 -14 -58.5t-3 -89.5t5 -85.5t19 -54.5q27 -47 87 -47q33 0 60 16.5t39 51.5q8 20 10 55.5t2 77.5q0 45 -3.5 78.5t-11.5 51.5q-12 31 -36.5 46.5t-57.5 15.5zM132 572l71 162l62 -21l-96 -157zM243 572l72 162l61 -21l-96 -157z" />
<glyph unicode="&#x152;" horiz-adv-x="703" d="M244 701q15 0 29 -1.5t28 -3.5h360v-60h-297v-254h255v-57h-255v-264h297v-61h-357q-27 -6 -60 -6q-58 0 -96.5 17t-61.5 47t-32.5 70.5t-9.5 87.5v273q0 39 10.5 77t34 68t61.5 48.5t94 18.5zM245 640q-41 0 -68 -14.5t-42.5 -37.5t-21.5 -51.5t-6 -56.5v-264 q0 -36 7.5 -65.5t24 -51.5t42.5 -34t64 -12q31 0 55 10v568q-23 9 -55 9z" />
<glyph unicode="&#x153;" horiz-adv-x="705" d="M508 -6q-60 0 -96.5 20t-55.5 62q-11 -19 -23 -31q-23 -27 -54.5 -39t-70.5 -12q-52 0 -89.5 20t-57.5 66q-12 29 -16.5 71t-4.5 93q0 48 3.5 89.5t14.5 68.5q19 48 60 72.5t98 24.5q36 0 64.5 -11t48.5 -29q20 -19 30 -44q17 38 50.5 61t89.5 23q45 0 77 -15.5t52.5 -43 t30 -65.5t9.5 -83v-61h-280q0 -41 5 -74.5t18 -57.5t36 -37t59 -13q32 0 58 18t38 44l52 -27q-19 -43 -58 -66.5t-88 -23.5zM214 443q-32 0 -57 -14.5t-39 -43.5q-10 -20 -13.5 -58.5t-3.5 -89.5q0 -36 2.5 -68.5t13.5 -58.5q25 -61 95 -61q34 0 60.5 18t39.5 53 q7 20 9.5 54t2.5 76q0 45 -3.5 79t-11.5 52q-12 31 -37 46.5t-58 15.5zM606 281v1q0 28 -4.5 56t-16.5 51t-33 37.5t-53 14.5t-52.5 -12t-33 -33.5t-18 -51t-6.5 -63.5h217z" />
<glyph unicode="&#x154;" horiz-adv-x="499" d="M275 696q89 0 137 -49.5t48 -139.5q0 -69 -32 -117t-97 -68l138 -322h-71l-130 314l-139 -1v-313h-64v696h210zM129 637v-268h134q64 0 98 35.5t34 102.5q0 65 -33.5 97.5t-98.5 32.5h-134zM172 758l139 112l44 -48l-156 -95z" />
<glyph unicode="&#x155;" horiz-adv-x="299" d="M126 426q21 43 53 58.5t73 15.5q13 0 25 -2.5t21 -6.5l-14 -67q-11 5 -23.5 7.5t-23.5 2.5q-51 0 -82.5 -32t-31.5 -94v-308h-62v494h62v-68h3zM124 572l72 162l62 -21l-96 -157z" />
<glyph unicode="&#x156;" horiz-adv-x="499" d="M275 696q89 0 137 -49.5t48 -139.5q0 -69 -32 -117t-97 -68l138 -322h-71l-130 314l-139 -1v-313h-64v696h210zM129 637v-268h134q64 0 98 35.5t34 102.5q0 65 -33.5 97.5t-98.5 32.5h-134zM205 -216l27 88h-22v82h76v-81l-44 -89h-37z" />
<glyph unicode="&#x157;" horiz-adv-x="299" d="M126 426q21 43 53 58.5t73 15.5q13 0 25 -2.5t21 -6.5l-14 -67q-11 5 -23.5 7.5t-23.5 2.5q-51 0 -82.5 -32t-31.5 -94v-308h-62v494h62v-68h3zM48 -236l27 88h-22v82h76v-81l-44 -89h-37z" />
<glyph unicode="&#x158;" horiz-adv-x="499" d="M275 696q89 0 137 -49.5t48 -139.5q0 -69 -32 -117t-97 -68l138 -322h-71l-130 314l-139 -1v-313h-64v696h210zM129 637v-268h134q64 0 98 35.5t34 102.5q0 65 -33.5 97.5t-98.5 32.5h-134zM358 874l26 -26l-126 -114h-42l-132 115l24 26l126 -81z" />
<glyph unicode="&#x159;" horiz-adv-x="299" d="M126 426q21 43 53 58.5t73 15.5q13 0 25 -2.5t21 -6.5l-14 -67q-11 5 -23.5 7.5t-23.5 2.5q-51 0 -82.5 -32t-31.5 -94v-308h-62v494h62v-68h3zM266 714l28 -27l-125 -134h-42l-133 136l29 25l122 -98z" />
<glyph unicode="&#x15a;" horiz-adv-x="471" d="M437 186q0 -88 -52.5 -140.5t-150.5 -52.5q-79 0 -130.5 31.5t-77.5 85.5l57 33q21 -37 58 -62.5t94 -25.5q70 0 102 36.5t32 94.5q0 32 -9.5 54t-27 37.5t-42.5 26.5t-56 21q-51 15 -87 32t-59 39t-33.5 51t-10.5 68q0 41 13.5 75.5t38.5 59t61 38.5t82 14 q76 0 119.5 -25t68.5 -66l-56 -38q-20 35 -52 51.5t-83 16.5q-62 0 -94 -36.5t-32 -89.5q0 -29 11.5 -49.5t32.5 -35t49.5 -26t63.5 -22.5q45 -14 77 -31t52.5 -40t30.5 -53.5t10 -71.5zM187 758l139 112l44 -48l-156 -95z" />
<glyph unicode="&#x15b;" horiz-adv-x="398" d="M79 120q34 -70 120 -70q45 0 73.5 21t28.5 66q0 22 -7.5 36.5t-21.5 24t-33 16t-42 12.5q-36 9 -65 20t-49.5 26.5t-31.5 37.5t-11 53q0 63 42 100t116 37q63 0 102 -24t56 -67l-54 -27q-14 31 -41 46t-64 15q-49 0 -72 -23.5t-23 -56.5q0 -20 9.5 -32.5t26 -21.5t38 -15 t46.5 -13q35 -8 61.5 -19t44.5 -28t27 -40.5t9 -57.5q0 -64 -42.5 -103.5t-125.5 -39.5q-123 0 -169 98zM155 572l72 162l62 -21l-96 -157z" />
<glyph unicode="&#x15c;" horiz-adv-x="471" d="M437 186q0 -88 -52.5 -140.5t-150.5 -52.5q-79 0 -130.5 31.5t-77.5 85.5l57 33q21 -37 58 -62.5t94 -25.5q70 0 102 36.5t32 94.5q0 32 -9.5 54t-27 37.5t-42.5 26.5t-56 21q-51 15 -87 32t-59 39t-33.5 51t-10.5 68q0 41 13.5 75.5t38.5 59t61 38.5t82 14 q76 0 119.5 -25t68.5 -66l-56 -38q-20 35 -52 51.5t-83 16.5q-62 0 -94 -36.5t-32 -89.5q0 -29 11.5 -49.5t32.5 -35t49.5 -26t63.5 -22.5q45 -14 77 -31t52.5 -40t30.5 -53.5t10 -71.5zM236 813l-125 -80l-25 26l132 114h42l126 -113l-25 -27z" />
<glyph unicode="&#x15d;" horiz-adv-x="398" d="M79 120q34 -70 120 -70q45 0 73.5 21t28.5 66q0 22 -7.5 36.5t-21.5 24t-33 16t-42 12.5q-36 9 -65 20t-49.5 26.5t-31.5 37.5t-11 53q0 63 42 100t116 37q63 0 102 -24t56 -67l-54 -27q-14 31 -41 46t-64 15q-49 0 -72 -23.5t-23 -56.5q0 -20 9.5 -32.5t26 -21.5t38 -15 t46.5 -13q35 -8 61.5 -19t44.5 -28t27 -40.5t9 -57.5q0 -64 -42.5 -103.5t-125.5 -39.5q-123 0 -169 98zM200 652l-121 -99l-29 26l132 134h42l126 -132l-29 -27z" />
<glyph unicode="&#x15e;" horiz-adv-x="471" d="M437 186q0 -85 -48 -136t-138 -56q-4 -11 -7 -22l-6 -22q26 -1 43 -9t27 -19.5t14 -24.5t4 -24q0 -12 -5 -25t-15.5 -24t-27 -18t-40.5 -7q-11 0 -35 2t-48 13l12 31q18 -8 35 -10.5t30 -2.5q18 0 33 10t15 31q0 20 -16.5 32t-42.5 12h-7l-17 14q5 16 9.5 31.5t9.5 31.5 q-72 4 -118.5 34.5t-71.5 81.5l57 33q21 -37 58 -62.5t94 -25.5q70 0 102 36.5t32 94.5q0 32 -9.5 54t-27 37.5t-42.5 26.5t-56 21q-51 15 -87 32t-59 39t-33.5 51t-10.5 68q0 41 13.5 75.5t38.5 59t61 38.5t82 14q76 0 119.5 -25t68.5 -66l-56 -38q-20 35 -52 51.5 t-83 16.5q-62 0 -94 -36.5t-32 -89.5q0 -29 11.5 -49.5t32.5 -35t49.5 -26t63.5 -22.5q45 -14 77 -31t52.5 -40t30.5 -53.5t10 -71.5z" />
<glyph unicode="&#x15f;" horiz-adv-x="398" d="M79 120q34 -70 120 -70q45 0 73.5 21t28.5 66q0 22 -7.5 36.5t-21.5 24t-33 16t-42 12.5q-36 9 -65 20t-49.5 26.5t-31.5 37.5t-11 53q0 63 42 100t116 37q63 0 102 -24t56 -67l-54 -27q-14 31 -41 46t-64 15q-49 0 -72 -23.5t-23 -56.5q0 -20 9.5 -32.5t26 -21.5t38 -15 t46.5 -13q35 -8 61.5 -19t44.5 -28t27 -40.5t9 -57.5q0 -60 -37 -98.5t-109 -43.5l-13 -44q26 -1 43 -9t27 -19.5t14 -24.5t4 -24q0 -12 -5 -25t-15.5 -24t-27 -18t-40.5 -7q-11 0 -35 2t-48 13l12 31q18 -8 35 -10.5t30 -2.5q18 0 33 10t15 31q0 20 -16.5 32t-42.5 12h-7 l-17 14l18 62q-56 3 -94.5 26.5t-60.5 71.5z" />
<glyph unicode="&#x160;" horiz-adv-x="471" d="M437 186q0 -88 -52.5 -140.5t-150.5 -52.5q-79 0 -130.5 31.5t-77.5 85.5l57 33q21 -37 58 -62.5t94 -25.5q70 0 102 36.5t32 94.5q0 32 -9.5 54t-27 37.5t-42.5 26.5t-56 21q-51 15 -87 32t-59 39t-33.5 51t-10.5 68q0 41 13.5 75.5t38.5 59t61 38.5t82 14 q76 0 119.5 -25t68.5 -66l-56 -38q-20 35 -52 51.5t-83 16.5q-62 0 -94 -36.5t-32 -89.5q0 -29 11.5 -49.5t32.5 -35t49.5 -26t63.5 -22.5q45 -14 77 -31t52.5 -40t30.5 -53.5t10 -71.5zM347 874l26 -26l-126 -114h-42l-132 115l24 26l126 -81z" />
<glyph unicode="&#x161;" horiz-adv-x="398" d="M79 120q34 -70 120 -70q45 0 73.5 21t28.5 66q0 22 -7.5 36.5t-21.5 24t-33 16t-42 12.5q-36 9 -65 20t-49.5 26.5t-31.5 37.5t-11 53q0 63 42 100t116 37q63 0 102 -24t56 -67l-54 -27q-14 31 -41 46t-64 15q-49 0 -72 -23.5t-23 -56.5q0 -20 9.5 -32.5t26 -21.5t38 -15 t46.5 -13q35 -8 61.5 -19t44.5 -28t27 -40.5t9 -57.5q0 -64 -42.5 -103.5t-125.5 -39.5q-123 0 -169 98zM308 714l28 -27l-125 -134h-42l-133 136l29 25l122 -98z" />
<glyph unicode="&#x162;" horiz-adv-x="401" d="M233 637v-637h-64v637h-166v59h394v-59h-164zM160 -236l27 88h-22v82h76v-81l-44 -89h-37z" />
<glyph unicode="&#x163;" horiz-adv-x="244" d="M183 0q-54 0 -80.5 30t-26.5 81v331h-59v52h59v130h63v-130h76v-52h-76v-315q0 -33 11.5 -52t46.5 -19h27v-56h-41zM79 -236l27 88h-22v82h76v-81l-44 -89h-37z" />
<glyph unicode="&#x164;" horiz-adv-x="401" d="M233 637v-637h-64v637h-166v59h394v-59h-164zM328 874l26 -26l-126 -114h-42l-132 115l24 26l126 -81z" />
<glyph unicode="&#x165;" horiz-adv-x="272" d="M183 0q-54 0 -80.5 30t-26.5 81v331h-59v52h59v130h63v-130h76v-52h-76v-315q0 -33 11.5 -52t46.5 -19h27v-56h-41zM200 573l27 88h-22v82h76v-81l-44 -89h-37z" />
<glyph unicode="&#x166;" horiz-adv-x="401" d="M233 637v-245h128v-53h-128v-339h-64v339h-125v53h125v245h-166v59h394v-59h-164z" />
<glyph unicode="&#x167;" horiz-adv-x="244" d="M183 0q-54 0 -80.5 30t-26.5 81v180h-57v53h57v98h-59v52h59v130h63v-130h76v-52h-76v-98h72v-53h-72v-164q0 -33 11.5 -52t46.5 -19h27v-56h-41z" />
<glyph unicode="&#x168;" horiz-adv-x="510" d="M456 696v-502q0 -47 -15.5 -84t-42.5 -63t-63.5 -39.5t-79.5 -13.5q-45 0 -81.5 14.5t-63 40.5t-41 63.5t-14.5 82.5v501h63v-501q0 -30 10 -55.5t28.5 -44t43.5 -29.5t55 -11q58 0 97 36.5t39 102.5v502h65zM194 849q16 0 31.5 -6.5t30.5 -14t30 -14t29 -6.5q27 0 55 41 l36 -22q-18 -38 -41 -55.5t-48 -17.5q-16 0 -31.5 6t-31 13.5t-30.5 14t-28 6.5q-28 0 -57 -37l-36 20q17 32 41 52t50 20z" />
<glyph unicode="&#x169;" horiz-adv-x="440" d="M323 0v60h-3q-21 -35 -54.5 -50.5t-70.5 -15.5q-66 0 -105.5 40.5t-39.5 109.5v350h63v-329q0 -51 27.5 -81t76.5 -30q48 0 77 33t29 85v322h62v-494h-62zM149 679q16 0 31.5 -6.5t30.5 -14t30 -14t29 -6.5q27 0 55 41l36 -22q-18 -38 -41 -55.5t-48 -17.5q-16 0 -31.5 6 t-31 13.5t-30.5 14t-28 6.5q-28 0 -57 -37l-36 20q17 32 41 52t50 20z" />
<glyph unicode="&#x16a;" horiz-adv-x="510" d="M456 696v-502q0 -47 -15.5 -84t-42.5 -63t-63.5 -39.5t-79.5 -13.5q-45 0 -81.5 14.5t-63 40.5t-41 63.5t-14.5 82.5v501h63v-501q0 -30 10 -55.5t28.5 -44t43.5 -29.5t55 -11q58 0 97 36.5t39 102.5v502h65zM138 761v58h239v-58h-239z" />
<glyph unicode="&#x16b;" horiz-adv-x="440" d="M323 0v60h-3q-21 -35 -54.5 -50.5t-70.5 -15.5q-66 0 -105.5 40.5t-39.5 109.5v350h63v-329q0 -51 27.5 -81t76.5 -30q48 0 77 33t29 85v322h62v-494h-62zM98 588v59h239v-59h-239z" />
<glyph unicode="&#x16c;" horiz-adv-x="510" d="M456 696v-502q0 -47 -15.5 -84t-42.5 -63t-63.5 -39.5t-79.5 -13.5q-45 0 -81.5 14.5t-63 40.5t-41 63.5t-14.5 82.5v501h63v-501q0 -30 10 -55.5t28.5 -44t43.5 -29.5t55 -11q58 0 97 36.5t39 102.5v502h65zM180 837q3 -26 24.5 -47.5t52.5 -21.5q16 0 30 6t24.5 15.5 t17 22t7.5 25.5h52q-2 -19 -10 -40t-23 -38.5t-39 -29t-59 -11.5t-59 11.5t-39.5 29t-23 38.5t-8.5 40h53z" />
<glyph unicode="&#x16d;" horiz-adv-x="440" d="M323 0v60h-3q-21 -35 -54.5 -50.5t-70.5 -15.5q-66 0 -105.5 40.5t-39.5 109.5v350h63v-329q0 -51 27.5 -81t76.5 -30q48 0 77 33t29 85v322h62v-494h-62zM146 687q3 -26 24.5 -47.5t52.5 -21.5q16 0 30 6t24.5 15.5t17 22t7.5 25.5h52q-2 -19 -10 -40t-23 -38.5t-39 -29 t-59 -11.5t-59 11.5t-39.5 29t-23 38.5t-8.5 40h53z" />
<glyph unicode="&#x16e;" horiz-adv-x="510" d="M456 696v-502q0 -47 -15.5 -84t-42.5 -63t-63.5 -39.5t-79.5 -13.5q-45 0 -81.5 14.5t-63 40.5t-41 63.5t-14.5 82.5v501h63v-501q0 -30 10 -55.5t28.5 -44t43.5 -29.5t55 -11q58 0 97 36.5t39 102.5v502h65zM256 714q-36 0 -61 24.5t-25 58.5q0 18 6.5 33.5t18.5 27 t27.5 18.5t33.5 7q17 0 32 -7t26.5 -18.5t18 -27t6.5 -33.5q0 -34 -24.5 -58.5t-58.5 -24.5zM256 848q-22 0 -37 -14.5t-15 -36.5q0 -20 15 -34t37 -14q20 0 35 14t15 34q0 22 -15 36.5t-35 14.5z" />
<glyph unicode="&#x16f;" horiz-adv-x="440" d="M323 0v60h-3q-21 -35 -54.5 -50.5t-70.5 -15.5q-66 0 -105.5 40.5t-39.5 109.5v350h63v-329q0 -51 27.5 -81t76.5 -30q48 0 77 33t29 85v322h62v-494h-62zM224 552q-36 0 -61 24.5t-25 58.5q0 18 6.5 33.5t18.5 27t27.5 18.5t33.5 7q17 0 32 -7t26.5 -18.5t18 -27 t6.5 -33.5q0 -34 -24.5 -58.5t-58.5 -24.5zM224 686q-22 0 -37 -14.5t-15 -36.5q0 -20 15 -34t37 -14q20 0 35 14t15 34q0 22 -15 36.5t-35 14.5z" />
<glyph unicode="&#x170;" horiz-adv-x="510" d="M456 696v-502q0 -47 -15.5 -84t-42.5 -63t-63.5 -39.5t-79.5 -13.5q-45 0 -81.5 14.5t-63 40.5t-41 63.5t-14.5 82.5v501h63v-501q0 -30 10 -55.5t28.5 -44t43.5 -29.5t55 -11q58 0 97 36.5t39 102.5v502h65zM138 759l138 111l45 -48l-157 -94zM285 759l138 111l44 -48 l-157 -94z" />
<glyph unicode="&#x171;" horiz-adv-x="440" d="M323 0v60h-3q-21 -35 -54.5 -50.5t-70.5 -15.5q-66 0 -105.5 40.5t-39.5 109.5v350h63v-329q0 -51 27.5 -81t76.5 -30q48 0 77 33t29 85v322h62v-494h-62zM132 572l71 162l62 -21l-96 -157zM243 572l72 162l61 -21l-96 -157z" />
<glyph unicode="&#x172;" horiz-adv-x="510" d="M202 -90q0 18 7.5 39.5t24.5 45.5q-81 7 -130 60.5t-49 139.5v501h63v-501q0 -30 10 -55.5t28.5 -44t43.5 -29.5t55 -11q58 0 97 36.5t39 102.5v502h65v-502q0 -43 -13 -78t-36 -60t-55 -40.5t-69 -19.5q-29 -43 -29 -75q0 -24 13 -36t36 -12q11 0 24.5 3.5t30.5 11.5 l17 -40q-17 -10 -39 -16.5t-45 -6.5q-40 0 -64.5 25t-24.5 60z" />
<glyph unicode="&#x173;" horiz-adv-x="440" d="M285 -90q0 20 8.5 43t29.5 50v57h-3q-21 -35 -54.5 -50.5t-70.5 -15.5q-66 0 -105.5 40.5t-39.5 109.5v350h63v-329q0 -51 27.5 -81t76.5 -30q48 0 77 33t29 85v322h62v-494h-16q-32 -44 -32 -79q0 -24 13 -36t36 -12q11 0 24.5 3.5t30.5 11.5l17 -40q-17 -10 -39 -16.5 t-45 -6.5q-40 0 -64.5 25t-24.5 60z" />
<glyph unicode="&#x174;" horiz-adv-x="699" d="M347 566q-13 -55 -24.5 -107.5t-23.5 -109.5q-10 -42 -21 -90.5t-22 -95.5t-20.5 -89.5t-16.5 -73.5h-61q-35 175 -70 348t-71 348h66l60 -313l46 -255h3l52 230l78 338h55l80 -344l50 -224h3l43 237l61 331h67l-141 -696h-60l-78 336q-14 57 -26 115t-26 115h-3z M348 813l-125 -80l-25 26l132 114h42l126 -113l-25 -27z" />
<glyph unicode="&#x175;" horiz-adv-x="625" d="M480 0h-61l-69 249q-3 10 -8 29t-10.5 40t-11 40t-8.5 30h-1l-40 -148l-66 -240h-62l-135 493h66l66 -258q11 -42 19.5 -78t13.5 -57h4l34 128q6 22 15.5 57.5t20 74.5t20 75t15.5 58h61q36 -131 69 -261q8 -34 17 -67.5t18 -67.5h3l34 132q2 8 7 28.5t11.5 47t14 56 t14 56.5t11.5 47t7 29h66zM312 652l-121 -99l-29 26l132 134h42l126 -132l-29 -27z" />
<glyph unicode="&#x176;" horiz-adv-x="428" d="M156 500q14 -33 27.5 -68.5t27.5 -68.5l68 160l72 173h66l-174 -406v-290h-62v290l-174 406h67q20 -50 41 -98.5t41 -97.5zM214 813l-125 -80l-25 26l132 114h42l126 -113l-25 -27z" />
<glyph unicode="&#x177;" horiz-adv-x="375" d="M191 98q6 21 15 52t20 68t22.5 76.5t22.5 76.5t20.5 68.5t15.5 53.5h65l-183 -598q-30 -98 -118 -98h-23v54h20q29 0 44.5 19.5t25.5 55.5l24 80q-41 122 -79.5 243t-79.5 244h67q16 -53 32 -104.5t32 -103.5q4 -15 11.5 -40.5t16 -53t15.5 -53t12 -40.5h2zM189 652 l-121 -99l-29 26l132 134h42l126 -132l-29 -27z" />
<glyph unicode="&#x178;" horiz-adv-x="428" d="M156 500q14 -33 27.5 -68.5t27.5 -68.5l68 160l72 173h66l-174 -406v-290h-62v290l-174 406h67q20 -50 41 -98.5t41 -97.5zM101 748v67h65v-67h-65zM266 748v67h64v-67h-64z" />
<glyph unicode="&#x179;" horiz-adv-x="405" d="M25 0v59l286 578h-272v59h341v-56l-286 -579h283v-61h-352zM159 758l139 112l44 -48l-156 -95z" />
<glyph unicode="&#x17a;" horiz-adv-x="361" d="M27 0v55l237 383h-221v55h292v-53l-237 -382h235v-58h-306zM157 572l72 162l62 -21l-96 -157z" />
<glyph unicode="&#x17b;" horiz-adv-x="405" d="M25 0v59l286 578h-272v59h341v-56l-286 -579h283v-61h-352zM182 765v68h64v-68h-64z" />
<glyph unicode="&#x17c;" horiz-adv-x="361" d="M27 0v55l237 383h-221v55h292v-53l-237 -382h235v-58h-306zM165 595v68h64v-68h-64z" />
<glyph unicode="&#x17d;" horiz-adv-x="405" d="M25 0v59l286 578h-272v59h341v-56l-286 -579h283v-61h-352zM333 874l26 -26l-126 -114h-42l-132 115l24 26l126 -81z" />
<glyph unicode="&#x17e;" horiz-adv-x="361" d="M27 0v55l237 383h-221v55h292v-53l-237 -382h235v-58h-306zM305 714l28 -27l-125 -134h-42l-133 136l29 25l122 -98z" />
<glyph unicode="&#x192;" horiz-adv-x="425" d="M107 413h88l13 100q5 36 15 70t28 59.5t45.5 41t68.5 15.5q17 0 34.5 -3t31.5 -8q-3 -14 -6.5 -27t-7.5 -29q-13 5 -27.5 7t-26.5 2q-42 0 -64 -32.5t-30 -93.5q-1 -5 -2.5 -19.5t-4 -31t-4.5 -31t-3 -20.5h98v-54h-104q-2 -12 -7 -48.5t-10 -78.5t-10 -78.5t-7 -48.5 q-11 -93 -44 -144.5t-103 -51.5q-17 0 -37 3.5t-37 10.5l17 50q27 -9 51 -9q41 0 61.5 34t30.5 105q0 3 2.5 22.5t6 46.5t7.5 59t7.5 59t6 46.5t3.5 22.5h-80v54z" />
<glyph unicode="&#x1a0;" horiz-adv-x="509" d="M446 199q0 -46 -14.5 -83.5t-41 -64.5t-63 -42t-81.5 -15q-52 0 -90 16.5t-63 45.5t-37 68t-12 83v293q0 38 12 74t36.5 64.5t62.5 45.5t91 17q47 0 83 -15.5t62 -41.5q32 3 45.5 24.5t13.5 69.5v35h58v-35q0 -60 -19 -96t-64 -47q21 -44 21 -95v-301zM380 499 q0 23 -7.5 48t-23.5 45.5t-41.5 34t-61.5 13.5t-62 -12.5t-43 -32.5t-25 -45.5t-8 -50.5v-293q0 -33 8.5 -61t26 -48.5t43.5 -32t61 -11.5q28 0 52.5 10.5t42.5 29.5t28 45t10 56v305z" />
<glyph unicode="&#x1a1;" horiz-adv-x="459" d="M217 500q42 0 73 -14.5t51 -37.5q36 1 50.5 23t14.5 71v34h58v-36q0 -63 -21.5 -99t-72.5 -45q9 -29 13 -68t4 -82q0 -18 -1 -39.5t-3.5 -43t-6 -40.5t-7.5 -32q-19 -54 -62.5 -76t-97.5 -22q-51 0 -83.5 19t-50.5 49q-20 27 -27.5 74.5t-7.5 108.5q0 48 4 89.5t15 69.5 q19 47 59.5 72t98.5 25zM215 443q-32 0 -57 -14.5t-39 -43.5q-11 -20 -14 -58.5t-3 -89.5t5 -85.5t19 -54.5q27 -47 87 -47q33 0 60 16.5t39 51.5q8 20 10 55.5t2 77.5q0 45 -3.5 78.5t-11.5 51.5q-12 31 -36.5 46.5t-57.5 15.5z" />
<glyph unicode="&#x1af;" horiz-adv-x="551" d="M456 696v-52q33 3 46.5 25t13.5 70v34h57v-37q0 -69 -26.5 -106t-90.5 -40v-396q0 -47 -15.5 -84t-42.5 -63t-63.5 -39.5t-79.5 -13.5q-45 0 -81.5 14.5t-63 40.5t-41 63.5t-14.5 82.5v501h63v-501q0 -30 10 -55.5t28.5 -44t43.5 -29.5t55 -11q58 0 97 36.5t39 102.5v502 h65z" />
<glyph unicode="&#x1b0;" horiz-adv-x="493" d="M323 0v60h-3q-21 -35 -54.5 -50.5t-70.5 -15.5q-66 0 -105.5 40.5t-39.5 109.5v350h63v-329q0 -51 27.5 -81t76.5 -30q48 0 77 33t29 85v322h62v-46q33 2 46.5 24t13.5 70v34h58v-36q0 -69 -27 -106.5t-91 -40.5v-393h-62z" />
<glyph unicode="&#x1fc;" horiz-adv-x="787" d="M394 190h-224l-98 -190h-67q89 175 178 348t179 348h393v-60h-297v-253h256v-58h-256v-264h297v-61h-361v190zM390 626q-48 -95 -95.5 -189t-95.5 -189h195v377zM474 758l139 112l44 -48l-156 -95z" />
<glyph unicode="&#x1fd;" horiz-adv-x="690" d="M636 78q-20 -42 -57.5 -63t-85.5 -21q-53 0 -92.5 18.5t-60.5 62.5q-36 -46 -77 -63.5t-86 -17.5q-71 0 -107.5 40.5t-36.5 100.5q0 70 41.5 111t126.5 41h107v68q0 40 -24.5 63t-75.5 23q-31 0 -59.5 -11t-44.5 -38l-24 16l-24 16q23 38 63 57t88 19q49 0 87.5 -14.5 t58.5 -52.5q20 34 53 50.5t77 16.5q45 0 77.5 -15.5t53 -43t30 -65t9.5 -82.5v-62h-280q0 -35 4 -67.5t16.5 -58.5t35.5 -41.5t61 -15.5q32 0 57 16t39 41zM308 232h-112q-20 0 -38.5 -4.5t-33 -15.5t-23 -28.5t-8.5 -44.5q0 -39 25.5 -63t77.5 -24t82 26.5t30 73.5v80z M591 284q0 33 -5.5 61.5t-18 50t-33 33.5t-50.5 12q-32 0 -52.5 -12t-33 -33.5t-17.5 -50t-6 -61.5h216zM320 572l72 162l62 -21l-96 -157z" />
<glyph unicode="&#x1fe;" horiz-adv-x="491" d="M446 199q0 -46 -14.5 -83.5t-41 -64.5t-63 -42t-81.5 -15q-49 0 -85.5 14.5t-61.5 40.5l-30 -54q-8 5 -15.5 9.5t-14.5 9.5l37 66q-17 27 -24.5 59t-7.5 68v293q0 38 12 74t36.5 64.5t62.5 45.5t91 17q45 0 80 -14t60 -38l30 53l32 -19l-36 -65q34 -53 34 -118v-301z M380 499q0 25 -7 47q-60 -110 -120.5 -218.5t-120.5 -217.5q17 -26 45.5 -41.5t69.5 -15.5q28 0 52.5 10.5t42.5 29.5t28 45t10 56v305zM115 152q60 109 119 217.5t119 217.5q-16 23 -42.5 38t-64.5 15q-36 0 -62 -12.5t-43 -32.5t-25 -45.5t-8 -50.5v-293q0 -14 1.5 -28 t5.5 -26zM177 758l139 112l44 -48l-156 -95z" />
<glyph unicode="&#x1ff;" horiz-adv-x="429" d="M217 500q38 0 66.5 -12t48.5 -32l30 44l32 -22l-37 -54q17 -27 23.5 -75t6.5 -103q0 -18 -1 -39.5t-3.5 -43t-6 -40.5t-7.5 -32q-19 -54 -62.5 -76t-97.5 -22q-39 0 -67 11t-48 31l-24 -36l-30 22l31 46q-17 28 -24 73.5t-7 103.5q0 48 4 89.5t15 69.5q19 47 59.5 72 t98.5 25zM215 443q-32 0 -57 -14.5t-39 -43.5q-11 -20 -14 -58.5t-3 -89.5q0 -70 10 -109l185 275q-29 40 -82 40zM324 251q0 34 -2 62t-7 48l-184 -272q27 -39 82 -39q33 0 60 16.5t39 51.5q8 20 10 55.5t2 77.5zM177 572l72 162l62 -21l-96 -157z" />
<glyph unicode="&#x218;" horiz-adv-x="471" d="M437 186q0 -88 -52.5 -140.5t-150.5 -52.5q-79 0 -130.5 31.5t-77.5 85.5l57 33q21 -37 58 -62.5t94 -25.5q70 0 102 36.5t32 94.5q0 32 -9.5 54t-27 37.5t-42.5 26.5t-56 21q-51 15 -87 32t-59 39t-33.5 51t-10.5 68q0 41 13.5 75.5t38.5 59t61 38.5t82 14 q76 0 119.5 -25t68.5 -66l-56 -38q-20 35 -52 51.5t-83 16.5q-62 0 -94 -36.5t-32 -89.5q0 -29 11.5 -49.5t32.5 -35t49.5 -26t63.5 -22.5q45 -14 77 -31t52.5 -40t30.5 -53.5t10 -71.5zM186 -236l27 88h-22v82h76v-81l-44 -89h-37z" />
<glyph unicode="&#x219;" horiz-adv-x="398" d="M79 120q34 -70 120 -70q45 0 73.5 21t28.5 66q0 22 -7.5 36.5t-21.5 24t-33 16t-42 12.5q-36 9 -65 20t-49.5 26.5t-31.5 37.5t-11 53q0 63 42 100t116 37q63 0 102 -24t56 -67l-54 -27q-14 31 -41 46t-64 15q-49 0 -72 -23.5t-23 -56.5q0 -20 9.5 -32.5t26 -21.5t38 -15 t46.5 -13q35 -8 61.5 -19t44.5 -28t27 -40.5t9 -57.5q0 -64 -42.5 -103.5t-125.5 -39.5q-123 0 -169 98zM147 -236l27 88h-22v82h76v-81l-44 -89h-37z" />
<glyph unicode="&#x259;" horiz-adv-x="413" d="M46 409q20 43 62 67.5t91 24.5q99 0 138.5 -64.5t39.5 -191.5q0 -47 -7 -92t-26.5 -80t-53 -56.5t-86.5 -21.5q-45 0 -77.5 15.5t-53 43t-30 65t-9.5 82.5v63h280q0 40 -5 73.5t-18.5 57.5t-36 37t-57.5 13q-32 0 -58.5 -18.5t-39.5 -43.5zM97 211q0 -35 5.5 -64 t17.5 -50t32.5 -32.5t50.5 -11.5q31 0 52 12.5t33.5 34t17.5 50.5t6 62h-215v-1z" />
<glyph unicode="&#x2b9;" horiz-adv-x="220" d="M216 670l-130 -257l-43 13l96 264z" />
<glyph unicode="&#x2c6;" horiz-adv-x="462" d="M234 652l-121 -99l-29 26l132 134h42l126 -132l-29 -27z" />
<glyph unicode="&#x2c7;" horiz-adv-x="419" d="M335 714l28 -27l-125 -134h-42l-133 136l29 25l122 -98z" />
<glyph unicode="&#x2d8;" horiz-adv-x="447" d="M152 687q3 -26 24.5 -47.5t52.5 -21.5q16 0 30 6t24.5 15.5t17 22t7.5 25.5h52q-2 -19 -10 -40t-23 -38.5t-39 -29t-59 -11.5t-59 11.5t-39.5 29t-23 38.5t-8.5 40h53z" />
<glyph unicode="&#x2d9;" horiz-adv-x="418" d="M190 595v68h64v-68h-64z" />
<glyph unicode="&#x2da;" horiz-adv-x="418" d="M224 552q-36 0 -61 24.5t-25 58.5q0 18 6.5 33.5t18.5 27t27.5 18.5t33.5 7q17 0 32 -7t26.5 -18.5t18 -27t6.5 -33.5q0 -34 -24.5 -58.5t-58.5 -24.5zM224 686q-22 0 -37 -14.5t-15 -36.5q0 -20 15 -34t37 -14q20 0 35 14t15 34q0 22 -15 36.5t-35 14.5z" />
<glyph unicode="&#x2db;" horiz-adv-x="321" d="M103 -92q0 20 9 44t31 52l46 -1l1 -1q-17 -23 -26 -44.5t-9 -38.5q0 -24 13 -36t36 -12q11 0 24.5 3.5t30.5 11.5l17 -40q-17 -10 -39 -16.5t-45 -6.5q-40 0 -64.5 25t-24.5 60z" />
<glyph unicode="&#x2dc;" horiz-adv-x="425" d="M151 679q16 0 31.5 -6.5t30.5 -14t30 -14t29 -6.5q27 0 55 41l36 -22q-18 -38 -41 -55.5t-48 -17.5q-16 0 -31.5 6t-31 13.5t-30.5 14t-28 6.5q-28 0 -57 -37l-36 20q17 32 41 52t50 20z" />
<glyph unicode="&#x2dd;" horiz-adv-x="418" d="M125 572l71 162l62 -21l-96 -157zM236 572l72 162l61 -21l-96 -157z" />
<glyph unicode="&#x384;" horiz-adv-x="420" d="M196 572l71 162l61 -21l-96 -157z" />
<glyph unicode="&#x385;" horiz-adv-x="419" d="M284 592v69h63v-69h-63zM79 592v69h63v-69h-63zM158 572l71 162l63 -21l-96 -157z" />
<glyph unicode="&#x386;" horiz-adv-x="489" d="M412 0l-47 167h-242l-47 -167h-66l203 696h63l203 -696h-67zM289 440l-43 162h-4q-2 -8 -8 -31t-13 -50t-13.5 -50.5t-8.5 -30.5q-3 -12 -12 -42.5t-18.5 -65t-18.5 -65t-13 -42.5h213zM-17 559l71 162l61 -21l-96 -157z" />
<glyph unicode="&#x387;" horiz-adv-x="186" d="M54 301v82h75v-82h-75z" />
<glyph unicode="&#x388;" horiz-adv-x="449" d="M65 0v696h362v-60h-298v-253h256v-58h-256v-263h298v-62h-362zM-98 559l71 162l61 -21l-96 -157z" />
<glyph unicode="&#x389;" horiz-adv-x="526" d="M395 0v325h-266v-325h-64v696h64v-313h266v313h66v-696h-66zM-101 559l71 162l61 -21l-96 -157z" />
<glyph unicode="&#x38a;" horiz-adv-x="206" d="M70 0v696h65v-696h-65zM-101 559l71 162l61 -21l-96 -157z" />
<glyph unicode="&#x38c;" horiz-adv-x="491" d="M446 199q0 -46 -14.5 -83.5t-41 -64.5t-63 -42t-81.5 -15q-52 0 -90 16.5t-63 45.5t-37 68t-12 83v293q0 38 12 74t36.5 64.5t62.5 45.5t91 17q49 0 86 -16.5t62.5 -44t38.5 -64t13 -76.5v-301zM380 499q0 23 -7.5 48t-23.5 45.5t-41.5 34t-61.5 13.5t-62 -12.5 t-43 -32.5t-25 -45.5t-8 -50.5v-293q0 -33 8.5 -61t26 -48.5t43.5 -32t61 -11.5q28 0 52.5 10.5t42.5 29.5t28 45t10 56v305zM-85 559l71 162l61 -21l-96 -157z" />
<glyph unicode="&#x38e;" horiz-adv-x="428" d="M156 500q14 -33 27.5 -68.5t27.5 -68.5l68 160l72 173h66l-174 -406v-290h-62v290l-174 406h67q20 -50 41 -98.5t41 -97.5zM-135 559l71 162l61 -21l-96 -157z" />
<glyph unicode="&#x38f;" horiz-adv-x="491" d="M245 701q42 0 78.5 -14t63.5 -40.5t42.5 -64.5t15.5 -85v-264q0 -57 -13 -101t-54 -73h79v-59h-162v71q41 14 63.5 51.5t22.5 86.5v287q0 65 -37 104t-99 39q-65 0 -101 -40.5t-36 -102.5v-289q0 -48 22.5 -84.5t63.5 -52.5v-70h-162v59h80v1q-41 26 -54.5 70.5 t-13.5 102.5v264q0 45 14.5 82.5t41 64.5t63.5 42t82 15zM-92 559l71 162l61 -21l-96 -157z" />
<glyph unicode="&#x390;" horiz-adv-x="203" d="M163 52q0 -14 -0.5 -27t-0.5 -26q-6 -1 -12 -1.5t-12 -0.5q-38 0 -57.5 21.5t-19.5 71.5v402h62v-394q0 -28 8 -36.5t30 -9.5h2zM171 592v69h63v-69h-63zM-34 592v69h63v-69h-63zM45 572l71 162l63 -21l-96 -157z" />
<glyph unicode="&#x391;" horiz-adv-x="489" d="M412 0l-47 167h-242l-47 -167h-66l203 696h63l203 -696h-67zM289 440l-43 162h-4q-2 -8 -8 -31t-13 -50t-13.5 -50.5t-8.5 -30.5q-3 -12 -12 -42.5t-18.5 -65t-18.5 -65t-13 -42.5h213z" />
<glyph unicode="&#x392;" horiz-adv-x="502" d="M462 197q0 -98 -50.5 -147.5t-133.5 -49.5h-213v696h200q95 0 140 -49t45 -130q0 -48 -19 -88t-74 -64v-3q28 -7 48 -23.5t33 -38.5t18.5 -48.5t5.5 -54.5zM129 638v-248h132q64 0 94.5 34t30.5 91q0 56 -31.5 89.5t-97.5 33.5h-128zM129 333v-271h140q36 0 60.5 11 t39.5 30t21.5 44.5t6.5 54.5q0 57 -30 94t-96 37h-142z" />
<glyph unicode="&#x393;" horiz-adv-x="435" d="M130 636v-636h-65v696h356v-60h-291z" />
<glyph unicode="&#x394;" horiz-adv-x="489" d="M10 0q51 175 101.5 348t101.5 348h62q51 -175 101.5 -348t101.5 -348h-468zM242 598q-10 -32 -23.5 -81t-27.5 -106l-100 -354h304q-7 27 -17.5 65.5t-23.5 83.5t-26.5 94t-26.5 97q-7 26 -16 58t-17.5 61t-15 51.5t-8.5 30.5h-2z" />
<glyph unicode="&#x395;" horiz-adv-x="449" d="M65 0v696h362v-60h-298v-253h256v-58h-256v-263h298v-62h-362z" />
<glyph unicode="&#x396;" horiz-adv-x="405" d="M25 0v59l286 578h-272v59h341v-56l-286 -579h283v-61h-352z" />
<glyph unicode="&#x397;" horiz-adv-x="526" d="M395 0v325h-266v-325h-64v696h64v-313h266v313h66v-696h-66z" />
<glyph unicode="&#x398;" horiz-adv-x="491" d="M140 384h211v-58h-211v58zM446 199q0 -46 -14.5 -83.5t-41 -64.5t-63 -42t-81.5 -15q-52 0 -90 16.5t-63 45.5t-37 68t-12 83v293q0 38 12 74t36.5 64.5t62.5 45.5t91 17q49 0 86 -16.5t62.5 -44t38.5 -64t13 -76.5v-301zM380 499q0 23 -7.5 48t-23.5 45.5t-41.5 34 t-61.5 13.5t-62 -12.5t-43 -32.5t-25 -45.5t-8 -50.5v-293q0 -33 8.5 -61t26 -48.5t43.5 -32t61 -11.5q28 0 52.5 10.5t42.5 29.5t28 45t10 56v305z" />
<glyph unicode="&#x399;" horiz-adv-x="206" d="M70 0v696h65v-696h-65z" />
<glyph unicode="&#x39a;" horiz-adv-x="509" d="M425 0l-178 366q-7 -9 -24 -34t-35.5 -53t-35.5 -52.5t-23 -33.5v-193h-65v696h65v-400h2q66 102 132.5 200.5t132.5 199.5h71q-45 -69 -90 -135.5t-90 -134.5l209 -426h-71z" />
<glyph unicode="&#x39b;" horiz-adv-x="489" d="M368 158q-6 22 -13.5 48t-17.5 60.5t-23.5 81t-31.5 109.5l-38 135h-2q-14 -52 -25 -89t-19 -66l-74 -261q-4 -14 -10 -35.5t-12.5 -46.5t-13.5 -50t-13 -44h-65q51 175 101.5 348t101.5 348h62q51 -175 101.5 -348t101.5 -348h-66z" />
<glyph unicode="&#x39c;" horiz-adv-x="647" d="M523 0v538l-3 -1l-79 -190l-93 -211h-46q-5 13 -18 43t-28 63.5t-28 63.5t-19 43l-77 187l-4 -1v-535h-63v696h65q4 -11 13 -31.5t20 -46.5t23.5 -53.5t23.5 -53.5t20 -46.5t14 -31.5l81 -194h2l83 196l113 261h64v-696h-64z" />
<glyph unicode="&#x39d;" horiz-adv-x="555" d="M429 0l-200 372q-8 14 -21.5 39.5t-28 52.5t-28 52.5t-20.5 39.5h-2v-556h-65v696h63q8 -15 23.5 -44t35 -65t40.5 -75.5t40 -75t34.5 -64.5t24.5 -44l99 -187l4 1v554h64v-696h-63z" />
<glyph unicode="&#x39e;" horiz-adv-x="456" d="M46 636v60h365v-60h-365zM87 324v59h283v-59h-283zM46 0v62h365v-62h-365z" />
<glyph unicode="&#x39f;" horiz-adv-x="491" d="M446 199q0 -46 -14.5 -83.5t-41 -64.5t-63 -42t-81.5 -15q-52 0 -90 16.5t-63 45.5t-37 68t-12 83v293q0 38 12 74t36.5 64.5t62.5 45.5t91 17q49 0 86 -16.5t62.5 -44t38.5 -64t13 -76.5v-301zM380 499q0 23 -7.5 48t-23.5 45.5t-41.5 34t-61.5 13.5t-62 -12.5 t-43 -32.5t-25 -45.5t-8 -50.5v-293q0 -33 8.5 -61t26 -48.5t43.5 -32t61 -11.5q28 0 52.5 10.5t42.5 29.5t28 45t10 56v305z" />
<glyph unicode="&#x3a0;" horiz-adv-x="521" d="M391 0v639h-262v-639h-64v696h392v-696h-66z" />
<glyph unicode="&#x3a1;" horiz-adv-x="478" d="M460 492q0 -40 -10.5 -77t-34 -65t-60.5 -45t-90 -17h-135v-288h-65v696h196q96 0 147.5 -50.5t51.5 -153.5zM395 493q0 67 -33 105t-103 38h-129v-287h130q38 0 64 11.5t41.5 31t22.5 46t7 55.5z" />
<glyph unicode="&#x3a3;" horiz-adv-x="399" d="M25 0v56l143 303l-143 283v54h344v-59h-274l144 -278l-144 -300h284v-59h-354z" />
<glyph unicode="&#x3a4;" horiz-adv-x="401" d="M233 637v-637h-64v637h-166v59h394v-59h-164z" />
<glyph unicode="&#x3a5;" horiz-adv-x="428" d="M156 500q14 -33 27.5 -68.5t27.5 -68.5l68 160l72 173h66l-174 -406v-290h-62v290l-174 406h67q20 -50 41 -98.5t41 -97.5z" />
<glyph unicode="&#x3a6;" horiz-adv-x="609" d="M271 599q-48 -2 -79.5 -19.5t-50 -48.5t-26.5 -74.5t-8 -96.5q1 -125 38.5 -182.5t125.5 -61.5v483zM337 116q87 5 125.5 63t38.5 180q0 55 -9 98.5t-28.5 74.5t-50.5 48t-76 19v-483zM335 0h-63v57q-63 1 -106.5 23t-70.5 62t-39 95t-12 122q0 66 12 119.5t39 92.5 t70.5 61.5t106.5 26.5v37h63v-37q64 -3 108.5 -27t72 -64t39.5 -93.5t12 -115.5q0 -140 -56 -216.5t-176 -85.5v-57z" />
<glyph unicode="&#x3a7;" horiz-adv-x="437" d="M360 0l-141 296l-142 -296h-71l178 359l-167 337h70l132 -278l130 278h71l-168 -337l179 -359h-71z" />
<glyph unicode="&#x3a8;" horiz-adv-x="602" d="M549 342q0 -44 -16 -79.5t-44.5 -61t-68 -40.5t-86.5 -16v-145h-65v145q-47 1 -86.5 16t-68 41.5t-44.5 63t-16 81.5v349h65v-341q0 -68 41 -106.5t109 -40.5v488h65v-488q66 1 108 37.5t42 103.5v347h65v-354v0z" />
<glyph unicode="&#x3a9;" horiz-adv-x="491" d="M245 701q42 0 78.5 -14t63.5 -40.5t42.5 -64.5t15.5 -85v-264q0 -57 -13 -101t-54 -73h79v-59h-162v71q41 14 63.5 51.5t22.5 86.5v287q0 65 -37 104t-99 39q-65 0 -101 -40.5t-36 -102.5v-289q0 -48 22.5 -84.5t63.5 -52.5v-70h-162v59h80v1q-41 26 -54.5 70.5 t-13.5 102.5v264q0 45 14.5 82.5t41 64.5t63.5 42t82 15z" />
<glyph unicode="&#x3aa;" horiz-adv-x="206" d="M70 0v696h65v-696h-65zM154 748v67h64v-67h-64zM-11 748v67h65v-67h-65z" />
<glyph unicode="&#x3ab;" horiz-adv-x="428" d="M156 500q14 -33 27.5 -68.5t27.5 -68.5l68 160l72 173h66l-174 -406v-290h-62v290l-174 406h67q20 -50 41 -98.5t41 -97.5zM98 748v67h65v-67h-65zM263 748v67h64v-67h-64z" />
<glyph unicode="&#x3ac;" horiz-adv-x="438" d="M212 54q33 0 54 16t33.5 42t17 59.5t4.5 68.5q0 37 -2.5 73.5t-13 65t-32 46t-58.5 17.5t-58.5 -20t-32 -50.5t-13.5 -67t-3 -69.5q0 -38 4.5 -71t16 -57.5t31.5 -38.5t52 -14zM319 436q1 0 1 0.5t1 0.5v56h62v-493h-62v62q-1 0 -1 0.5t-1 0.5q-45 -68 -122 -68 q-49 0 -79 20t-46.5 53t-22 76t-5.5 89t5 93.5t21.5 85.5t47 62.5t82.5 24.5q36 0 66 -14t53 -49zM184 572l71 162l61 -21l-96 -157z" />
<glyph unicode="&#x3ad;" horiz-adv-x="378" d="M310 111q14 -8 27 -14.5t26 -14.5q-17 -42 -56.5 -64.5t-93.5 -22.5q-82 0 -125.5 37.5t-43.5 108.5q0 15 4 32t13 33t23.5 29.5t36.5 21.5v1q-22 7 -36 18t-22 25t-11 30t-3 31q0 28 10 53t30.5 44t50.5 30t70 11q57 0 96 -23.5t56 -65.5q-13 -8 -25.5 -15.5 t-25.5 -15.5q-12 27 -39 43.5t-61 16.5q-45 0 -72 -20t-27 -60q0 -37 24.5 -55t65.5 -18h62v-55h-66q-17 0 -33.5 -6t-29.5 -17t-21 -28.5t-8 -39.5q0 -45 31 -66.5t78 -21.5q32 0 58 16t37 42zM169 572l71 162l61 -21l-96 -157z" />
<glyph unicode="&#x3ae;" horiz-adv-x="439" d="M323 0v328q0 51 -26 80t-76 29q-49 0 -78 -32t-29 -83v-322h-63v494h63v-61h2q21 34 54.5 50.5t71.5 16.5q66 0 105 -41t39 -110v-349h-63zM161 572l71 162l61 -21l-96 -157z" />
<glyph unicode="&#x3af;" horiz-adv-x="203" d="M163 52q0 -14 -0.5 -27t-0.5 -26q-6 -1 -12 -1.5t-12 -0.5q-38 0 -57.5 21.5t-19.5 71.5v402h62v-394q0 -28 8 -36.5t30 -9.5h2zM68 572l71 162l61 -21l-96 -157z" />
<glyph unicode="&#x3b0;" horiz-adv-x="441" d="M217 -6q-61 0 -99.5 26t-54.5 69q-5 14 -8 35.5t-3 44.5v324h61v-318q0 -26 5 -48.5t17.5 -39.5t33 -27t51.5 -10q56 0 82 34t26 112v297h60v-261q0 -52 -2.5 -82.5t-8.5 -50.5q-14 -50 -55.5 -77.5t-104.5 -27.5zM290 592v69h63v-69h-63zM85 592v69h63v-69h-63zM164 572 l71 162l63 -21l-96 -157z" />
<glyph unicode="&#x3b1;" horiz-adv-x="438" d="M212 54q33 0 54 16t33.5 42t17 59.5t4.5 68.5q0 37 -2.5 73.5t-13 65t-32 46t-58.5 17.5t-58.5 -20t-32 -50.5t-13.5 -67t-3 -69.5q0 -38 4.5 -71t16 -57.5t31.5 -38.5t52 -14zM319 436q1 0 1 0.5t1 0.5v56h62v-493h-62v62q-1 0 -1 0.5t-1 0.5q-45 -68 -122 -68 q-49 0 -79 20t-46.5 53t-22 76t-5.5 89t5 93.5t21.5 85.5t47 62.5t82.5 24.5q36 0 66 -14t53 -49z" />
<glyph unicode="&#x3b2;" horiz-adv-x="436" d="M392 229q0 -49 -6.5 -91.5t-24 -74.5t-48 -50.5t-78.5 -18.5q-34 0 -65.5 13t-53.5 48h-1q0 -50 -0.5 -99t-0.5 -99h-61v658v33t2 32q5 66 46.5 105.5t112.5 39.5q40 0 70 -13t49 -36t28.5 -54.5t9.5 -67.5q0 -51 -16.5 -86.5t-53.5 -53.5v-1q53 -14 72 -59t19 -125z M174 383v54h45q25 0 42.5 9t27.5 24.5t14.5 36t4.5 43.5q0 24 -5 45.5t-16.5 38t-29.5 26t-45 9.5q-24 0 -41.5 -8t-28.5 -21t-17 -29.5t-8 -33.5q-3 -24 -3 -46v-296q0 -23 0.5 -46.5t5.5 -49.5q8 -36 31 -62t67 -26q36 0 57.5 15t33 40t15.5 57.5t4 67.5q0 34 -4.5 62 t-16 48t-30.5 31t-48 11h-55z" />
<glyph unicode="&#x3b3;" horiz-adv-x="383" d="M166 12q-29 102 -56 195.5t-59 192.5q-8 26 -14.5 32t-23.5 6h-5l-5 54q10 4 20 5t18 1q32 0 46 -22t25 -57q21 -70 43 -148t41 -148h5q12 44 24.5 86.5t24.5 85.5q16 51 31 100.5t31 98.5h66q-39 -119 -76 -235.5t-74 -240.5v-214h-62v208z" />
<glyph unicode="&#x3b4;" horiz-adv-x="420" d="M245 725q26 0 55 -5t57 -15q-4 -14 -7.5 -27t-8.5 -27q-24 8 -49 13t-47 5q-42 0 -71 -18.5t-29 -57.5q0 -38 28 -62t76 -47q35 -16 61 -33.5t43 -41.5q20 -27 26.5 -71.5t6.5 -98.5q0 -42 -3 -84t-22 -79q-22 -43 -63 -62.5t-88 -19.5q-98 0 -139 61q-23 38 -27.5 80 t-4.5 103q0 41 4.5 78.5t18.5 66.5t37 51t57 33q-37 23 -56.5 52.5t-19.5 68.5q0 66 45 101.5t120 35.5zM216 432q-34 -7 -59 -24t-39 -47q-11 -22 -14 -56.5t-3 -72.5q0 -42 3.5 -71t11.5 -50q11 -29 35 -45.5t62 -16.5q39 0 65.5 19.5t37.5 59.5q5 20 7 45.5t2 58.5 q0 34 -2 69t-17 64q-13 23 -34.5 40t-55.5 27z" />
<glyph unicode="&#x3b5;" horiz-adv-x="378" d="M310 111q14 -8 27 -14.5t26 -14.5q-17 -42 -56.5 -64.5t-93.5 -22.5q-82 0 -125.5 37.5t-43.5 108.5q0 15 4 32t13 33t23.5 29.5t36.5 21.5v1q-22 7 -36 18t-22 25t-11 30t-3 31q0 28 10 53t30.5 44t50.5 30t70 11q57 0 96 -23.5t56 -65.5q-13 -8 -25.5 -15.5 t-25.5 -15.5q-12 27 -39 43.5t-61 16.5q-45 0 -72 -20t-27 -60q0 -37 24.5 -55t65.5 -18h62v-55h-66q-17 0 -33.5 -6t-29.5 -17t-21 -28.5t-8 -39.5q0 -45 31 -66.5t78 -21.5q32 0 58 16t37 42z" />
<glyph unicode="&#x3b6;" horiz-adv-x="348" d="M99 197q0 -47 25 -71.5t71 -44.5l80 -35t50.5 -26t26.5 -25t8 -32q0 -29 -21 -64.5t-54 -73.5l-45 32q20 28 34.5 54.5t14.5 40.5t-13 23t-36 19q-44 18 -82 34t-65.5 37.5t-43 52.5t-15.5 78q0 41 16.5 93t50.5 110t85.5 120.5t120.5 124.5h-237v58h321v-56 q-67 -58 -121 -118t-92 -118t-58.5 -112.5t-20.5 -100.5z" />
<glyph unicode="&#x3b7;" horiz-adv-x="439" d="M323 0v328q0 51 -26 80t-76 29q-49 0 -78 -32t-29 -83v-322h-63v494h63v-61h2q21 34 54.5 50.5t71.5 16.5q66 0 105 -41t39 -110v-349h-63z" />
<glyph unicode="&#x3b8;" horiz-adv-x="421" d="M383 236q0 -43 -3 -79.5t-14 -65.5q-10 -29 -26.5 -48t-37.5 -30t-45.5 -15.5t-48.5 -4.5q-56 0 -90 22t-51 57q-15 27 -21 73.5t-6 97.5v229q0 53 6 98.5t20 71.5q19 40 55 62.5t93 22.5q55 0 89.5 -21.5t54.5 -57.5q15 -32 20 -80t5 -102v-230zM120 105q25 -55 93 -55 q32 0 56 15.5t37 47.5q8 17 11.5 51t3.5 78v109h-219v-117q0 -42 4 -75t14 -54zM321 470q0 45 -3.5 82t-11.5 57q-13 31 -37 46t-56 15q-30 0 -53 -13t-37 -41q-11 -22 -15.5 -60t-5.5 -92v-61h219v67z" />
<glyph unicode="&#x3b9;" horiz-adv-x="203" d="M163 52q0 -14 -0.5 -27t-0.5 -26q-6 -1 -12 -1.5t-12 -0.5q-38 0 -57.5 21.5t-19.5 71.5v402h62v-394q0 -28 8 -36.5t30 -9.5h2v0z" />
<glyph unicode="&#x3ba;" horiz-adv-x="423" d="M350 0l-139 258q-7 -9 -19.5 -26.5t-27 -36.5t-27 -36.5t-19.5 -26.5v-132h-62v494h62v-266h1q14 18 41.5 55t58 77.5t58 78t41.5 55.5h72l-139 -186l168 -308h-69z" />
<glyph unicode="&#x3bb;" horiz-adv-x="390" d="M56 721q23 5 40 5q30 0 50.5 -13.5t32.5 -44.5q4 -9 6.5 -19.5t6.5 -21.5q38 -134 75.5 -266t75.5 -266q8 -26 15 -35t28 -9q0 -13 0.5 -26t1.5 -25q-15 -3 -31 -3q-39 0 -56 35q-5 8 -8 18t-7 22q-14 48 -28 95t-27 95q-8 29 -16 58.5t-17 58.5h-2q-14 -45 -28.5 -89.5 t-29.5 -89.5l-69 -200h-65q42 120 82 239t82 240l-36 136q-8 26 -18.5 39t-36.5 13h-8t-9 -1z" />
<glyph unicode="&#x3bc;" horiz-adv-x="447" d="M331 59h-3q-21 -34 -54.5 -49t-70.5 -15q-51 0 -82 28v-46t-0.5 -66t-0.5 -66.5v-46.5h-63v695h63v-309q0 -57 24.5 -92.5t79.5 -35.5q29 0 49.5 11.5t33 31.5t18.5 47t6 57v290h61v-493h-61v59z" />
<glyph unicode="&#x3bd;" horiz-adv-x="382" d="M221 0h-62q-38 124 -76 246t-76 247h65l68 -227l49 -175h3l50 176q6 19 14.5 49.5t18 63.5t18.5 63.5t14 49.5h67z" />
<glyph unicode="&#x3be;" horiz-adv-x="353" d="M46 545q0 39 10.5 72t32 57t54.5 37.5t77 13.5q42 0 84 -17.5t65 -57.5q-11 -9 -22.5 -18.5t-22.5 -17.5q-25 29 -51.5 40.5t-57.5 11.5q-48 0 -76.5 -31.5t-28.5 -89.5q0 -54 30.5 -89t96.5 -35h79v-54h-96q-32 0 -54.5 -13t-37.5 -35t-22 -51t-7 -61q0 -31 6.5 -53.5 t19.5 -39.5t31.5 -28.5t42.5 -20.5q39 -14 69 -26.5t49.5 -25.5t29.5 -27t10 -32q0 -21 -13.5 -51.5t-47.5 -77.5q-12 6 -23.5 12.5t-24.5 13.5q18 30 29 51.5t11 34.5t-16 25t-38.5 22t-48.5 19t-45 18q-53 23 -79 65.5t-26 118.5q0 27 4 55t15.5 53.5t31 46t50.5 33.5 q-29 9 -46.5 26.5t-27.5 38.5t-13 44t-3 43z" />
<glyph unicode="&#x3bf;" horiz-adv-x="429" d="M217 500q50 0 83.5 -19.5t53.5 -50.5q19 -26 26 -76t7 -108q0 -18 -1 -39.5t-3.5 -43t-6 -40.5t-7.5 -32q-19 -54 -62.5 -76t-97.5 -22q-51 0 -83.5 19t-50.5 49q-20 27 -27.5 74.5t-7.5 108.5q0 48 4 89.5t15 69.5q19 47 59.5 72t98.5 25zM215 443q-32 0 -57 -14.5 t-39 -43.5q-11 -20 -14 -58.5t-3 -89.5t5 -85.5t19 -54.5q27 -47 87 -47q33 0 60 16.5t39 51.5q8 20 10 55.5t2 77.5q0 45 -3.5 78.5t-11.5 51.5q-12 31 -36.5 46.5t-57.5 15.5z" />
<glyph unicode="&#x3c0;" horiz-adv-x="451" d="M330 0v439h-209v-439h-63v494h335v-494h-63z" />
<glyph unicode="&#x3c1;" horiz-adv-x="432" d="M46 243q0 48 4.5 90.5t13.5 67.5q18 48 57.5 73t96.5 25q52 0 90 -21.5t56 -58.5q16 -32 20.5 -79.5t4.5 -101.5q0 -53 -6.5 -95t-25.5 -75q-20 -35 -53 -54.5t-81 -19.5q-38 0 -66 12.5t-48 42.5l-1 -1v-246h-62v441zM217 443q-65 0 -93 -58q-11 -22 -14 -59.5t-3 -88.5 q0 -39 2.5 -70.5t10.5 -52.5q13 -31 36.5 -48t58.5 -17q34 0 61 18t39 53q7 19 9.5 49.5t2.5 65.5q0 61 -3.5 95t-11.5 51q-12 31 -37 46.5t-58 15.5z" />
<glyph unicode="&#x3c2;" horiz-adv-x="374" d="M226 499q52 0 94 -23.5t57 -71.5l-52 -28q-14 32 -42 48t-60 16q-29 0 -50.5 -10t-36 -33.5t-21.5 -62t-7 -94.5q0 -33 3.5 -56.5t11.5 -41t21.5 -30.5t34.5 -25q37 -19 67.5 -33t52.5 -27.5t34 -29t12 -37.5q0 -28 -18 -61t-43 -65q-12 8 -24 15l-24 14q17 25 28 45.5 t11 37.5q0 28 -50 48q-57 22 -92 42t-54.5 48t-26.5 67.5t-7 99.5q2 126 44 187t137 61z" />
<glyph unicode="&#x3c3;" horiz-adv-x="434" d="M67 409q18 42 57 63t87 21h205v-53h-91q25 -17 37 -41t16 -58q2 -14 4 -44.5t2 -58.5q0 -33 -2.5 -61.5t-7.5 -55.5q-7 -35 -22.5 -59t-37.5 -39t-49 -22t-57 -7q-69 0 -106.5 31t-51.5 85q-6 25 -8.5 60.5t-2.5 72.5q0 52 6.5 94.5t21.5 71.5zM212 433q-30 0 -53.5 -13 t-37.5 -41q-11 -22 -15.5 -56.5t-5.5 -85.5q2 -47 4 -82.5t16 -58.5q11 -24 35.5 -35t56.5 -11q30 0 54.5 15t37.5 39q6 12 9.5 28t5.5 35t2.5 38.5t0.5 38.5q0 95 -24 142t-86 47z" />
<glyph unicode="&#x3c4;" horiz-adv-x="276" d="M165 438v-311q0 -33 11.5 -51t46.5 -18h31v-58h-45q-54 0 -80.5 30t-26.5 81v327h-91v56h257v-56h-103z" />
<glyph unicode="&#x3c5;" horiz-adv-x="441" d="M217 -6q-61 0 -99.5 26t-54.5 69q-5 14 -8 35.5t-3 44.5v324h61v-318q0 -26 5 -48.5t17.5 -39.5t33 -27t51.5 -10q56 0 82 34t26 112v297h60v-261q0 -52 -2.5 -82.5t-8.5 -50.5q-14 -50 -55.5 -77.5t-104.5 -27.5z" />
<glyph unicode="&#x3c6;" horiz-adv-x="519" d="M290 50q45 2 77.5 21t43.5 60q5 20 6 48t1 63q0 43 -2 77.5t-8 51.5q-11 34 -42 52t-76 19v-392zM480 240q0 -29 -1.5 -59t-7.5 -57q-12 -65 -61 -96.5t-120 -33.5v-191h-63v191q-68 3 -111.5 27t-63.5 81q-8 23 -10 62t-2 79q0 53 4.5 99t21.5 76q14 23 34.5 41t49.5 28 l20 -54q-44 -17 -59 -68q-7 -25 -8.5 -63t-1.5 -72t2 -61t11 -50q13 -33 42 -50.5t71 -19.5v450h69q65 0 104 -24t57 -62q15 -32 19 -75.5t4 -97.5z" />
<glyph unicode="&#x3c7;" horiz-adv-x="381" d="M298 0l-107 205l-108 -205h-70l142 254l-135 240h71l100 -195l99 195h71l-136 -241l143 -253h-70z" />
<glyph unicode="&#x3c8;" horiz-adv-x="539" d="M488 161q0 -39 -14.5 -69t-39.5 -51.5t-59 -33.5t-74 -13v-196h-63v196q-40 1 -74 13.5t-58.5 33.5t-38.5 50.5t-14 65.5v336h62v-327q0 -48 33 -79.5t90 -33.5v450h63v-450q54 2 89 32t35 82v326h63v-332v0z" />
<glyph unicode="&#x3c9;" horiz-adv-x="642" d="M461 498q45 -4 73.5 -23t44.5 -51.5t22 -78.5t6 -104q0 -55 -7 -100.5t-25 -78t-49.5 -50.5t-80.5 -18q-33 0 -68.5 16t-55.5 55h-2q-21 -37 -52 -54t-69 -17q-51 0 -82.5 18.5t-49 51.5t-23.5 79t-6 101q0 59 7 104.5t23.5 77t45 49.5t72.5 23q2 -15 3 -29.5t2 -28.5 q-25 -4 -42 -16t-27.5 -35.5t-15.5 -60.5t-5 -91q0 -94 20.5 -139.5t77.5 -45.5q29 0 46.5 11.5t27 30t12.5 42.5t3 49v169h63v-174q0 -24 4 -47.5t15 -41.5t29 -29t47 -11q56 0 77.5 46t21.5 138q0 53 -4.5 90.5t-15 61.5t-27.5 36.5t-42 16.5z" />
<glyph unicode="&#x3ca;" horiz-adv-x="203" d="M163 52q0 -14 -0.5 -27t-0.5 -26q-6 -1 -12 -1.5t-12 -0.5q-38 0 -57.5 21.5t-19.5 71.5v402h62v-394q0 -28 8 -36.5t30 -9.5h2zM146 595v68h63v-68h-63zM-22 595v68h65v-68h-65z" />
<glyph unicode="&#x3cb;" horiz-adv-x="441" d="M217 -6q-61 0 -99.5 26t-54.5 69q-5 14 -8 35.5t-3 44.5v324h61v-318q0 -26 5 -48.5t17.5 -39.5t33 -27t51.5 -10q56 0 82 34t26 112v297h60v-261q0 -52 -2.5 -82.5t-8.5 -50.5q-14 -50 -55.5 -77.5t-104.5 -27.5zM270 595v68h63v-68h-63zM102 595v68h65v-68h-65z" />
<glyph unicode="&#x3cc;" horiz-adv-x="429" d="M217 500q50 0 83.5 -19.5t53.5 -50.5q19 -26 26 -76t7 -108q0 -18 -1 -39.5t-3.5 -43t-6 -40.5t-7.5 -32q-19 -54 -62.5 -76t-97.5 -22q-51 0 -83.5 19t-50.5 49q-20 27 -27.5 74.5t-7.5 108.5q0 48 4 89.5t15 69.5q19 47 59.5 72t98.5 25zM215 443q-32 0 -57 -14.5 t-39 -43.5q-11 -20 -14 -58.5t-3 -89.5t5 -85.5t19 -54.5q27 -47 87 -47q33 0 60 16.5t39 51.5q8 20 10 55.5t2 77.5q0 45 -3.5 78.5t-11.5 51.5q-12 31 -36.5 46.5t-57.5 15.5zM179 572l71 162l61 -21l-96 -157z" />
<glyph unicode="&#x3cd;" horiz-adv-x="441" d="M217 -6q-61 0 -99.5 26t-54.5 69q-5 14 -8 35.5t-3 44.5v324h61v-318q0 -26 5 -48.5t17.5 -39.5t33 -27t51.5 -10q56 0 82 34t26 112v297h60v-261q0 -52 -2.5 -82.5t-8.5 -50.5q-14 -50 -55.5 -77.5t-104.5 -27.5zM184 572l71 162l61 -21l-96 -157z" />
<glyph unicode="&#x3ce;" horiz-adv-x="642" d="M461 498q45 -4 73.5 -23t44.5 -51.5t22 -78.5t6 -104q0 -55 -7 -100.5t-25 -78t-49.5 -50.5t-80.5 -18q-33 0 -68.5 16t-55.5 55h-2q-21 -37 -52 -54t-69 -17q-51 0 -82.5 18.5t-49 51.5t-23.5 79t-6 101q0 59 7 104.5t23.5 77t45 49.5t72.5 23q2 -15 3 -29.5t2 -28.5 q-25 -4 -42 -16t-27.5 -35.5t-15.5 -60.5t-5 -91q0 -94 20.5 -139.5t77.5 -45.5q29 0 46.5 11.5t27 30t12.5 42.5t3 49v169h63v-174q0 -24 4 -47.5t15 -41.5t29 -29t47 -11q56 0 77.5 46t21.5 138q0 53 -4.5 90.5t-15 61.5t-27.5 36.5t-42 16.5zM284 572l71 162l61 -21 l-96 -157z" />
<glyph unicode="&#x401;" horiz-adv-x="449" d="M65 0v696h362v-60h-298v-253h256v-58h-256v-263h298v-62h-362zM292 748v67h64v-67h-64zM127 748v67h65v-67h-65z" />
<glyph unicode="&#x402;" horiz-adv-x="591" d="M381 471q88 0 127.5 -57.5t39.5 -181.5q0 -61 -11.5 -108.5t-36 -79t-64 -46t-95.5 -11.5v52q41 0 68.5 12.5t44 36.5t23.5 59.5t7 81.5q0 41 -4.5 74.5t-17 57t-35 36.5t-57.5 13q-43 0 -79 -18t-62 -45v-347h-64v638h-160v57h435v-57h-211v-226h2q35 28 74.5 43.5 t75.5 15.5z" />
<glyph unicode="&#x403;" horiz-adv-x="435" d="M130 636v-636h-65v696h356v-60h-291zM169 758l138 113l45 -48l-157 -96z" />
<glyph unicode="&#x404;" horiz-adv-x="462" d="M439 126q-18 -65 -69 -98.5t-120 -33.5q-95 0 -147.5 52.5t-52.5 152.5v299q0 44 13 81t38.5 64t63 42.5t85.5 15.5q69 0 119.5 -33t68.5 -96l-61 -24q-11 43 -44 67.5t-83 24.5q-33 0 -58.5 -11t-43 -30.5t-26 -45.5t-8.5 -55v-116h229v-60h-229v-126q0 -29 9 -54.5 t26 -45t42.5 -31t58.5 -11.5q48 0 82 24.5t46 70.5z" />
<glyph unicode="&#x405;" horiz-adv-x="471" d="M437 186q0 -88 -52.5 -140.5t-150.5 -52.5q-79 0 -130.5 31.5t-77.5 85.5l57 33q21 -37 58 -62.5t94 -25.5q70 0 102 36.5t32 94.5q0 32 -9.5 54t-27 37.5t-42.5 26.5t-56 21q-51 15 -87 32t-59 39t-33.5 51t-10.5 68q0 41 13.5 75.5t38.5 59t61 38.5t82 14 q76 0 119.5 -25t68.5 -66l-56 -38q-20 35 -52 51.5t-83 16.5q-62 0 -94 -36.5t-32 -89.5q0 -29 11.5 -49.5t32.5 -35t49.5 -26t63.5 -22.5q45 -14 77 -31t52.5 -40t30.5 -53.5t10 -71.5z" />
<glyph unicode="&#x406;" horiz-adv-x="206" d="M70 0v696h65v-696h-65z" />
<glyph unicode="&#x407;" horiz-adv-x="206" d="M70 0v696h65v-696h-65zM156 774v68h63v-68h-63zM-12 774v68h65v-68h-65z" />
<glyph unicode="&#x408;" horiz-adv-x="396" d="M328 176q0 -48 -14.5 -82.5t-40 -56.5t-59.5 -32.5t-73 -10.5q-40 0 -76.5 14.5t-59.5 42.5l46 43q17 -17 40.5 -28t47.5 -11q25 0 47.5 6.5t39.5 21t26.5 38.5t9.5 60v515h66v-520z" />
<glyph unicode="&#x409;" horiz-adv-x="775" d="M355 638h-177v-313q0 -87 -9 -145.5t-27.5 -96.5t-46.5 -60.5t-65 -38.5l-23 51q26 15 46.5 31.5t34.5 45.5t21.5 77t7.5 125v382h303v-302h135q53 0 90 -15.5t60.5 -41.5t34.5 -61t11 -74q0 -98 -51.5 -150t-148.5 -52h-196v638zM685 200q0 28 -7.5 52.5t-23.5 43 t-41.5 29t-62.5 10.5h-130v-275h129q71 0 103.5 37.5t32.5 102.5z" />
<glyph unicode="&#x40a;" horiz-adv-x="780" d="M362 0v330h-233v-330h-65v696h65v-306h233v306h66v-306h127q53 0 91.5 -13.5t63 -38.5t36.5 -60t12 -78q0 -98 -51 -149t-148 -51h-197zM428 60h129q70 0 102.5 36t32.5 102q0 28 -7.5 52t-24 41.5t-43 27.5t-63.5 10h-126v-269z" />
<glyph unicode="&#x40b;" horiz-adv-x="596" d="M233 0h-65v639h-161v57h441v-57h-215v-220l2 -2q39 32 76 42.5t72 10.5q81 0 121 -43.5t40 -118.5l1 -308h-65v277q0 28 -5 52.5t-18 42.5t-34 28t-54 10q-42 0 -77 -17.5t-59 -45.5v-347z" />
<glyph unicode="&#x40c;" horiz-adv-x="490" d="M63 0v695h65v-309h93q17 0 35 4t34.5 15t31 32t23.5 54l58 204h61l-54 -202q-14 -51 -37 -85.5t-58 -45.5q45 -13 67 -49t35 -88l59 -225h-67l-55 217q-9 35 -22 57t-29.5 34t-35 16t-38.5 4h-101v-328h-65zM198 758l139 112l44 -48l-156 -95z" />
<glyph unicode="&#x40e;" horiz-adv-x="447" d="M432 695q-45 -137 -89 -273.5t-89 -273.5q-16 -49 -32 -79t-34 -46.5t-37.5 -22t-41.5 -5.5h-43v56h36q25 0 45.5 17t35.5 62q3 10 6 18.5t5 18.5q-45 133 -89.5 264t-89.5 264h66q8 -25 20 -61t25.5 -77t28 -85t28 -85t24.5 -75.5t19 -56.5h3q7 20 18 54.5t24 76.5 t27 87.5t27 87.5t24 77.5t18 56.5h65zM151 824q3 -26 24.5 -47.5t52.5 -21.5q16 0 30 6t24.5 15.5t17 22t7.5 25.5h52q-2 -19 -10 -40t-23 -38.5t-39 -29t-59 -11.5t-59 11.5t-39.5 29t-23 38.5t-8.5 40h53z" />
<glyph unicode="&#x40f;" horiz-adv-x="519" d="M456 696v-696h-163l1 -153h-69l1 153h-161v696h64v-635h261v635h66z" />
<glyph unicode="&#x410;" horiz-adv-x="489" d="M412 0l-47 167h-242l-47 -167h-66l203 696h63l203 -696h-67zM289 440l-43 162h-4q-2 -8 -8 -31t-13 -50t-13.5 -50.5t-8.5 -30.5q-3 -12 -12 -42.5t-18.5 -65t-18.5 -65t-13 -42.5h213z" />
<glyph unicode="&#x411;" horiz-adv-x="481" d="M56 0v696h347v-60h-283v-242h132q53 0 90.5 -14.5t61.5 -40.5t35.5 -61.5t11.5 -76.5q0 -98 -51.5 -149.5t-148.5 -51.5h-195zM385 200q0 28 -7.5 52.5t-24 42.5t-42 28.5t-62.5 10.5h-129v-273h130q70 0 102.5 36.5t32.5 102.5z" />
<glyph unicode="&#x412;" horiz-adv-x="502" d="M462 197q0 -98 -50.5 -147.5t-133.5 -49.5h-213v696h200q95 0 140 -49t45 -130q0 -48 -19 -88t-74 -64v-3q28 -7 48 -23.5t33 -38.5t18.5 -48.5t5.5 -54.5zM129 638v-248h132q64 0 94.5 34t30.5 91q0 56 -31.5 89.5t-97.5 33.5h-128zM129 333v-271h140q36 0 60.5 11 t39.5 30t21.5 44.5t6.5 54.5q0 57 -30 94t-96 37h-142z" />
<glyph unicode="&#x413;" horiz-adv-x="435" d="M130 636v-636h-65v696h356v-60h-291z" />
<glyph unicode="&#x414;" horiz-adv-x="577" d="M73 -141h-61v192l39 6q22 16 37 40t24 63t14 96.5t8 140.5l9 299h362v-640h47v-197h-61v141h-418v-141zM202 639l-9 -263q-2 -59 -6 -108t-10.5 -89t-17.5 -70.5t-27 -53.5h308v584h-238z" />
<glyph unicode="&#x415;" horiz-adv-x="449" d="M65 0v696h362v-60h-298v-253h256v-58h-256v-263h298v-62h-362z" />
<glyph unicode="&#x416;" horiz-adv-x="764" d="M350 697h65v-311h78q17 0 35 3.5t35 15t31 32t23 54.5l58 204h60l-53 -202q-14 -51 -37.5 -85.5t-58.5 -45.5q45 -13 67.5 -49t35.5 -88l59 -225h-68l-55 217q-9 35 -22 57t-29.5 34t-35 16t-37.5 4h-86v-328h-65v328h-86q-20 0 -38.5 -4t-35 -16t-29.5 -34t-22 -57 l-55 -217h-66l58 225q14 52 36 88t66 49q-34 11 -57.5 45.5t-36.5 85.5l-55 202h61l57 -204q9 -34 23.5 -54.5t31.5 -32t35 -15t35 -3.5h78v311z" />
<glyph unicode="&#x417;" horiz-adv-x="464" d="M211 -6q-38 0 -71 9t-59 27.5t-43.5 46t-23.5 64.5q3 1 11.5 4t18.5 6.5t18.5 6.5t11.5 4q11 -56 49 -83.5t89 -27.5q65 0 101 37t37 111q0 68 -31 104t-83 36h-65v56h62q53 0 82 35.5t29 94.5q0 30 -9.5 51.5t-26 36t-39.5 21.5t-49 7q-51 0 -88 -29t-48 -77l-61 21 q7 34 25.5 61t44.5 46t58.5 28.5t69.5 9.5q91 0 139 -44.5t48 -129.5q0 -18 -4 -41.5t-13.5 -46t-25.5 -41t-41 -28.5v-3q31 -12 49 -32.5t27.5 -44.5t12 -48t2.5 -43q0 -97 -53 -151t-151 -54z" />
<glyph unicode="&#x418;" horiz-adv-x="548" d="M63 0v696h63v-574l4 -1l296 575h62v-696h-64v575h-3l-296 -575h-62z" />
<glyph unicode="&#x419;" horiz-adv-x="548" d="M200 862q3 -26 24 -47.5t53 -21.5q34 0 55 21.5t23 47.5h52q-2 -20 -10 -41t-23 -38t-39 -28.5t-58 -11.5q-35 0 -59.5 11.5t-40 29t-23 38.5t-8.5 40h54zM63 0v696h63v-574l4 -1l296 575h62v-696h-64v575h-3l-296 -575h-62z" />
<glyph unicode="&#x41a;" horiz-adv-x="490" d="M63 0v695h65v-309h93q17 0 35 4t34.5 15t31 32t23.5 54l58 204h61l-54 -202q-14 -51 -37 -85.5t-58 -45.5q45 -13 67 -49t35 -88l59 -225h-67l-55 217q-9 35 -22 57t-29.5 34t-35 16t-38.5 4h-101v-328h-65z" />
<glyph unicode="&#x41b;" horiz-adv-x="535" d="M404 637h-228v-312q0 -88 -9 -146.5t-27.5 -97t-47.5 -60t-68 -36.5l-12 24t-11 25q27 16 48.5 33t36 46.5t22 76.5t7.5 123v383h353v-696h-64v637z" />
<glyph unicode="&#x41c;" horiz-adv-x="647" d="M523 0v538l-3 -1l-79 -190l-93 -211h-46q-5 13 -18 43t-28 63.5t-28 63.5t-19 43l-77 187l-4 -1v-535h-63v696h65q4 -11 13 -31.5t20 -46.5t23.5 -53.5t23.5 -53.5t20 -46.5t14 -31.5l81 -194h2l83 196l113 261h64v-696h-64z" />
<glyph unicode="&#x41d;" horiz-adv-x="526" d="M395 0v325h-266v-325h-64v696h64v-313h266v313h66v-696h-66z" />
<glyph unicode="&#x41e;" horiz-adv-x="491" d="M446 199q0 -46 -14.5 -83.5t-41 -64.5t-63 -42t-81.5 -15q-52 0 -90 16.5t-63 45.5t-37 68t-12 83v293q0 38 12 74t36.5 64.5t62.5 45.5t91 17q49 0 86 -16.5t62.5 -44t38.5 -64t13 -76.5v-301zM380 499q0 23 -7.5 48t-23.5 45.5t-41.5 34t-61.5 13.5t-62 -12.5 t-43 -32.5t-25 -45.5t-8 -50.5v-293q0 -33 8.5 -61t26 -48.5t43.5 -32t61 -11.5q28 0 52.5 10.5t42.5 29.5t28 45t10 56v305z" />
<glyph unicode="&#x41f;" horiz-adv-x="521" d="M391 0v639h-262v-639h-64v696h392v-696h-66z" />
<glyph unicode="&#x420;" horiz-adv-x="478" d="M460 492q0 -40 -10.5 -77t-34 -65t-60.5 -45t-90 -17h-135v-288h-65v696h196q96 0 147.5 -50.5t51.5 -153.5zM395 493q0 67 -33 105t-103 38h-129v-287h130q38 0 64 11.5t41.5 31t22.5 46t7 55.5z" />
<glyph unicode="&#x421;" horiz-adv-x="463" d="M439 130q-16 -67 -68 -101.5t-121 -34.5q-46 0 -83 15t-63 41.5t-40 64t-14 82.5v302q0 44 13.5 81t39.5 64t63 42t84 15q69 0 120.5 -34.5t68.5 -98.5l-62 -23q-10 45 -43 70t-84 25q-32 0 -57.5 -11t-43 -30t-26.5 -44.5t-9 -54.5v-305q0 -29 9.5 -55t27 -45t42.5 -30 t57 -11q49 0 83 25t45 73z" />
<glyph unicode="&#x422;" horiz-adv-x="401" d="M233 637v-637h-64v637h-166v59h394v-59h-164z" />
<glyph unicode="&#x423;" horiz-adv-x="447" d="M432 695q-45 -137 -89 -273.5t-89 -273.5q-16 -49 -32 -79t-34 -46.5t-37.5 -22t-41.5 -5.5h-43v56h36q25 0 45.5 17t35.5 62q3 10 6 18.5t5 18.5q-45 133 -89.5 264t-89.5 264h66q8 -25 20 -61t25.5 -77t28 -85t28 -85t24.5 -75.5t19 -56.5h3q7 20 18 54.5t24 76.5 t27 87.5t27 87.5t24 77.5t18 56.5h65v0z" />
<glyph unicode="&#x424;" horiz-adv-x="609" d="M271 599q-48 -2 -79.5 -19.5t-50 -48.5t-26.5 -74.5t-8 -96.5q1 -125 38.5 -182.5t125.5 -61.5v483zM337 116q87 5 125.5 63t38.5 180q0 55 -9 98.5t-28.5 74.5t-50.5 48t-76 19v-483zM335 0h-63v57q-63 1 -106.5 23t-70.5 62t-39 95t-12 122q0 66 12 119.5t39 92.5 t70.5 61.5t106.5 26.5v37h63v-37q64 -3 108.5 -27t72 -64t39.5 -93.5t12 -115.5q0 -140 -56 -216.5t-176 -85.5v-57z" />
<glyph unicode="&#x425;" horiz-adv-x="437" d="M360 0l-141 296l-142 -296h-71l178 359l-167 337h70l132 -278l130 278h71l-168 -337l179 -359h-71z" />
<glyph unicode="&#x426;" horiz-adv-x="531" d="M447 0h-382v696h65v-636h264v636h65v-637h49v-200h-61v141z" />
<glyph unicode="&#x427;" horiz-adv-x="499" d="M108 696v-190q0 -87 29.5 -126t103.5 -39q21 0 58.5 9t70.5 29v317h65v-696h-65l-1 322q-34 -17 -70.5 -26.5t-71.5 -9.5q-44 0 -78 12t-57 38t-35 66.5t-12 98.5v195h63z" />
<glyph unicode="&#x428;" horiz-adv-x="764" d="M702 696v-696h-639v696h64v-635h221v635h65v-635h224v635h65z" />
<glyph unicode="&#x429;" horiz-adv-x="776" d="M691 0h-629v696h65v-635h220v635h66v-635h223v635h65v-636h51v-201h-61v141z" />
<glyph unicode="&#x42a;" horiz-adv-x="609" d="M191 0v636h-180v60h244v-301h135q52 0 89 -15t61 -41t35 -61.5t11 -76.5q0 -100 -51.5 -150.5t-147.5 -50.5h-196zM255 60h131q69 0 102 37t33 103q0 59 -32.5 96.5t-106.5 37.5h-127v-274z" />
<glyph unicode="&#x42b;" horiz-adv-x="654" d="M68 0v696h64v-302h132q53 0 90.5 -14.5t61.5 -40.5t35 -61.5t11 -76.5q0 -98 -51 -149.5t-148 -51.5h-195zM525 0v696h65v-696h-65zM397 200q0 27 -7.5 51.5t-24 43t-42.5 29t-62 10.5h-129v-274h130q69 0 102 37t33 103z" />
<glyph unicode="&#x42c;" horiz-adv-x="475" d="M55 0v696h65v-301h131q53 0 91 -15t62 -41t35.5 -61.5t11.5 -76.5q0 -98 -51.5 -149.5t-148.5 -51.5h-196zM120 60h129q71 0 103 37t32 103q0 59 -33 96.5t-104 37.5h-127v-274z" />
<glyph unicode="&#x42d;" horiz-adv-x="465" d="M83 153q12 -49 44.5 -74.5t80.5 -25.5q37 0 63 13t42.5 34.5t23.5 50t7 58.5v117h-212v60h212v99q0 33 -7.5 61.5t-23.5 50t-41 33.5t-61 12q-49 0 -82.5 -27t-45.5 -72l-61 22q17 64 67 100.5t124 36.5q55 0 92.5 -17t60 -46.5t32.5 -68t10 -81.5v-283 q0 -47 -12.5 -86.5t-37.5 -67.5t-62.5 -43.5t-87.5 -15.5q-73 0 -121.5 36t-65.5 102z" />
<glyph unicode="&#x42e;" horiz-adv-x="643" d="M597 191q0 -48 -14 -84.5t-39.5 -61.5t-60.5 -38t-77 -13q-51 0 -87 15.5t-59.5 43t-34.5 65t-11 81.5v126h-89v-325h-65v696h65v-314h89v123q0 38 11 73.5t34.5 62.5t60 43.5t86.5 16.5q49 0 85 -15.5t59.5 -42t35 -62.5t11.5 -76v-314zM531 503q0 24 -6.5 48t-21 44 t-38.5 32.5t-59 12.5t-59.5 -12t-40 -31t-22.5 -44t-7 -50l1 -303q0 -66 31.5 -106.5t97.5 -40.5q54 0 89 34t35 99v317z" />
<glyph unicode="&#x42f;" horiz-adv-x="511" d="M119 499q0 -66 37.5 -95t99.5 -29h126v263h-126q-67 0 -102 -37t-35 -102zM382 318h-114q-18 0 -37 -4.5t-35.5 -17t-30 -34.5t-22.5 -57l-49 -205h-67l51 213q11 45 28.5 76t54.5 47q-30 9 -50.5 25t-32.5 37.5t-17.5 47.5t-5.5 53q0 89 48.5 143t141.5 54h201v-696h-64 v318z" />
<glyph unicode="&#x430;" horiz-adv-x="418" d="M305 42q-20 -27 -54 -37.5t-73 -10.5q-71 0 -107.5 40.5t-36.5 101.5q0 31 9.5 59t29.5 48t51 32t74 12h110v68q0 40 -24.5 63t-74.5 23q-34 0 -62 -11.5t-43 -37.5q-11 6 -24 15t-24 16q21 36 60 56.5t93 20.5q34 0 64 -7t52 -24t34.5 -45t12.5 -70v-354h-64v41z M308 232h-112q-45 0 -74 -22t-29 -70q0 -39 26 -63.5t77 -24.5q22 0 42 5t35.5 15.5t25 28t9.5 43.5v88z" />
<glyph unicode="&#x431;" horiz-adv-x="428" d="M229 480q53 0 86 -20.5t50 -58.5q14 -32 18.5 -77.5t4.5 -92.5q0 -51 -6 -85.5t-21 -64.5q-22 -48 -63 -68t-87 -20q-54 0 -89 20.5t-53 55.5q-29 54 -29 187q0 22 1 46.5t2 46.5t2 40t3 29q4 54 15 94.5t29.5 70t44 50t59.5 35.5q32 15 66.5 27t81.5 31l18 -47 q-28 -13 -51.5 -22t-44.5 -17t-39.5 -17t-36.5 -21q-47 -32 -64.5 -77.5t-21.5 -110.5q2 0 2 -1q23 35 57 51t66 16zM219 423q-35 0 -59 -16t-37 -45q-12 -24 -16 -59t-4 -76q0 -40 3 -69.5t13 -51.5q13 -28 36 -42t60 -14q31 0 55 14t38 43q18 34 18 127q0 38 -3 73.5 t-10 54.5q-11 29 -33 45t-61 16z" />
<glyph unicode="&#x432;" horiz-adv-x="418" d="M386 144q0 -38 -12.5 -65t-33.5 -44.5t-49 -26t-60 -8.5h-179v493h183q72 0 107 -36t35 -95q0 -32 -13.5 -59.5t-48.5 -44.5h1q20 -7 33.5 -19.5t21.5 -27.5t11.5 -32.5t3.5 -34.5zM315 361q0 36 -26.5 56t-72.5 20h-102v-155h100q42 0 71.5 18.5t29.5 60.5zM324 146 q0 37 -22.5 59.5t-74.5 22.5h-113v-171h106q48 0 76 20.5t28 68.5z" />
<glyph unicode="&#x433;" horiz-adv-x="363" d="M114 439v-439h-62v494h301v-55h-239z" />
<glyph unicode="&#x434;" horiz-adv-x="487" d="M74 -129h-60v178l37 6q16 12 26.5 27.5t17 40t10.5 62t8 92.5l9 216h299v-438h41v-184h-60v129h-328v-129zM179 439q-2 -63 -5 -123t-8 -111t-14.5 -90t-24.5 -60h232v384h-180z" />
<glyph unicode="&#x435;" horiz-adv-x="416" d="M366 85q-19 -43 -58 -67t-88 -24q-53 0 -88 15.5t-56 47.5t-30 80t-9 113q0 47 7 92t26.5 80t53 56.5t86.5 21.5q45 0 77.5 -15.5t53 -43t30 -65.5t9.5 -83v-62h-281q0 -41 5 -74t18.5 -57t36 -37t58.5 -13q32 0 58 18t38 44zM317 284q0 34 -4.5 63t-16 50t-32 32.5 t-53.5 11.5q-32 0 -53 -12t-33.5 -33.5t-17.5 -50.5t-6 -63h216v2z" />
<glyph unicode="&#x436;" horiz-adv-x="632" d="M284 275v218h62v-218h63q14 0 28 2.5t26.5 10t23 22t17.5 37.5q1 6 7.5 27t13.5 46t13 46t8 27h60q-3 -9 -8.5 -29t-11.5 -42t-12 -42t-9 -29q-11 -36 -27 -61t-43 -33q34 -8 49.5 -34t25.5 -62l46 -161h-63l-39 145q-13 49 -37 63.5t-58 14.5h-73v-223h-62v223h-72 q-17 0 -31.5 -3t-26.5 -11.5t-21.5 -24t-16.5 -39.5l-39 -145h-62l45 161q10 36 25.5 62t49.5 34q-27 8 -43 33t-27 61l-41 142h60l42 -146q7 -23 17.5 -37.5t23 -22t26.5 -10t28 -2.5h63z" />
<glyph unicode="&#x437;" horiz-adv-x="384" d="M273 258q42 -18 56 -47.5t14 -67.5q0 -72 -46.5 -110.5t-122.5 -38.5q-56 0 -100 20.5t-62 67.5l50 27q11 -29 42 -44t69 -15q45 0 76 23t31 71q0 45 -24.5 66t-62.5 21h-59v52h60q37 0 59 20.5t22 59.5q0 38 -25.5 58t-67.5 20q-38 0 -67 -14t-42 -44l-48 28 q17 44 60 66t95 22q79 0 118.5 -35.5t39.5 -96.5q0 -15 -3.5 -31t-11 -31t-20 -27.5t-30.5 -19.5z" />
<glyph unicode="&#x438;" horiz-adv-x="478" d="M357 0v378h-3l-100 -158l-138 -220h-60v492h64v-385h1l103 165q40 64 76.5 123t60.5 97h60v-492h-64z" />
<glyph unicode="&#x439;" horiz-adv-x="478" d="M357 0v378h-3l-100 -158l-138 -220h-60v492h64v-385h1l103 165q40 64 76.5 123t60.5 97h60v-492h-64zM368 690q-2 -19 -10 -40t-23.5 -38.5t-39.5 -29t-59 -11.5t-59 11.5t-40 29t-24 38.5t-9 40h54q2 -13 8.5 -25.5t17 -22.5t24 -16t29.5 -6q35 0 56 21.5t23 48.5h52z " />
<glyph unicode="&#x43a;" horiz-adv-x="409" d="M48 0v494h62v-219h74q14 0 28 2.5t26.5 10.5t23 22t17.5 38l42 146h60l-41 -143q-11 -36 -27 -60.5t-43 -32.5q34 -8 49.5 -34t25.5 -63l46 -161h-63l-40 145q-7 24 -16 39.5t-21 24t-26.5 11.5t-31.5 3h-83v-223h-62z" />
<glyph unicode="&#x43b;" horiz-adv-x="440" d="M27 -15q-5 11 -11 24.5t-11 24.5q26 14 43 29t27.5 40.5t14.5 65t4 103.5v221h292v-493h-63v439h-170v-200q0 -60 -7.5 -102.5t-22.5 -72.5t-39 -48.5t-57 -30.5z" />
<glyph unicode="&#x43c;" horiz-adv-x="540" d="M429 0v362l-48 -97l-26 -50t-25 -48t-21.5 -42.5t-15.5 -31.5h-42q-17 32 -33.5 65t-33.5 65l-68 136h-1v-359h-63v493h61q23 -45 45.5 -89t45.5 -89l69 -137l75 150q24 48 47 92.5t37 72.5h60v-493h-63z" />
<glyph unicode="&#x43d;" horiz-adv-x="437" d="M322 0v225h-207v-225h-63v494h63v-216h207v216h64v-494h-64z" />
<glyph unicode="&#x43e;" horiz-adv-x="429" d="M217 500q50 0 83.5 -19.5t53.5 -50.5q19 -26 26 -76t7 -108q0 -18 -1 -39.5t-3.5 -43t-6 -40.5t-7.5 -32q-19 -54 -62.5 -76t-97.5 -22q-51 0 -83.5 19t-50.5 49q-20 27 -27.5 74.5t-7.5 108.5q0 48 4 89.5t15 69.5q19 47 59.5 72t98.5 25zM215 443q-32 0 -57 -14.5 t-39 -43.5q-11 -20 -14 -58.5t-3 -89.5t5 -85.5t19 -54.5q27 -47 87 -47q33 0 60 16.5t39 51.5q8 20 10 55.5t2 77.5q0 45 -3.5 78.5t-11.5 51.5q-12 31 -36.5 46.5t-57.5 15.5z" />
<glyph unicode="&#x43f;" horiz-adv-x="451" d="M330 0v439h-209v-439h-63v494h335v-494h-63z" />
<glyph unicode="&#x440;" horiz-adv-x="427" d="M109 436q23 35 54 49.5t67 14.5q51 0 81.5 -21t46 -55.5t20.5 -80t5 -94.5q0 -47 -5.5 -92.5t-22.5 -81.5t-48.5 -58t-83.5 -22q-38 0 -65 15t-49 43h-2v-254h-62v694h62v-56q1 0 2 -1zM211 55q37 0 58.5 16t32.5 43t14.5 61.5t3.5 71.5q0 39 -3.5 74.5t-14.5 62t-32 42 t-57 15.5q-39 0 -60.5 -18.5t-31.5 -47t-12 -62.5t-2 -65q0 -30 2 -64t12.5 -62.5t31 -47.5t58.5 -19z" />
<glyph unicode="&#x441;" horiz-adv-x="379" d="M307 110q13 -8 26 -14.5l27 -13.5q-18 -42 -56 -65t-91 -23q-56 0 -91 19.5t-55 54t-27.5 82.5t-7.5 104q0 52 9.5 97t31 78t56.5 52t86 19q54 0 90.5 -23.5t55.5 -65.5l-53 -31q-11 28 -35 44.5t-57 16.5q-39 0 -63 -15.5t-36.5 -41.5t-17 -60t-4.5 -71t4 -73t17 -64.5 t36.5 -46t61.5 -17.5q34 0 58 16.5t35 41.5z" />
<glyph unicode="&#x442;" horiz-adv-x="334" d="M198 439v-439h-63v439h-134v54h332v-54h-135z" />
<glyph unicode="&#x443;" horiz-adv-x="375" d="M191 98q6 21 15 52t20 68t22.5 76.5t22.5 76.5t20.5 68.5t15.5 53.5h65l-183 -598q-30 -98 -118 -98h-23v54h20q29 0 44.5 19.5t25.5 55.5l24 80q-41 122 -79.5 243t-79.5 244h67q16 -53 32 -104.5t32 -103.5q4 -15 11.5 -40.5t16 -53t15.5 -53t12 -40.5h2z" />
<glyph unicode="&#x444;" horiz-adv-x="517" d="M287 48q40 2 70.5 18t43.5 48q10 20 12 53.5t2 67.5q0 46 -3.5 84t-13.5 61q-14 32 -44.5 45.5t-66.5 15.5v-393zM226 -7q-25 2 -48 5.5t-42.5 11t-36 20.5t-28.5 33q-20 32 -27 77t-7 104q0 47 5 86t17 69q20 49 63.5 74.5t103.5 26.5v206h61q0 -51 0.5 -102.5 t0.5 -103.5q61 -2 101.5 -25t60.5 -62q16 -32 21 -75.5t5 -94.5t-6 -97.5t-27 -78.5q-23 -36 -63 -54t-92 -20q0 -48 -0.5 -95t-0.5 -95h-61v190zM225 48q0 99 0.5 196.5t0.5 196.5q-36 -1 -66 -15.5t-44 -43.5q-10 -20 -13.5 -58.5t-3.5 -86.5q0 -45 4 -79t16 -56 q15 -26 43 -39t63 -15z" />
<glyph unicode="&#x445;" horiz-adv-x="381" d="M298 0l-107 205l-108 -205h-70l142 254l-135 240h71l100 -195l99 195h71l-136 -241l143 -253h-70z" />
<glyph unicode="&#x446;" horiz-adv-x="453" d="M374 0h-322v493h63v-436h209v436h62v-436h47v-186h-59v129z" />
<glyph unicode="&#x447;" horiz-adv-x="410" d="M299 0v222q-30 -18 -66 -28t-65 -10q-65 0 -101.5 33.5t-36.5 107.5v169h62v-157q0 -50 22.5 -72.5t68.5 -22.5q24 0 57 9.5t60 28.5v214h62v-494h-63z" />
<glyph unicode="&#x448;" horiz-adv-x="664" d="M611 494v-494h-557v494h62v-436h183v436h63v-436h187v436h62z" />
<glyph unicode="&#x449;" horiz-adv-x="682" d="M548 493h61v-436h47v-180h-58v123h-545v493h61v-436h185v436h62v-436h187v436z" />
<glyph unicode="&#x44a;" horiz-adv-x="511" d="M221 57h108q51 0 75 25.5t24 66.5q0 35 -23 60.5t-79 25.5l-105 1v-179zM157 0v439h-147v55h211v-201h108q46 0 77 -11.5t50 -31t27.5 -45.5t8.5 -55q0 -68 -38 -109t-125 -41h-172z" />
<glyph unicode="&#x44b;" horiz-adv-x="552" d="M434 0v494h63v-494h-63zM114 57h103q55 0 79.5 26t24.5 66q0 35 -24 60.5t-80 25.5l-103 1v-179zM51 0v494h63v-201h106q45 0 76.5 -11.5t51 -31t28.5 -45.5t9 -55q0 -69 -39 -109.5t-127 -40.5h-168z" />
<glyph unicode="&#x44c;" horiz-adv-x="398" d="M110 58h104q56 0 80 25.5t24 65.5q0 35 -24 61.5t-81 26.5l-103 -1v-178zM48 0v494h63v-201h106q45 0 76.5 -11.5t51 -31t28 -45.5t8.5 -55q0 -68 -39 -109t-126 -41h-168z" />
<glyph unicode="&#x44d;" horiz-adv-x="379" d="M65 110q11 -24 36 -41t59 -17q35 0 57.5 15t35.5 39.5t18.5 56.5t6.5 65h-182v51h182q-1 33 -6.5 62t-19 51.5t-36 35.5t-58.5 13q-31 0 -56.5 -16.5t-36.5 -44.5l-53 31q19 42 58.5 65.5t90.5 23.5t86 -19t56 -52.5t30 -79t9 -97.5q-1 -54 -9 -101t-28 -82t-55.5 -55 t-91.5 -20q-53 0 -90.5 23t-56.5 65z" />
<glyph unicode="&#x44e;" horiz-adv-x="560" d="M352 499q39 0 70 -13t52 -36q14 -15 23 -36t13 -45q3 -20 4.5 -41.5t1.5 -41.5v-41q0 -22 -0.5 -42.5t-1.5 -40.5q-1 -27 -6.5 -49t-15.5 -41q-39 -78 -142 -78q-71 0 -111.5 35.5t-50.5 102.5q-1 17 -2.5 34t-1.5 35v23h-63v-224h-64v492h64v-215h63q0 21 1 41t3 37 q8 66 51.5 105t112.5 39zM351 442q-31 0 -54 -14t-37 -38q-8 -14 -11 -34.5t-5 -51.5v-98q0 -20 1 -39t5 -37q7 -35 32 -57.5t69 -22.5q35 0 60.5 18.5t34.5 51.5q7 23 7.5 45.5t0.5 45.5v41q0 35 -1 71.5t-14 65.5q-11 25 -33 39t-55 14z" />
<glyph unicode="&#x44f;" horiz-adv-x="426" d="M42 349q0 63 38.5 104t113.5 41h181v-494h-63v216h-102q-32 -1 -54 -16t-33 -61l-34 -139h-63l36 147q7 29 20.5 52.5t39.5 33.5q-43 14 -61.5 44.5t-18.5 71.5zM104 348q0 -42 26.5 -60.5t73.5 -18.5h108v169h-110q-48 0 -73 -24t-25 -66z" />
<glyph unicode="&#x451;" horiz-adv-x="416" d="M366 85q-19 -43 -58 -67t-88 -24q-53 0 -88 15.5t-56 47.5t-30 80t-9 113q0 47 7 92t26.5 80t53 56.5t86.5 21.5q45 0 77.5 -15.5t53 -43t30 -65.5t9.5 -83v-62h-281q0 -41 5 -74t18.5 -57t36 -37t58.5 -13q32 0 58 18t38 44zM317 284q0 34 -4.5 63t-16 50t-32 32.5 t-53.5 11.5q-32 0 -53 -12t-33.5 -33.5t-17.5 -50.5t-6 -63h216v2zM265 602v68h63v-68h-63zM97 602v68h65v-68h-65z" />
<glyph unicode="&#x452;" horiz-adv-x="457" d="M4 627h54v98h61v-98h199v-50h-199v-154h3q20 34 53.5 52.5t75.5 18.5q50 0 85.5 -23t51.5 -66q11 -27 15 -71t4 -92q0 -40 -4.5 -80.5t-15.5 -70.5q-17 -45 -55 -72t-102 -27h-9.5t-9.5 1v53q36 -3 66 11t46 43q13 24 17.5 59.5t4.5 72.5q0 45 -2.5 78t-9.5 55 q-10 33 -35 51t-64 18q-30 0 -52 -12t-35.5 -32t-20 -45.5t-6.5 -51.5l-1 -293h-61v577h-54v50z" />
<glyph unicode="&#x453;" horiz-adv-x="355" d="M109 438v-438h-63v493h301v-55h-238zM148 571l71 163l63 -22l-96 -156z" />
<glyph unicode="&#x454;" horiz-adv-x="378" d="M306 110q14 -8 27 -14.5l27 -13.5q-18 -42 -56 -65t-91 -23q-56 0 -91 19.5t-55 54t-27.5 82.5t-7.5 104q0 52 9.5 97t31 78t56.5 52t86 19q53 0 90 -23.5t55 -65.5q-13 -8 -26 -15.5t-26 -15.5q-11 28 -35.5 44.5t-56.5 16.5q-36 0 -59 -13t-36.5 -35.5t-19 -51.5 t-6.5 -62h183v-51h-183q1 -34 6.5 -65.5t18.5 -56t35.5 -39.5t58.5 -15q33 0 57 16.5t35 41.5z" />
<glyph unicode="&#x455;" horiz-adv-x="398" d="M79 120q34 -70 120 -70q45 0 73.5 21t28.5 66q0 22 -7.5 36.5t-21.5 24t-33 16t-42 12.5q-36 9 -65 20t-49.5 26.5t-31.5 37.5t-11 53q0 63 42 100t116 37q63 0 102 -24t56 -67l-54 -27q-14 31 -41 46t-64 15q-49 0 -72 -23.5t-23 -56.5q0 -20 9.5 -32.5t26 -21.5t38 -15 t46.5 -13q35 -8 61.5 -19t44.5 -28t27 -40.5t9 -57.5q0 -64 -42.5 -103.5t-125.5 -39.5q-123 0 -169 98z" />
<glyph unicode="&#x456;" horiz-adv-x="187" d="M61 621v66h65v-66h-65zM62 0v494h63v-494h-63z" />
<glyph unicode="&#x457;" horiz-adv-x="187" d="M146 595v68h63v-68h-63zM-22 595v68h65v-68h-65zM62 0v494h63v-494h-63z" />
<glyph unicode="&#x458;" horiz-adv-x="197" d="M132 -82q0 -53 -28 -88t-85 -35h-29v57h20q32 1 45 22.5t13 56.5v563h64v-576zM68 621v65h65v-65h-65z" />
<glyph unicode="&#x459;" horiz-adv-x="646" d="M355 295h105q46 0 77.5 -11.5t51 -31.5t28 -46.5t8.5 -55.5q0 -70 -39.5 -110t-126.5 -40h-168v439h-133v-199q0 -60 -7.5 -103t-22.5 -72.5t-39 -48t-57 -31.5l-23 50q24 13 41.5 27.5t28 38t15.5 58.5t5 90v245h256v-199zM562 149q0 35 -24.5 61t-80.5 26h-102v-178 h102q56 0 80.5 25t24.5 66z" />
<glyph unicode="&#x45a;" horiz-adv-x="656" d="M361 58h103q55 0 79.5 25.5t24.5 65.5q0 17 -5.5 32.5t-18 27t-32.5 18t-48 6.5h-103v-175zM298 0v233h-181v-233h-62v494h62v-202h181v202h63v-202h106q45 0 76.5 -11.5t51 -31t28.5 -45t9 -54.5q0 -69 -39 -109.5t-127 -40.5h-168z" />
<glyph unicode="&#x45b;" horiz-adv-x="438" d="M322 0v328q0 51 -24.5 80.5t-75.5 29.5q-48 0 -79 -32t-31 -84v-322h-62v583h-51v49h51v94h63v-94h194v-49h-194v-148h2q21 34 54.5 49.5t71.5 15.5q66 0 105 -40.5t39 -110.5v-349h-63z" />
<glyph unicode="&#x45c;" horiz-adv-x="409" d="M169 572l72 162l62 -21l-96 -157zM48 0v494h62v-219h74q14 0 28 2.5t26.5 10.5t23 22t17.5 38l42 146h60l-41 -143q-11 -36 -27 -60.5t-43 -32.5q34 -8 49.5 -34t25.5 -63l46 -161h-63l-40 145q-7 24 -16 39.5t-21 24t-26.5 11.5t-31.5 3h-83v-223h-62z" />
<glyph unicode="&#x45e;" horiz-adv-x="375" d="M191 98q6 21 15 52t20 68t22.5 76.5t22.5 76.5t20.5 68.5t15.5 53.5h65l-183 -598q-30 -98 -118 -98h-23v54h20q29 0 44.5 19.5t25.5 55.5l24 80q-41 122 -79.5 243t-79.5 244h67q16 -53 32 -104.5t32 -103.5q4 -15 11.5 -40.5t16 -53t15.5 -53t12 -40.5h2zM115 687 q3 -26 24.5 -47.5t52.5 -21.5q16 0 30 6t24.5 15.5t17 22t7.5 25.5h52q-2 -19 -10 -40t-23 -38.5t-39 -29t-59 -11.5t-59 11.5t-39.5 29t-23 38.5t-8.5 40h53z" />
<glyph unicode="&#x45f;" horiz-adv-x="441" d="M388 494v-494h-135v-134h-65v134h-134v494h62v-436h209v436h63z" />
<glyph unicode="&#x490;" horiz-adv-x="435" d="M421 636h-291v-636h-65v696h296v116h60v-176z" />
<glyph unicode="&#x491;" horiz-adv-x="363" d="M353 438h-238v-438h-63v494h242v106h59v-162z" />
<glyph unicode="&#x4d9;" horiz-adv-x="413" d="M46 409q20 43 62 67.5t91 24.5q99 0 138.5 -64.5t39.5 -191.5q0 -47 -7 -92t-26.5 -80t-53 -56.5t-86.5 -21.5q-45 0 -77.5 15.5t-53 43t-30 65t-9.5 82.5v63h280q0 40 -5 73.5t-18.5 57.5t-36 37t-57.5 13q-32 0 -58.5 -18.5t-39.5 -43.5zM97 211q0 -35 5.5 -64 t17.5 -50t32.5 -32.5t50.5 -11.5q31 0 52 12.5t33.5 34t17.5 50.5t6 62h-215v-1z" />
<glyph unicode="&#x1e80;" horiz-adv-x="699" d="M347 566q-13 -55 -24.5 -107.5t-23.5 -109.5q-10 -42 -21 -90.5t-22 -95.5t-20.5 -89.5t-16.5 -73.5h-61q-35 175 -70 348t-71 348h66l60 -313l46 -255h3l52 230l78 338h55l80 -344l50 -224h3l43 237l61 331h67l-141 -696h-60l-78 336q-14 57 -26 115t-26 115h-3z M405 750l-159 98l47 49l141 -115z" />
<glyph unicode="&#x1e81;" horiz-adv-x="625" d="M480 0h-61l-69 249q-3 10 -8 29t-10.5 40t-11 40t-8.5 30h-1l-40 -148l-66 -240h-62l-135 493h66l66 -258q11 -42 19.5 -78t13.5 -57h4l34 128q6 22 15.5 57.5t20 74.5t20 75t15.5 58h61q36 -131 69 -261q8 -34 17 -67.5t18 -67.5h3l34 132q2 8 7 28.5t11.5 47t14 56 t14 56.5t11.5 47t7 29h66zM313 556l-96 157l63 21l71 -162z" />
<glyph unicode="&#x1e82;" horiz-adv-x="699" d="M347 566q-13 -55 -24.5 -107.5t-23.5 -109.5q-10 -42 -21 -90.5t-22 -95.5t-20.5 -89.5t-16.5 -73.5h-61q-35 175 -70 348t-71 348h66l60 -313l46 -255h3l52 230l78 338h55l80 -344l50 -224h3l43 237l61 331h67l-141 -696h-60l-78 336q-14 57 -26 115t-26 115h-3z M295 758l139 112l44 -48l-156 -95z" />
<glyph unicode="&#x1e83;" horiz-adv-x="625" d="M480 0h-61l-69 249q-3 10 -8 29t-10.5 40t-11 40t-8.5 30h-1l-40 -148l-66 -240h-62l-135 493h66l66 -258q11 -42 19.5 -78t13.5 -57h4l34 128q6 22 15.5 57.5t20 74.5t20 75t15.5 58h61q36 -131 69 -261q8 -34 17 -67.5t18 -67.5h3l34 132q2 8 7 28.5t11.5 47t14 56 t14 56.5t11.5 47t7 29h66zM288 572l72 162l62 -21l-96 -157z" />
<glyph unicode="&#x1e84;" horiz-adv-x="699" d="M347 566q-13 -55 -24.5 -107.5t-23.5 -109.5q-10 -42 -21 -90.5t-22 -95.5t-20.5 -89.5t-16.5 -73.5h-61q-35 175 -70 348t-71 348h66l60 -313l46 -255h3l52 230l78 338h55l80 -344l50 -224h3l43 237l61 331h67l-141 -696h-60l-78 336q-14 57 -26 115t-26 115h-3z M230 748v67h65v-67h-65zM395 748v67h64v-67h-64z" />
<glyph unicode="&#x1e85;" horiz-adv-x="625" d="M480 0h-61l-69 249q-3 10 -8 29t-10.5 40t-11 40t-8.5 30h-1l-40 -148l-66 -240h-62l-135 493h66l66 -258q11 -42 19.5 -78t13.5 -57h4l34 128q6 22 15.5 57.5t20 74.5t20 75t15.5 58h61q36 -131 69 -261q8 -34 17 -67.5t18 -67.5h3l34 132q2 8 7 28.5t11.5 47t14 56 t14 56.5t11.5 47t7 29h66zM197 596v68h65v-68h-65zM365 596v68h63v-68h-63z" />
<glyph unicode="&#x1ef2;" horiz-adv-x="428" d="M156 500q14 -33 27.5 -68.5t27.5 -68.5l68 160l72 173h66l-174 -406v-290h-62v290l-174 406h67q20 -50 41 -98.5t41 -97.5zM243 735l-159 98l47 49l141 -115z" />
<glyph unicode="&#x1ef3;" horiz-adv-x="375" d="M191 98q6 21 15 52t20 68t22.5 76.5t22.5 76.5t20.5 68.5t15.5 53.5h65l-183 -598q-30 -98 -118 -98h-23v54h20q29 0 44.5 19.5t25.5 55.5l24 80q-41 122 -79.5 243t-79.5 244h67q16 -53 32 -104.5t32 -103.5q4 -15 11.5 -40.5t16 -53t15.5 -53t12 -40.5h2zM180 556 l-96 157l63 21l71 -162z" />
<glyph unicode="&#x2013;" horiz-adv-x="499" d="M20 236v59h459v-59h-459z" />
<glyph unicode="&#x2014;" horiz-adv-x="999" d="M20 236v59h959v-59h-959z" />
<glyph unicode="&#x2015;" horiz-adv-x="999" d="M20 236v60h959v-60h-959z" />
<glyph unicode="&#x2018;" horiz-adv-x="199" d="M104 715h38l-25 -105h19v-82h-76v82z" />
<glyph unicode="&#x2019;" horiz-adv-x="199" d="M59 528l25 105h-19v82h76v-82q-13 -25 -23.5 -52t-21.5 -53h-37z" />
<glyph unicode="&#x201a;" horiz-adv-x="189" d="M86 -107h-37l26 104h-20v83h76v-80z" />
<glyph unicode="&#x201c;" horiz-adv-x="271" d="M83 715h37l-26 -105h20v-82h-76v82zM195 715h38l-25 -105h19v-82h-76v82z" />
<glyph unicode="&#x201d;" horiz-adv-x="271" d="M192 528h-37l25 105h-20v83h76v-83zM79 528h-38l26 105h-20v83h76v-83z" />
<glyph unicode="&#x201e;" horiz-adv-x="325" d="M89 -107h-37l26 104h-20v83h76v-80zM223 -107h-37l25 104h-20v83h76v-80z" />
<glyph unicode="&#x2020;" horiz-adv-x="402" d="M231 403v-600h-61v600h-154v55h154v238h61v-238h154v-55h-154z" />
<glyph unicode="&#x2021;" horiz-adv-x="402" d="M170 403h-154v55h154v238h61v-238h154v-55h-154v-213h154v-55h-154v-332h-61v332h-154v55h154v213z" />
<glyph unicode="&#x2022;" horiz-adv-x="372" d="M294 274q0 -23 -8.5 -42.5t-23 -34t-34 -23t-41.5 -8.5t-41.5 8.5t-33.5 23t-22.5 34t-8.5 42.5q0 22 8.5 41.5t22.5 34t33.5 23t41.5 8.5t41.5 -8.5t34 -23t23 -34t8.5 -41.5z" />
<glyph unicode="&#x2023;" horiz-adv-x="453" d="M421 277l-340 -184v357z" />
<glyph unicode="&#x2026;" horiz-adv-x="634" d="M60 0v81h75v-81h-75zM272 0v81h75v-81h-75zM487 0v81h76v-81h-76z" />
<glyph unicode="&#x2030;" horiz-adv-x="870" d="M253 377q0 -24 -8.5 -43t-23.5 -32t-35 -20t-42 -7q-45 0 -77.5 27t-32.5 75v220q0 48 32 75t78 27t77.5 -27t31.5 -75v-220zM202 596q0 25 -16 41t-42 16q-27 0 -43.5 -16t-16.5 -41v-218q0 -26 16.5 -42t43.5 -16q26 0 42 16t16 42v218zM145 -17h-46l369 731h47z M583 96q0 -24 -9 -42.5t-24 -31.5t-34.5 -19.5t-41.5 -6.5t-42 6.5t-35 19.5t-24 31.5t-9 42.5v225q0 24 9 42t24 31t35 19.5t42 6.5t41.5 -6.5t34.5 -19.5t24 -31t9 -42v-225zM532 320q0 25 -16 39.5t-42 14.5q-27 0 -43.5 -14.5t-16.5 -39.5v-224q0 -26 16.5 -40t43.5 -14 q26 0 42 14t16 40v224zM837 96q0 -24 -9 -42.5t-24 -31.5t-34.5 -19.5t-41.5 -6.5t-42 6.5t-35 19.5t-24 31.5t-9 42.5v225q0 24 9 42t24 31t35 19.5t42 6.5t41.5 -6.5t34.5 -19.5t24 -31t9 -42v-225zM786 320q0 25 -16 39.5t-42 14.5q-27 0 -43.5 -14.5t-16.5 -39.5v-224 q0 -26 16.5 -40t43.5 -14q26 0 42 14t16 40v224z" />
<glyph unicode="&#x2039;" horiz-adv-x="268" d="M161 46l-114 183l114 182h62l-113 -182l113 -183h-62z" />
<glyph unicode="&#x203a;" horiz-adv-x="261" d="M47 46l112 183l-112 182h62l115 -182l-115 -183h-62z" />
<glyph unicode="&#x2044;" horiz-adv-x="139" d="M-103 -17h-46l369 731h47z" />
<glyph unicode="&#x2070;" horiz-adv-x="272" d="M246 467q0 -24 -8.5 -43t-23.5 -32t-35 -20t-42 -7q-45 0 -77.5 27t-32.5 75v220q0 48 32 75t78 27t77.5 -27t31.5 -75v-220zM195 686q0 25 -16 41t-42 16q-27 0 -43.5 -16t-16.5 -41v-218q0 -26 16.5 -42t43.5 -16q26 0 42 16t16 42v218z" />
<glyph unicode="&#x2074;" horiz-adv-x="276" d="M224 433v-64h-51v64h-160v42l122 311h54l-122 -307h106v118h51v-118h36v-46h-36z" />
<glyph unicode="&#x2075;" horiz-adv-x="268" d="M72 464q3 -27 18 -42t41 -15q21 0 33 8.5t18.5 22t8.5 31.5t2 38q0 42 -11.5 68t-48.5 26q-18 0 -33.5 -8.5t-23.5 -22.5h-45v215h207v-43h-161l1 -120q11 10 26.5 16t38.5 6q51 0 75 -30.5t24 -104.5q0 -32 -5.5 -59t-18 -46t-34 -29.5t-53.5 -10.5q-48 0 -76.5 23 t-33.5 70z" />
<glyph unicode="&#x2076;" horiz-adv-x="268" d="M134 365q-54 0 -82 27.5t-28 91.5q0 31 5.5 55.5t14.5 42.5l100 202h56l-90 -181q18 6 36 6q54 0 76.5 -33t22.5 -85q0 -65 -30 -95.5t-81 -30.5zM136 568q-35 0 -47.5 -24.5t-12.5 -57.5q0 -35 11 -56.5t47 -21.5q32 0 45.5 21.5t13.5 54.5q0 16 -2 31t-8.5 26.5 t-17.5 19t-29 7.5z" />
<glyph unicode="&#x2077;" horiz-adv-x="247" d="M96 369h-52l137 371h-118v-56h-49v102h223v-41z" />
<glyph unicode="&#x2078;" horiz-adv-x="270" d="M248 485q0 -33 -9 -55.5t-25 -36.5t-36.5 -20.5t-42.5 -6.5q-23 0 -43.5 6t-36 20.5t-24.5 37.5t-9 56q0 78 47 100q-43 19 -43 89q0 59 32 86t77 27q46 0 77 -27t31 -86q0 -65 -43 -89q48 -25 48 -101zM135 566q-29 0 -46.5 -19.5t-17.5 -57.5q0 -44 17.5 -62t46.5 -18 q62 0 62 80q0 40 -16.5 58.5t-45.5 18.5zM135 744q-30 0 -45 -18.5t-15 -52.5q0 -35 15.5 -51.5t44.5 -16.5q59 0 59 70q0 32 -14.5 50.5t-44.5 18.5z" />
<glyph unicode="&#x2079;" horiz-adv-x="265" d="M133 788q54 0 82 -28t28 -91q0 -32 -5.5 -57t-14.5 -42l-100 -202h-56l90 182q-17 -7 -35 -7q-55 0 -77 33t-22 85q0 64 30 95.5t80 31.5zM131 585q36 0 48 24t12 57q0 35 -11 56.5t-47 21.5q-32 0 -45.5 -21.5t-13.5 -53.5q0 -16 2.5 -31t8.5 -27t17 -19t29 -7z" />
<glyph unicode="&#x207a;" horiz-adv-x="277" d="M159 524v-103h-41v103h-108v40h108v103h41v-103h108v-40h-108z" />
<glyph unicode="&#x207b;" horiz-adv-x="233" d="M29 514v44h179v-44h-179z" />
<glyph unicode="&#x207c;" horiz-adv-x="277" d="M10 473v41h257v-41h-257zM10 571v41h257v-41h-257z" />
<glyph unicode="&#x207d;" horiz-adv-x="160" d="M130 299q-42 48 -71.5 113t-29.5 138t29 137.5t71 113.5l29 -15q-35 -52 -56 -112.5t-21 -119.5q0 -64 21 -125.5t56 -111.5z" />
<glyph unicode="&#x207e;" horiz-adv-x="160" d="M15 317q35 50 56.5 111.5t21.5 124.5q0 59 -21 120t-57 112l29 15q43 -49 72 -113.5t29 -136.5q0 -36 -8 -71t-22 -67t-32.5 -60.5t-39.5 -52.5z" />
<glyph unicode="&#x207f;" horiz-adv-x="303" d="M218 279v213q0 31 -17 49t-49 18t-50 -20t-18 -51v-209h-52v325h52v-36q16 20 37.5 30.5t45.5 10.5q47 0 75 -27.5t28 -73.5v-229h-52z" />
<glyph unicode="&#x2080;" horiz-adv-x="272" d="M246 6q0 -24 -9 -42.5t-24 -31.5t-34.5 -19.5t-41.5 -6.5t-42 6.5t-35 19.5t-24 31.5t-9 42.5v225q0 24 9 42t24 31t35 19.5t42 6.5t41.5 -6.5t34.5 -19.5t24 -31t9 -42v-225zM195 230q0 25 -16 39.5t-42 14.5q-27 0 -43.5 -14.5t-16.5 -39.5v-224q0 -26 16.5 -40 t43.5 -14q26 0 42 14t16 40v224z" />
<glyph unicode="&#x2081;" horiz-adv-x="225" d="M159 -90h-50v363l-65 -43v52l67 45h48v-417z" />
<glyph unicode="&#x2082;" horiz-adv-x="270" d="M23 -90v42l150 213q12 17 16.5 32t4.5 32q0 21 -13 38t-45 17q-24 0 -41 -17t-20 -49l-51 8q5 47 35 75t78 28q53 0 81.5 -26.5t28.5 -73.5q0 -46 -30 -89l-132 -183h158v-47h-220z" />
<glyph unicode="&#x2083;" horiz-adv-x="270" d="M134 329q60 0 84.5 -32t24.5 -77q0 -12 -1.5 -24.5t-6 -25t-13 -23.5t-23.5 -19q31 -15 38.5 -41.5t7.5 -58.5q0 -53 -27 -87.5t-88 -34.5q-45 0 -73.5 22.5t-33.5 72.5l51 6q2 -26 16.5 -41.5t40.5 -15.5q37 0 50 24.5t13 57.5t-14.5 52.5t-46.5 19.5h-30v44h28 q32 0 46 18.5t14 48.5t-13 49.5t-45 19.5q-23 0 -39 -15.5t-21 -41.5l-50 8q6 42 35 68t76 26z" />
<glyph unicode="&#x2084;" horiz-adv-x="276" d="M228 -26v-64h-51v64h-164v43l126 310h54l-126 -307h110v118h51v-118h36v-46h-36z" />
<glyph unicode="&#x2085;" horiz-adv-x="268" d="M70 6q3 -27 18 -42t41 -15q21 0 33 8.5t18.5 22t8.5 31.5t2 38q0 42 -11.5 68t-48.5 26q-18 0 -33.5 -8.5t-23.5 -22.5h-45v215h207v-43h-161l1 -120q11 10 26.5 16t38.5 6q51 0 75 -30.5t24 -104.5q0 -32 -5.5 -59t-18 -46t-34 -29.5t-53.5 -10.5q-48 0 -76.5 23 t-33.5 70z" />
<glyph unicode="&#x2086;" horiz-adv-x="268" d="M134 -94q-54 0 -82 27.5t-28 91.5q0 32 5.5 56t14.5 42l100 202h56l-90 -181q17 7 36 7q54 0 76.5 -33t22.5 -86q0 -64 -30 -95t-81 -31zM136 109q-35 0 -47.5 -24t-12.5 -57q0 -35 11 -57t47 -22q32 0 45.5 22t13.5 54q0 16 -2 31t-8.5 26.5t-17.5 19t-29 7.5z" />
<glyph unicode="&#x2087;" horiz-adv-x="247" d="M96 -90h-52l137 372h-118v-57h-49v102h223v-41z" />
<glyph unicode="&#x2088;" horiz-adv-x="270" d="M248 26q0 -33 -9 -55.5t-25 -37t-36.5 -21t-42.5 -6.5q-23 0 -43.5 6.5t-36 20.5t-24.5 37t-9 56q0 41 12 65t35 35q-43 19 -43 90q0 59 32 85.5t77 26.5q46 0 77 -26.5t31 -85.5q0 -65 -43 -90q48 -23 48 -100zM135 106q-29 0 -46.5 -19t-17.5 -58q0 -43 17.5 -61.5 t46.5 -18.5q62 0 62 80q0 41 -16.5 59t-45.5 18zM135 285q-30 0 -45 -18.5t-15 -52.5q0 -35 15.5 -51.5t44.5 -16.5t44 18t15 51t-14.5 51.5t-44.5 18.5z" />
<glyph unicode="&#x2089;" horiz-adv-x="265" d="M133 330q54 0 82 -28t28 -91q0 -32 -5.5 -57t-14.5 -42l-100 -202h-56l90 182q-17 -7 -35 -7q-55 0 -77 33t-22 85q0 64 30 95.5t80 31.5zM131 127q36 0 48 24t12 57q0 35 -11 56.5t-47 21.5q-32 0 -45.5 -21.5t-13.5 -53.5q0 -16 2.5 -31t8.5 -27t17 -19t29 -7z" />
<glyph unicode="&#x208a;" horiz-adv-x="277" d="M159 79v-103h-41v103h-108v40h108v102h41v-102h108v-40h-108z" />
<glyph unicode="&#x208b;" horiz-adv-x="233" d="M29 69v44h179v-44h-179z" />
<glyph unicode="&#x208c;" horiz-adv-x="277" d="M10 27v41h257v-41h-257zM10 124v41h257v-41h-257z" />
<glyph unicode="&#x208d;" horiz-adv-x="160" d="M130 -153q-21 24 -39 52.5t-32 61t-22 67.5t-8 71q0 72 29 136.5t71 113.5l29 -15q-35 -51 -56 -112t-21 -120q0 -64 21 -125.5t56 -110.5z" />
<glyph unicode="&#x208e;" horiz-adv-x="160" d="M15 -134q35 49 56.5 110.5t21.5 125.5q0 58 -21 119t-57 113l29 15q43 -49 72 -113.5t29 -136.5q0 -37 -8 -71.5t-22 -66.5t-32.5 -61t-39.5 -53z" />
<glyph unicode="&#x20ab;" horiz-adv-x="425" d="M206 614h86v77h58v-77h45v-42h-45v-449h-58v41q-17 -23 -43 -34t-55 -11q-39 0 -64 14.5t-39 40t-19.5 61t-5.5 77.5q0 40 5 76.5t19.5 65t41.5 45.5t71 17q32 0 53.5 -13t35.5 -31v100h-86v42zM210 172q39 0 56.5 22.5t22.5 54.5q2 19 2.5 38t0.5 37q0 20 -1.5 41 t-7.5 40q-6 26 -23.5 41.5t-49.5 15.5q-27 0 -43.5 -11t-25.5 -31t-12.5 -47t-3.5 -60q0 -32 3 -58t12.5 -44.5t26 -28.5t43.5 -10zM74 58h289v-54h-289v54z" />
<glyph unicode="&#x20ac;" horiz-adv-x="425" d="M116 383v-64h193v-43h-193v-88q0 -28 8 -52.5t23.5 -43t38.5 -29.5t53 -11q47 0 75.5 24t43.5 67l59 -18q-18 -65 -66 -98t-112 -33q-43 0 -77.5 14.5t-58.5 40.5t-37 63.5t-13 82.5v81h-39v43h39v64h-39v42h39v77q0 44 12.5 80.5t36.5 63t58.5 41t78.5 14.5 q64 0 112 -33t65 -96l-61 -18q-13 40 -42 64.5t-74 24.5q-31 0 -54 -11t-38.5 -30.5t-23 -45t-7.5 -53.5v-78h193v-42h-193z" />
<glyph unicode="&#x2103;" horiz-adv-x="710" d="M686 130q-16 -67 -68 -101.5t-121 -34.5q-46 0 -83 15t-63 41.5t-40 64t-14 82.5v302q0 44 13.5 81t39.5 64t63 42t84 15q69 0 120.5 -34.5t68.5 -98.5l-62 -23q-10 45 -43 70t-84 25q-32 0 -57.5 -11t-43 -30t-26.5 -44.5t-9 -54.5v-305q0 -29 9.5 -55t27 -45t42.5 -30 t57 -11q49 0 83 25t45 73zM242 587q0 -24 -9 -44.5t-24 -35.5t-35.5 -24t-44.5 -9t-44.5 9t-35.5 24t-24 35.5t-9 44.5q0 23 9 43.5t24 35.5t35.5 24t44.5 9t44.5 -9t35.5 -24t24 -35.5t9 -43.5zM200 587q0 30 -20.5 51t-50.5 21q-29 0 -50.5 -21t-21.5 -51q0 -31 21.5 -52 t50.5 -21q30 0 50.5 21t20.5 52z" />
<glyph unicode="&#x2105;" horiz-adv-x="639" d="M477 352q30 0 52 -9.5t36 -26.5q20 -22 27.5 -57.5t7.5 -86.5q0 -80 -22 -121q-32 -57 -106 -57q-31 0 -51.5 7.5t-35.5 23.5q-21 23 -29 61.5t-8 84.5q0 36 4 63.5t14 49.5q29 68 111 68zM168 344q-37 0 -61.5 12.5t-39.5 36t-21 56t-6 72.5q0 87 30 134.5t101 47.5 q42 0 70 -20t39 -56q-11 -6 -24.5 -11.5t-24.5 -11.5q-6 23 -22.5 35.5t-37.5 12.5q-44 0 -61 -34t-17 -100q0 -25 3 -47t12 -39t24 -27t39 -10q22 0 37.5 12.5t22.5 33.5l46 -23q-27 -74 -109 -74zM524 713q-93 -183 -184.5 -365t-185.5 -365h-45q93 183 184 365t185 365 h46zM476 302q-20 0 -35 -7.5t-24 -24.5q-8 -16 -11.5 -41t-3.5 -62q0 -41 5.5 -69t22.5 -42t44 -14q47 0 63 43q6 17 8 39.5t2 50.5q0 62 -12 89q-17 38 -59 38z" />
<glyph unicode="&#x2109;" horiz-adv-x="695" d="M387 636v-255h255v-58h-255v-323h-65v696h362v-60h-297zM255 587q0 -24 -9 -44.5t-24 -35.5t-35.5 -24t-44.5 -9t-44.5 9t-35.5 24t-24 35.5t-9 44.5q0 23 9 43.5t24 35.5t35.5 24t44.5 9t44.5 -9t35.5 -24t24 -35.5t9 -43.5zM213 587q0 30 -20.5 51t-50.5 21 q-29 0 -50.5 -21t-21.5 -51q0 -31 21.5 -52t50.5 -21q30 0 50.5 21t20.5 52z" />
<glyph unicode="&#x2113;" horiz-adv-x="412" d="M378 131q-11 -28 -25 -53.5t-32 -45t-40 -31t-49 -11.5q-33 0 -57.5 13.5t-41 37.5t-24.5 56.5t-8 69.5v47q-4 -4 -11 -9.5t-14.5 -11.5t-14.5 -11t-10 -8q-1 2 -3 5q-2 2 -3 5.5t-3 6.5l-8 16q2 1 11.5 9t20.5 17.5t21.5 19t13.5 12.5v250q0 54 10 91t27.5 59.5t40 32.5 t48.5 10q39 0 67 -31t28 -95q0 -82 -44 -162t-126 -171v-61q0 -40 7 -68t19 -45t27 -25t31 -8q32 0 55.5 26t42.5 79zM152 313q64 78 94 144t30 125q0 13 -2.5 27.5t-8.5 25.5t-16 18.5t-25 7.5q-27 0 -49.5 -32.5t-22.5 -106.5v-209z" />
<glyph unicode="&#x2116;" horiz-adv-x="779" d="M504 333h222v-46h-222v46zM385 0q-5 10 -25 52.5t-47.5 101.5t-59 125.5t-58.5 124.5t-46.5 98.5t-22.5 47.5h-2v-550h-64v696h62q44 -91 86 -181.5t86 -181.5q4 -8 16.5 -35.5t27 -58t26.5 -58t16 -35.5h4v550h63v-696h-62zM615 703q40 0 65 -15.5t39 -39.5 q17 -31 17 -111q0 -37 -3.5 -62t-11.5 -45q-14 -32 -44 -47t-65 -15q-42 0 -67.5 15.5t-38.5 41.5q-10 20 -13 49t-3 60q0 32 3.5 59t15.5 48q16 29 40 45.5t66 16.5zM614 656q-17 0 -32 -6.5t-24 -20.5q-8 -11 -12.5 -37.5t-4.5 -62.5q0 -29 3.5 -48.5t9.5 -31.5 q8 -17 22 -26t37 -9q44 0 62 38q6 12 8 34t2 52q0 29 -2.5 48t-6.5 30q-14 40 -62 40z" />
<glyph unicode="&#x2117;" horiz-adv-x="747" d="M402 541q60 0 92.5 -31t32.5 -95q0 -25 -6.5 -48t-21 -40.5t-38 -28t-57.5 -10.5h-77v-170h-50v423h125zM327 334h75q42 0 58.5 24t16.5 57q0 38 -18 59.5t-58 21.5h-74v-162zM376 -8q-75 0 -135 26.5t-102 73.5t-64.5 110.5t-22.5 138.5t23 139.5t65.5 111.5t102 73.5 t133.5 26.5q73 0 133 -26.5t102.5 -73.5t65.5 -111.5t23 -139.5t-23 -138.5t-65.5 -110.5t-102.5 -73.5t-133 -26.5zM376 648q-63 0 -114 -24t-86.5 -65.5t-54.5 -97.5t-19 -120q0 -65 19.5 -120.5t55.5 -96t86.5 -64t112.5 -23.5q63 0 114 23.5t86.5 64.5t55 96.5 t19.5 119.5q0 65 -19.5 121t-55.5 97.5t-87 65t-113 23.5z" />
<glyph unicode="&#x2122;" horiz-adv-x="732" d="M525 366h-40l-97 206h-1v-268h-48v391h48q4 -8 13 -28.5t21 -46.5t25.5 -55.5t25.5 -56t21.5 -46.5t13.5 -28q4 8 13 28t21 46.5t25 56t25 55.5t21 46.5t13 28.5h47v-391h-49v267zM188 649v-345h-50v345h-103v47h255v-47h-102z" />
<glyph unicode="&#x2126;" horiz-adv-x="491" d="M245 701q42 0 78.5 -14t63.5 -40.5t42.5 -64.5t15.5 -85v-264q0 -57 -13 -101t-54 -73h79v-59h-162v71q41 14 63.5 51.5t22.5 86.5v287q0 65 -37 104t-99 39q-65 0 -101 -40.5t-36 -102.5v-289q0 -48 22.5 -84.5t63.5 -52.5v-70h-162v59h80v1q-41 26 -54.5 70.5 t-13.5 102.5v264q0 45 14.5 82.5t41 64.5t63.5 42t82 15z" />
<glyph unicode="&#x212b;" horiz-adv-x="489" d="M412 0l-47 167h-242l-47 -167h-66l203 696h63l203 -696h-67zM289 440l-43 162h-4q-2 -8 -8 -31t-13 -50t-13.5 -50.5t-8.5 -30.5q-3 -12 -12 -42.5t-18.5 -65t-18.5 -65t-13 -42.5h213zM242 709q-36 0 -61 24.5t-25 58.5q0 18 6.5 33.5t18.5 27t27.5 18.5t33.5 7 q17 0 32 -7t26.5 -18.5t18 -27t6.5 -33.5q0 -34 -24.5 -58.5t-58.5 -24.5zM242 843q-22 0 -37 -14.5t-15 -36.5q0 -20 15 -34t37 -14q20 0 35 14t15 34q0 22 -15 36.5t-35 14.5z" />
<glyph unicode="&#x212e;" horiz-adv-x="810" d="M192 312v-186q16 -27 40 -48t53 -35.5t61.5 -22t64.5 -7.5q65 0 122 28.5t99 76.5h53q-49 -60 -121.5 -94.5t-153.5 -34.5q-72 0 -135 26.5t-110 72t-74 106t-27 128.5t27 127.5t74 104t110 70.5t135 26q73 0 135 -25t108 -70t72.5 -107t29.5 -136h-563zM627 515 q-15 26 -39 47t-53 35.5t-61 22.5t-63 8q-57 0 -115 -31t-104 -84v-178h435v180z" />
<glyph unicode="&#x2153;" horiz-adv-x="620" d="M460 419q60 0 84.5 -32t24.5 -77q0 -12 -1.5 -24.5t-6 -25t-13 -23.5t-23.5 -19q31 -15 38.5 -41.5t7.5 -58.5q0 -53 -27 -87.5t-88 -34.5q-45 0 -73.5 22.5t-33.5 72.5l51 6q2 -26 16.5 -41.5t40.5 -15.5q37 0 50 24.5t13 57.5t-14.5 52.5t-46.5 19.5h-30v44h28 q32 0 46 18.5t14 48.5t-13 49.5t-45 19.5q-23 0 -39 -15.5t-21 -41.5l-50 8q6 42 35 68t76 26zM118 -17h-46l369 731h47zM170 279h-50v362l-65 -42v52l67 45h48v-417z" />
<glyph unicode="&#x2154;" horiz-adv-x="620" d="M483 419q60 0 84.5 -32t24.5 -77q0 -12 -1.5 -24.5t-6 -25t-13 -23.5t-23.5 -19q31 -15 38.5 -41.5t7.5 -58.5q0 -53 -27 -87.5t-88 -34.5q-45 0 -73.5 22.5t-33.5 72.5l51 6q2 -26 16.5 -41.5t40.5 -15.5q37 0 50 24.5t13 57.5t-14.5 52.5t-46.5 19.5h-30v44h28 q32 0 46 18.5t14 48.5t-13 49.5t-45 19.5q-23 0 -39 -15.5t-21 -41.5l-50 8q6 42 35 68t76 26zM26 279v42l150 213q12 16 16.5 31t4.5 32q0 22 -13 38.5t-45 16.5q-24 0 -41 -16.5t-20 -48.5l-51 7q5 48 35 76t78 28q53 0 81.5 -26.5t28.5 -73.5q0 -22 -7.5 -45t-22.5 -44 l-132 -183h158v-47h-220zM161 -17h-46l369 731h47z" />
<glyph unicode="&#x2155;" horiz-adv-x="620" d="M396 96q3 -27 18 -42t41 -15q21 0 33 8.5t18.5 22t8.5 31.5t2 38q0 42 -11.5 68t-48.5 26q-18 0 -33.5 -8.5t-23.5 -22.5h-45v215h207v-43h-161l1 -120q11 10 26.5 16t38.5 6q51 0 75 -30.5t24 -104.5q0 -32 -5.5 -59t-18 -46t-34 -29.5t-53.5 -10.5q-48 0 -76.5 23 t-33.5 70zM103 -17h-46l369 731h47zM169 279h-50v362l-65 -42v52l67 45h48v-417z" />
<glyph unicode="&#x2156;" horiz-adv-x="620" d="M428 96q3 -27 18 -42t41 -15q21 0 33 8.5t18.5 22t8.5 31.5t2 38q0 42 -11.5 68t-48.5 26q-18 0 -33.5 -8.5t-23.5 -22.5h-45v215h207v-43h-161l1 -120q11 10 26.5 16t38.5 6q51 0 75 -30.5t24 -104.5q0 -32 -5.5 -59t-18 -46t-34 -29.5t-53.5 -10.5q-48 0 -76.5 23 t-33.5 70zM21 279v42l150 213q12 16 16.5 31t4.5 32q0 22 -13 38.5t-45 16.5q-24 0 -41 -16.5t-20 -48.5l-51 7q5 48 35 76t78 28q53 0 81.5 -26.5t28.5 -73.5q0 -22 -7.5 -45t-22.5 -44l-132 -183h158v-47h-220zM153 -17h-46l369 731h47z" />
<glyph unicode="&#x2157;" horiz-adv-x="620" d="M424 96q3 -27 18 -42t41 -15q21 0 33 8.5t18.5 22t8.5 31.5t2 38q0 42 -11.5 68t-48.5 26q-18 0 -33.5 -8.5t-23.5 -22.5h-45v215h207v-43h-161l1 -120q11 10 26.5 16t38.5 6q51 0 75 -30.5t24 -104.5q0 -32 -5.5 -59t-18 -46t-34 -29.5t-53.5 -10.5q-48 0 -76.5 23 t-33.5 70zM137 698q60 0 84.5 -32t24.5 -77q0 -24 -7.5 -50t-36.5 -42q31 -16 38.5 -42t7.5 -58q0 -53 -27 -87.5t-88 -34.5q-45 0 -73.5 22.5t-33.5 71.5l51 6q2 -26 16.5 -41t40.5 -15q37 0 50 24t13 58q0 33 -14.5 52.5t-46.5 19.5h-30v44h28q32 0 46 18t14 49 q0 30 -13 49t-45 19q-23 0 -39 -15t-21 -41l-50 8q6 41 35 67.5t76 26.5zM138 -17h-46l369 731h47z" />
<glyph unicode="&#x2158;" horiz-adv-x="620" d="M429 96q3 -27 18 -42t41 -15q21 0 33 8.5t18.5 22t8.5 31.5t2 38q0 42 -11.5 68t-48.5 26q-18 0 -33.5 -8.5t-23.5 -22.5h-45v215h207v-43h-161l1 -120q11 10 26.5 16t38.5 6q51 0 75 -30.5t24 -104.5q0 -32 -5.5 -59t-18 -46t-34 -29.5t-53.5 -10.5q-48 0 -76.5 23 t-33.5 70zM231 343v-64h-51v64h-160v42l122 311h54l-122 -307h106v118h51v-118h36v-46h-36zM153 -17h-46l369 731h47z" />
<glyph unicode="&#x2159;" horiz-adv-x="620" d="M445 -4q-54 0 -82 27.5t-28 91.5q0 32 5.5 56t14.5 42l100 202h56l-90 -181q17 7 36 7q54 0 76.5 -33t22.5 -86q0 -64 -30 -95t-81 -31zM128 -17h-46l369 731h47zM178 279h-50v362l-65 -42v52l67 45h48v-417zM447 199q-35 0 -47.5 -24t-12.5 -57q0 -35 11 -57t47 -22 q32 0 45.5 22t13.5 54q0 16 -2 31t-8.5 26.5t-17.5 19t-29 7.5z" />
<glyph unicode="&#x215a;" horiz-adv-x="620" d="M471 -4q-54 0 -82 27.5t-28 91.5q0 32 5.5 56t14.5 42l100 202h56l-90 -181q17 7 36 7q54 0 76.5 -33t22.5 -86q0 -64 -30 -95t-81 -31zM89 374q3 -27 18 -42t41 -15q21 0 33 8.5t18.5 22t8.5 31.5t2 38q0 42 -11.5 68t-48.5 26q-18 0 -33.5 -8.5t-23.5 -22.5h-45v215 h207v-43h-161l1 -120q11 10 26.5 16t38.5 6q51 0 75 -30.5t24 -104.5q0 -32 -5.5 -59t-18 -46t-34 -29.5t-53.5 -10.5q-48 0 -76.5 23t-33.5 70zM167 -17h-46l369 731h47zM473 199q-35 0 -47.5 -24t-12.5 -57q0 -35 11 -57t47 -22q32 0 45.5 22t13.5 54q0 16 -2 31 t-8.5 26.5t-17.5 19t-29 7.5z" />
<glyph unicode="&#x215b;" horiz-adv-x="620" d="M566 116q0 -33 -9 -55.5t-25 -37t-36.5 -21t-42.5 -6.5q-23 0 -43.5 6.5t-36 20.5t-24.5 37t-9 56q0 41 12 65t35 35q-43 19 -43 90q0 59 32 85.5t77 26.5q46 0 77 -26.5t31 -85.5q0 -65 -43 -90q48 -23 48 -100zM111 -17h-46l369 731h47zM168 279h-50v362l-65 -42v52 l67 45h48v-417zM453 196q-29 0 -46.5 -19t-17.5 -58q0 -43 17.5 -61.5t46.5 -18.5q62 0 62 80q0 41 -16.5 59t-45.5 18zM453 375q-30 0 -45 -18.5t-15 -52.5q0 -35 15.5 -51.5t44.5 -16.5t44 18t15 51t-14.5 51.5t-44.5 18.5z" />
<glyph unicode="&#x215c;" horiz-adv-x="620" d="M594 116q0 -33 -9 -55.5t-25 -37t-36.5 -21t-42.5 -6.5q-23 0 -43.5 6.5t-36 20.5t-24.5 37t-9 56q0 41 12 65t35 35q-43 19 -43 90q0 59 32 85.5t77 26.5q46 0 77 -26.5t31 -85.5q0 -65 -43 -90q48 -23 48 -100zM137 698q60 0 84.5 -32t24.5 -77q0 -24 -7.5 -50 t-36.5 -42q31 -16 38.5 -42t7.5 -58q0 -53 -27 -87.5t-88 -34.5q-45 0 -73.5 22.5t-33.5 71.5l51 6q2 -26 16.5 -41t40.5 -15q37 0 50 24t13 58q0 33 -14.5 52.5t-46.5 19.5h-30v44h28q32 0 46 18t14 49q0 30 -13 49t-45 19q-23 0 -39 -15t-21 -41l-50 8q6 41 35 67.5 t76 26.5zM147 -17h-46l369 731h47zM481 196q-29 0 -46.5 -19t-17.5 -58q0 -43 17.5 -61.5t46.5 -18.5q62 0 62 80q0 41 -16.5 59t-45.5 18zM481 375q-30 0 -45 -18.5t-15 -52.5q0 -35 15.5 -51.5t44.5 -16.5t44 18t15 51t-14.5 51.5t-44.5 18.5z" />
<glyph unicode="&#x215d;" horiz-adv-x="620" d="M591 116q0 -33 -9 -55.5t-25 -37t-36.5 -21t-42.5 -6.5q-23 0 -43.5 6.5t-36 20.5t-24.5 37t-9 56q0 41 12 65t35 35q-43 19 -43 90q0 59 32 85.5t77 26.5q46 0 77 -26.5t31 -85.5q0 -65 -43 -90q48 -23 48 -100zM80 374q3 -27 18 -42t41 -15q21 0 33 8.5t18.5 22 t8.5 31.5t2 38q0 42 -11.5 68t-48.5 26q-18 0 -33.5 -8.5t-23.5 -22.5h-45v215h207v-43h-161l1 -120q11 10 26.5 16t38.5 6q51 0 75 -30.5t24 -104.5q0 -32 -5.5 -59t-18 -46t-34 -29.5t-53.5 -10.5q-48 0 -76.5 23t-33.5 70zM149 -17h-46l369 731h47zM478 196 q-29 0 -46.5 -19t-17.5 -58q0 -43 17.5 -61.5t46.5 -18.5q62 0 62 80q0 41 -16.5 59t-45.5 18zM478 375q-30 0 -45 -18.5t-15 -52.5q0 -35 15.5 -51.5t44.5 -16.5t44 18t15 51t-14.5 51.5t-44.5 18.5z" />
<glyph unicode="&#x215e;" horiz-adv-x="620" d="M113 -17h-46l369 731h47zM126 279h-52l137 371h-118v-56h-49v102h223v-41zM576 116q0 -33 -9 -55.5t-25 -37t-36.5 -21t-42.5 -6.5q-23 0 -43.5 6.5t-36 20.5t-24.5 37t-9 56q0 41 12 65t35 35q-43 19 -43 90q0 59 32 85.5t77 26.5q46 0 77 -26.5t31 -85.5q0 -65 -43 -90 q48 -23 48 -100zM463 196q-29 0 -46.5 -19t-17.5 -58q0 -43 17.5 -61.5t46.5 -18.5q62 0 62 80q0 41 -16.5 59t-45.5 18zM463 375q-30 0 -45 -18.5t-15 -52.5q0 -35 15.5 -51.5t44.5 -16.5t44 18t15 51t-14.5 51.5t-44.5 18.5z" />
<glyph unicode="&#x215f;" horiz-adv-x="358" d="M116 -17h-46l369 731h47zM170 279h-50v362l-65 -42v52l67 45h48v-417z" />
<glyph unicode="&#x2190;" horiz-adv-x="826" d="M768 347v-52h-599l156 -153l-38 -38l-216 217l216 217l38 -38l-156 -153h599z" />
<glyph unicode="&#x2191;" horiz-adv-x="485" d="M270 1h-52v596l-152 -154l-38 38l217 217l217 -217l-38 -38l-154 154v-596z" />
<glyph unicode="&#x2192;" horiz-adv-x="826" d="M670 347l-156 153l39 38l216 -217l-216 -217l-39 38l156 153h-598v52h598z" />
<glyph unicode="&#x2193;" horiz-adv-x="485" d="M270 101l154 156l38 -38l-217 -217l-217 217l38 38l153 -156v598h51v-598z" />
<glyph unicode="&#x2196;" horiz-adv-x="840" d="M212 589l550 -547l-37 -37l-549 549v-219h-52v306h307v-52h-219z" />
<glyph unicode="&#x2198;" horiz-adv-x="840" d="M673 59l-550 547l37 37l548 -549v218h53v-306h-308v53h220z" />
<glyph unicode="&#x21a9;" horiz-adv-x="840" d="M142 347h498q30 0 50.5 9t33.5 24.5t18.5 37t5.5 45.5v81q0 48 -25.5 75t-82.5 27h-69v51h74q43 0 73 -12t49 -33t27 -50t8 -62v-77q0 -77 -41.5 -122.5t-128.5 -45.5h-490l155 -153l-39 -38l-215 217l215 217l39 -38z" />
<glyph unicode="&#x21aa;" horiz-adv-x="832" d="M549 500l38 38l216 -217l-216 -217l-38 38l156 153h-492q-87 0 -128 45.5t-41 122.5v77q0 33 8 62t26.5 50t48.5 33t73 12h74v-51h-69q-57 0 -82 -27t-25 -75v-81q0 -24 5.5 -45.5t18 -37t33 -24.5t50.5 -9h500z" />
<glyph unicode="&#x21b3;" horiz-adv-x="840" d="M174 347h535l-155 153l37 38l216 -217l-215 -217l-38 38l155 152h-589v398h54v-345z" />
<glyph unicode="&#x21b5;" horiz-adv-x="840" d="M733 692h54v-398h-589l155 -152l-38 -38l-214 217l214 217l38 -38l-155 -153h535v345z" />
<glyph unicode="&#x21de;" horiz-adv-x="485" d="M276 370h112v-53h-112v-89h112v-53h-112v-175h-54v175h-112v53h112v89h-112v53h112v224l-153 -152l-37 38l216 216l217 -216l-37 -38l-153 152z" />
<glyph unicode="&#x21df;" horiz-adv-x="485" d="M275 100l153 154l37 -38l-217 -216l-216 216l37 38l153 -154v226h-112v53h112v89h-112v53h112v175h54v-175h112v-53h-112v-89h112v-53h-112z" />
<glyph unicode="&#x21e0;" horiz-adv-x="824" d="M310 346v-52h-155l157 -153l-38 -37l-216 217l108 108l108 108q9 -9 19 -18t19 -19l-157 -154h155zM521 346h90v-52h-90v52zM370 346h89v-52h-89v52zM673 346h79v-52h-79v52z" />
<glyph unicode="&#x21e1;" horiz-adv-x="480" d="M267 382v-88h-53v88h53zM267 232v-89h-53v89h53zM267 81v-80h-53v80h53zM267 444h-52v153l-153 -156l-38 38l218 217l216 -217l-37 -38l-154 156v-153z" />
<glyph unicode="&#x21e2;" horiz-adv-x="824" d="M441 294h-89v53h89v-53zM290 294h-90v53h90v-53zM138 294h-79v53h79v-53zM656 347l-158 153l39 38l216 -217l-216 -217l-39 38l158 153h-155v52h155z" />
<glyph unicode="&#x21e3;" horiz-adv-x="480" d="M266 98q38 40 77 78.5t77 77.5q10 -9 19 -18.5t18 -19.5l-216 -216l-217 216l37 38q38 -39 77 -77.5t77 -78.5v154h51v-154zM214 463v90h52v-90h-52zM214 313v89h52v-89h-52zM214 615v80h52v-80h-52z" />
<glyph unicode="&#x21e4;" horiz-adv-x="812" d="M76 106v430h54v-430h-54zM782 347v-52h-505l156 -153l-39 -38l-216 217l216 217l39 -38l-156 -153h505z" />
<glyph unicode="&#x21e5;" horiz-adv-x="812" d="M730 106v430h53v-430h-53zM582 347l-156 153l39 38l216 -217l-216 -217l-39 38l156 153h-505v52h505z" />
<glyph unicode="&#x21e7;" horiz-adv-x="813" d="M45 321l363 376l363 -376h-180v-321h-365v321h-181zM408 632l-262 -271h124v-317h278v317h122z" />
<glyph unicode="&#x21ea;" horiz-adv-x="818" d="M222 -10h365v-180h-365v180zM266 -53v-93h278v93h-278zM41 321l364 376l363 -376h-181v-239h-365v239h-181zM405 632l-263 -271h124v-235h278v235h122z" />
<glyph unicode="&#x2202;" horiz-adv-x="436" d="M89 216q0 -44 9 -76.5t24.5 -53.5t35.5 -31t43 -10q33 0 57.5 22.5t40.5 58.5t24.5 80.5t9.5 89.5q-35 53 -67.5 72t-63.5 19q-28 0 -49 -15t-35.5 -39.5t-21.5 -55t-7 -61.5zM34 214q0 52 13 93.5t35.5 70.5t52 44.5t62.5 15.5q31 0 66 -14t70 -59q1 69 -11.5 125 t-35.5 95.5t-55.5 61t-71.5 21.5q-11 0 -24 -1.5t-28 -6.5l-1 50q17 5 30.5 6.5t27.5 1.5q61 0 104 -31.5t70.5 -83t40 -117.5t12.5 -135q0 -88 -14.5 -155.5t-40 -113t-60.5 -69t-77 -23.5q-35 0 -65.5 14.5t-52.5 42.5t-34.5 70t-12.5 97z" />
<glyph unicode="&#x2207;" horiz-adv-x="489" d="M478 696q-51 -175 -101.5 -348t-101.5 -348h-62q-51 175 -101.5 348t-101.5 348h468zM244 97q2 7 8 27t13 45.5t14.5 53l13.5 49.5l102 366h-304l100 -354q14 -57 27.5 -106t23.5 -81h2z" />
<glyph unicode="&#x220f;" horiz-adv-x="521" d="M391 -85v724h-262v-724h-64v781h391v-781h-65z" />
<glyph unicode="&#x2211;" horiz-adv-x="399" d="M25 -86v56l143 338l-144 334v54h345v-58h-275l145 -330l-144 -335h284v-59h-354z" />
<glyph unicode="&#x2212;" horiz-adv-x="425" d="M19 265v50h385v-50h-385z" />
<glyph unicode="&#x221a;" horiz-adv-x="455" d="M276 -83h-52l-130 422q-5 -2 -13 -5.5t-17 -7.5t-17.5 -8t-12.5 -5l-16 48l111 45l117 -386q8 41 19.5 103.5t25.5 135t29 150.5t28.5 150.5t25 134.5t18.5 104h54z" />
<glyph unicode="&#x221e;" horiz-adv-x="601" d="M300 304q6 10 12 17.5t13 15.5q26 30 58 49.5t69 19.5q52 0 87.5 -37.5t35.5 -101.5q0 -31 -10 -56.5t-27.5 -44t-40.5 -28.5t-50 -10q-44 0 -80 29.5t-68 71.5q-33 -44 -68.5 -72.5t-84.5 -28.5q-26 0 -48.5 9.5t-39 27.5t-26.5 43.5t-10 58.5q0 30 10.5 55.5t28 44 t41 29t49.5 10.5q22 0 43 -8.5t40 -22.5t36 -32.5t30 -38.5zM450 357q-35 0 -65.5 -26.5t-56.5 -63.5q13 -18 26.5 -34t28.5 -29t31 -20.5t33 -7.5q33 0 57.5 26t24.5 65q0 40 -23.5 65t-55.5 25zM151 357q-17 0 -31.5 -7t-26 -19t-18 -28.5t-6.5 -35.5q0 -41 24 -66t57 -25 t65.5 27t53.5 63q-10 16 -23 32.5t-28.5 29.5t-32.5 21t-34 8z" />
<glyph unicode="&#x2227;" horiz-adv-x="431" d="M395 0h-53l-132 428q-7 -22 -17.5 -56.5t-23 -74.5t-26 -83t-26 -83.5t-23 -74.5t-16.5 -56h-52l160 518h47z" />
<glyph unicode="&#x2228;" horiz-adv-x="431" d="M395 518l-162 -518h-47l-160 518h52l132 -429q7 22 17.5 56.5t23 74.5t26 83t26 83.5t22.5 74.5t17 57h53z" />
<glyph unicode="&#x2229;" horiz-adv-x="431" d="M394 0h-52v308q0 29 -8 57t-24.5 50.5t-41.5 36.5t-59 14q-33 0 -58 -13t-41.5 -35t-24.5 -50.5t-8 -59.5v-308h-49v308q0 41 11 79t33.5 67t56.5 46.5t79 17.5t80 -16t58.5 -44.5t35.5 -66.5t12 -83v-308z" />
<glyph unicode="&#x222a;" horiz-adv-x="431" d="M394 210q0 -44 -12 -82.5t-35.5 -67t-58.5 -44.5t-80 -16t-79 17.5t-56.5 46.5t-33.5 67t-11 79v309h49v-309q0 -31 8 -59.5t24.5 -50t41.5 -34.5t58 -13q34 0 59 14t41.5 36.5t24.5 50.5t8 56v309h52v-309z" />
<glyph unicode="&#x222b;" horiz-adv-x="303" d="M116 72q4 69 5.5 151t3.5 192q0 62 1.5 103t3.5 73q8 94 39.5 137.5t91.5 43.5q11 0 27 -2t30 -7q-2 -11 -5.5 -22.5t-5.5 -22.5q-11 2 -20.5 3t-17.5 1q-21 0 -36.5 -8.5t-26 -29.5t-16.5 -55t-8 -85q-1 -14 -1.5 -39.5t-1 -57.5t-0.5 -67.5t-0.5 -69.5t-1 -62.5 t-1.5 -46.5q-2 -51 -3.5 -96.5t-6.5 -83.5q-11 -92 -43 -133t-92 -41q-11 0 -25 1.5t-28 6.5q7 23 11 45q12 -3 21.5 -4t15.5 -1q22 0 37.5 9t26 30t17 54.5t9.5 83.5z" />
<glyph unicode="&#x2248;" horiz-adv-x="425" d="M403 378q-20 -32 -50 -47.5t-62 -15.5q-24 0 -48 7t-47 15.5t-44.5 15.5t-40.5 7q-20 0 -35 -10t-29 -27l-33 31q16 23 41.5 39.5t55.5 16.5q24 0 46 -7t44 -16t44.5 -16t46.5 -7q22 0 43.5 11t38.5 33zM403 230q-20 -32 -50 -47.5t-62 -15.5q-24 0 -48 7t-47 15 t-44.5 15t-40.5 7q-20 0 -35 -10t-29 -27l-33 32q16 23 41.5 39.5t55.5 16.5q24 0 46 -7t44 -16t44.5 -16t46.5 -7q22 0 43.5 11t38.5 33z" />
<glyph unicode="&#x2260;" horiz-adv-x="425" d="M31 62l70 117h-81v52h113l69 115h-182v51h213l80 133h54l-81 -133h119v-51h-149l-70 -115h219v-52h-250l-72 -119z" />
<glyph unicode="&#x2264;" horiz-adv-x="425" d="M403 103l-381 164v48l381 165v-60l-319 -129q24 -10 67.5 -28t91.5 -37t92 -36.5t68 -27.5v-59zM22 11v52h381v-52h-381z" />
<glyph unicode="&#x2265;" horiz-adv-x="425" d="M23 162q16 6 41.5 16.5t55.5 22.5l62.5 25t63 25.5t56 22.5t41.5 17l-320 129v60l381 -165v-48l-381 -164v59zM23 11v52h381v-52h-381z" />
<glyph unicode="&#x2303;" horiz-adv-x="795" d="M108 414l289 289l289 -288l-42 -42l-247 246l-247 -247z" />
<glyph unicode="&#x2318;" horiz-adv-x="824" d="M273 485v82q0 34 -23.5 57.5t-56.5 23.5q-35 0 -59 -23t-24 -58t23.5 -58.5t59.5 -23.5h80zM548 485h81q35 0 58.5 24t23.5 58t-23.5 57.5t-58.5 23.5q-34 0 -57.5 -23t-23.5 -58v-82zM273 212h-80q-36 0 -59.5 -24.5t-23.5 -57.5q0 -35 23.5 -59t59.5 -24q34 0 57 24 t23 59v82zM548 212v-82q0 -35 23.5 -59t57.5 -24q35 0 58.5 24t23.5 59q0 33 -23.5 57.5t-58.5 24.5h-81zM492 266v165h-163v-165h163zM548 266h81q34 0 60 -11t43 -29.5t25.5 -43.5t8.5 -52t-8.5 -52t-25.5 -44t-43 -30t-60 -11q-33 0 -58.5 11t-43 29.5t-26.5 43.5t-9 53 v82h-163v-82q0 -27 -8.5 -51.5t-25.5 -43.5t-42.5 -30.5t-59.5 -11.5q-32 0 -57.5 10.5t-43.5 29.5t-27.5 43.5t-9.5 53.5q0 28 9.5 52.5t27 43t43 29.5t58.5 11h80v165h-80q-28 0 -53 11t-44 29.5t-30 43t-11 52.5t10 53t28.5 43.5t44 29.5t55.5 11q34 0 59.5 -11 t42.5 -29.5t25.5 -43.5t8.5 -53v-82h163v82q0 28 10 53t28 43.5t43.5 29.5t55.5 11q33 0 58.5 -11t43 -30t26.5 -43.5t9 -52.5q0 -27 -11 -51.5t-29.5 -43.5t-43.5 -30t-53 -11h-81v-165z" />
<glyph unicode="&#x2324;" horiz-adv-x="795" d="M121 310l285 301l285 -300l-41 -42l-244 260l-243 -260zM695 696v-59h-577v59h577z" />
<glyph unicode="&#x2325;" horiz-adv-x="1188" d="M43 668h275l342 -610h471v-58h-517l-342 609h-229v59zM525 668h606v-59h-606v59z" />
<glyph unicode="&#x2326;" horiz-adv-x="1148" d="M749 0h-659v695h659l338 -348zM1006 347l-289 292h-573v-584h573zM504 310l-158 -160l-39 39l159 158l-159 159l39 39l158 -159l159 159l38 -39l-158 -159l158 -158l-38 -39z" />
<glyph unicode="&#x232b;" horiz-adv-x="1148" d="M91 347l338 348h658v-695h-659zM459 55h573v584h-573l-289 -292zM514 150l-38 39l158 158l-158 159l38 39l160 -159l158 159l38 -39l-159 -159l159 -158l-38 -39l-158 160z" />
<glyph unicode="&#x235f;" horiz-adv-x="804" d="M752 346q0 -73 -28 -137.5t-76 -112.5t-112.5 -75.5t-137.5 -27.5t-137 27.5t-112 75.5t-75.5 112.5t-27.5 138.5q0 73 27.5 137.5t75.5 112.5t112.5 75.5t138.5 27.5q73 0 137.5 -28t112.5 -76t75.5 -112.5t27.5 -137.5h-1zM693 346q0 61 -23 115t-63 94t-94 63t-115 23 t-115 -23t-94 -63t-63 -94t-23 -115t23 -114.5t63 -93.5t94 -63t115 -23t115 23t94 63t63 93.5t23 114.5zM521 301l26 -169l-157 76l-141 -76l21 165l-118 117l163 32l75 148l80 -146l164 -34z" />
<glyph unicode="&#x23cf;" horiz-adv-x="854" d="M768 227v-136h-702v136h702zM768 314h-702l351 351z" />
<glyph unicode="&#x25a0;" horiz-adv-x="875" d="M756 40h-633v633h633v-633z" />
<glyph unicode="&#x25a1;" horiz-adv-x="841" d="M133 48h586v595h-586v-595zM82 0v693h687v-693h-687z" />
<glyph unicode="&#x25b2;" horiz-adv-x="820" d="M781 176h-702l351 351z" />
<glyph unicode="&#x25b6;" horiz-adv-x="595" d="M138 701l351 -350l-351 -351v701z" />
<glyph unicode="&#x25bc;" horiz-adv-x="820" d="M430 176l-351 351h702z" />
<glyph unicode="&#x25c0;" horiz-adv-x="595" d="M452 0l-351 351l351 350v-701z" />
<glyph unicode="&#x25ca;" horiz-adv-x="337" d="M133 3l-112 287l112 287h65q28 -72 56.5 -143.5t57.5 -143.5l-114 -287h-65zM75 288q23 -58 45 -115t45 -115h2l91 230q-23 58 -46.5 116t-46.5 116h-2l-44 -116t-45 -116h1z" />
<glyph unicode="&#x25cf;" horiz-adv-x="843" d="M744 357q0 -64 -25 -121.5t-68.5 -101t-101 -69t-121.5 -25.5q-65 0 -122.5 25t-101 68.5t-68.5 101t-25 122.5q0 66 26 123.5t69.5 100t101 67.5t120.5 25t120 -25t100.5 -68.5t69.5 -101t26 -121.5z" />
<glyph unicode="&#x25fc;" horiz-adv-x="495" d="M0 495h495v-495h-495v495z" />
<glyph unicode="&#x2602;" horiz-adv-x="780" d="M405 695q55 0 112.5 -27.5t104.5 -73.5t77 -106t30 -124q-16 18 -40 28.5t-50 10.5q-23 0 -45 -9.5t-41 -29.5h-2q-23 39 -75 39q-28 0 -62 -14v-304q0 -42 -25.5 -67.5t-73.5 -25.5q-42 0 -69.5 23.5t-27.5 74.5v13h47v-13q0 -28 13.5 -41t34.5 -13q16 0 26 5t15.5 13 t7.5 18t2 20v296q-14 7 -27 9.5t-25 2.5q-26 0 -46.5 -10t-38.5 -27q-17 20 -40 29.5t-47 9.5q-25 0 -48.5 -9.5t-40.5 -29.5l-1 1q0 64 30.5 123.5t77.5 106t105 74.5t113 28v31h29v-32zM730 363q-1 0 -1 1z" />
<glyph unicode="&#x2605;" horiz-adv-x="814" d="M605 254l39 -258l-239 117l-214 -117l32 251l-181 180l249 48l114 226l123 -223l250 -51z" />
<glyph unicode="&#x2606;" horiz-adv-x="838" d="M608 257l39 -259l-240 117l-218 -119l33 255l-183 182l254 49l113 225l124 -223l254 -51zM727 415l-213 43l-107 193l-98 -196l-212 -40l153 -153l-27 -216l184 99l206 -99l-35 221z" />
<glyph unicode="&#x2610;" horiz-adv-x="841" d="M133 48h586v595h-586v-595zM82 0v693h687v-693h-687z" />
<glyph unicode="&#x2611;" horiz-adv-x="850" d="M82 0v693h687v-693h-687zM133 47h587v596h-587v-596zM702 583q-26 -20 -56 -53.5t-60.5 -75t-60.5 -87t-57 -90.5t-49.5 -85.5t-37.5 -71.5q-51 -9 -71 -20q-8 30 -21.5 71t-29 80t-32 70.5t-30.5 42.5q17 13 37.5 18t33.5 5q9 0 21.5 -17.5t25 -45t23 -61.5t15.5 -67 q29 48 69.5 105t86 112t93.5 102t92 75z" />
<glyph unicode="&#x2612;" horiz-adv-x="850" d="M614 583l41 -40l-192 -192l195 -195l-43 -40l-193 195l-194 -197l-40 42l193 193l-193 193l41 41l194 -195zM134 48h586v595h-586v-595zM83 0v693h687v-693h-687z" />
<glyph unicode="&#x2622;" horiz-adv-x="837" d="M418 432q16 0 30.5 -7t25 -18t16.5 -25.5t6 -30.5t-6 -30t-16.5 -24.5t-25 -17t-30.5 -6.5q-31 0 -55.5 22t-24.5 56t23.5 57.5t56.5 23.5zM569 89q-79 -41 -154 -41q-81 0 -148 42l98 170q30 -14 54 -14q20 0 50 14zM364 442q-23 -14 -36 -37.5t-16 -53.5h-197 q0 86 35.5 149t114.5 114zM569 615q72 -40 112 -108t40 -156h-197q-6 62 -55 93zM416 684q-68 0 -128 -26.5t-105 -72t-71 -106t-26 -128.5q0 -70 26.5 -130.5t72 -105.5t106.5 -70.5t129 -25.5q66 0 125.5 26.5t105 71.5t72 103.5t26.5 122.5q0 79 -28.5 142t-75 107 t-106.5 68t-123 24zM418 -17q-77 0 -144 28.5t-117 78t-78.5 117t-28.5 144.5q0 67 26 132t74 117t115.5 84t150.5 32q78 0 146 -28t118 -76.5t78.5 -114t28.5 -141.5q0 -77 -28.5 -145t-78 -118.5t-117 -80t-145.5 -29.5z" />
<glyph unicode="&#x2623;" horiz-adv-x="856" d="M553 462q-13 -27 -37 -43q-44 30 -86 30q-41 0 -89 -30q-14 8 -22 18.5t-15 24.5q32 21 62 32t62 11q64 0 125 -43zM502 120q-7 12 -11.5 25t-6.5 27q88 44 88 124v12t-1 14q11 7 27 8.5t27 1.5q4 -16 4 -37q0 -54 -33.5 -101t-93.5 -74zM351 120q-28 12 -51 30 t-39.5 41.5t-25.5 50t-9 54.5q0 21 4 38h12q22 -2 42 -12v-30q0 -76 88 -120q-2 -14 -7.5 -27.5t-13.5 -24.5zM272 531q0 -68 38 -107.5t111 -48.5v-22q-23 -5 -32.5 -18.5t-9.5 -27.5q0 -5 1 -9.5t3 -9.5l-19 -10q-60 72 -133 72q-29 0 -56.5 -12t-48.5 -32.5t-34 -47.5 t-13 -57q0 -22 6 -56l-11 -5q-8 25 -13.5 50.5t-5.5 50.5q0 29 8 57t26.5 52.5t48 45t73.5 34.5q0 63 11.5 109.5t35 78t59.5 51t86 28.5l5 -15q-136 -39 -136 -151zM583 533q0 109 -118 148l5 16q91 -20 134 -77t43 -155v-16t-1 -17q78 -31 116 -83.5t38 -119.5 q0 -45 -18 -96l-13 4q8 43 8 65q0 30 -12.5 56.5t-33.5 46t-49.5 30.5t-60.5 11q-40 0 -71.5 -19t-55.5 -52l-23 13q3 10 3 20q0 16 -9 27.5t-30 17.5v22q72 9 110 49.5t38 108.5zM428 53q-42 -32 -81 -42.5t-74 -10.5q-26 0 -49 4t-43.5 14t-40 27t-39.5 43l11 8 q68 -60 117 -60q33 0 62 12.5t50.5 33.5t34 49.5t12.5 60.5q0 12 -2.5 30t-15.5 41l22 13q7 -11 17.5 -14.5t20.5 -3.5q18 0 33 17l23 -12q-17 -41 -17 -72t12 -58.5t33 -48.5t48 -33t57 -12q66 0 122 54l12 -8q-19 -26 -38 -42.5t-39.5 -26t-43.5 -13t-50 -3.5 q-38 0 -77.5 10.5t-76.5 42.5z" />
<glyph unicode="&#x262e;" horiz-adv-x="834" d="M410 713q78 0 145.5 -28t117.5 -76.5t78.5 -113.5t28.5 -139q0 -77 -29 -144t-79.5 -116.5t-118.5 -78t-145 -28.5q-73 0 -138.5 29t-115 78.5t-78.5 116t-29 140.5q0 75 28.5 141t78 114.5t115.5 76.5t141 28zM675 204q18 32 28.5 69t10.5 83q0 58 -19 108t-54.5 88.5 t-86 64.5t-113.5 35v-239zM384 413v239q-60 -8 -110 -33t-86 -64.5t-56 -91.5t-20 -112q0 -27 2.5 -47t7.5 -36t12.5 -31.5t18.5 -33.5zM441 338v-289q59 7 107 34t93 75zM384 338l-197 -180q23 -22 45 -40t45 -32.5t49 -24t58 -14.5v291z" />
<glyph unicode="&#x262f;" horiz-adv-x="828" d="M525 174q-21 0 -34.5 15.5t-13.5 33.5q0 23 15.5 37.5t32.5 14.5q22 0 36.5 -16t14.5 -36q0 -22 -15.5 -35.5t-35.5 -13.5zM253 488q0 -20 13 -35t36 -15q22 0 36.5 15t14.5 35q0 18 -14 33.5t-38 15.5q-17 0 -32.5 -13.5t-15.5 -35.5zM50 356q0 82 31.5 148.5t82.5 114 t116 73.5t133 26q82 0 149.5 -29.5t115.5 -79.5t74 -116.5t26 -140.5q0 -82 -29.5 -148.5t-79.5 -114t-115.5 -73t-138.5 -25.5q-81 0 -148.5 30.5t-115.5 81t-74.5 116.5t-26.5 137zM249 649q21 6 42 6q41 0 74.5 -15.5t57 -39t36.5 -51t13 -52.5q0 -51 -19.5 -94.5 t-67.5 -91.5q-21 -21 -29 -51.5t-8 -51.5q0 -74 45.5 -115.5t128.5 -41.5q43 0 85 23.5t75 64.5t53.5 96t20.5 118q0 66 -24.5 128.5t-69.5 110.5t-108 77.5t-141 29.5q-45 0 -87.5 -11.5t-81.5 -34.5z" />
<glyph unicode="&#x2672;" horiz-adv-x="919" d="M668 448l-211 21l60 38l-46 81l-124 -185l-169 98l103 166q11 18 27 28t42 10h243q20 0 27.5 -2.5t14.5 -13.5l53 -87l64 38zM50 421h211l85 -183l-60 35l-31 -28q-16 -15 -16 -29q0 -25 31 -25h192v-211h-185q-32 0 -45 10.5t-23 28.5l-113 208q-7 12 -9.5 25t-2.5 27 q0 26 7 50t25 43zM593 372l172 102l95 -176q9 -18 9 -30q0 -11 -3.5 -20.5t-8.5 -18.5l-108 -194q-9 -16 -15.5 -26.5t-13 -17t-15 -9t-21.5 -2.5h-84v-77l-111 175l110 169v-70h109zM199 504l144 -83l120 181q-19 37 -47.5 61t-71.5 24q-29 0 -48 -28zM311 275l-61 131 h-158l47 -32q-19 -18 -29.5 -42.5t-10.5 -50.5q0 -29 9.5 -46.5t25 -27t34.5 -13t37 -3.5h28q-11 8 -11 24q0 20 19 39l42 38zM448 178h-237q-17 0 -28.5 1t-20 2.5t-16 4t-15.5 5.5l88 -163q9 -16 19.5 -25.5t33.5 -9.5h176v185zM686 582l-59 93q-6 10 -13 13.5t-19 3.5 h-204q31 -7 51.5 -33t38.5 -58l56 -100l-37 -23l159 -15l67 145zM611 368l115 -191q19 2 41 10t41 20.5t31.5 28.5t12.5 34q0 7 -2 13t-4 11l-89 159zM587 206l-81 -128l81 -130v45h96q9 0 20.5 5t20.5 21l103 188q-32 -30 -67.5 -37.5t-88.5 -7.5h-84v44z" />
<glyph unicode="&#x2673;" horiz-adv-x="869" d="M536 0v-59h-16l-74 95l78 98l13 -2v-59h128q36 0 52.5 12t16.5 32q0 19 -16 46l-100 170l67 39l111 -194q23 -39 23 -73q0 -48 -40.5 -76.5t-102.5 -28.5h-140zM393 73v-73h-213q-60 0 -95 28.5t-35 75.5q0 36 24 78l73 131l-46 25l7 13l118 22l42 -112l-8 -15l-47 29 l-64 -116q-13 -24 -13 -43q0 -18 13.5 -30.5t45.5 -12.5h198zM624 400l-121 21l-6 12l49 27l-71 120q-8 14 -19.5 22t-25.5 8t-27 -10t-21 -25l-99 -174l-64 37l106 185q22 38 49.5 54.5t57.5 16.5q31 0 59.5 -18t46.5 -50l73 -129l51 29l6 -14zM452 120h-55v228l-36 -25v57 l42 30h49v-290z" />
<glyph unicode="&#x2674;" horiz-adv-x="869" d="M329 124v46l107 134q14 15 14 33q0 11 -8 20t-23 9q-14 0 -23.5 -11.5t-12.5 -31.5l-52 6q6 42 31 64.5t57 22.5q36 0 60 -20t24 -58q0 -14 -5 -29.5t-16 -29.5l-83 -104h99v-51h-169zM536 0v-59h-16l-74 95l78 98l13 -2v-59h128q36 0 52.5 12t16.5 32q0 19 -16 46 l-100 170l67 39l111 -194q23 -39 23 -73q0 -48 -40.5 -76.5t-102.5 -28.5h-140zM393 73v-73h-213q-60 0 -95 28.5t-35 75.5q0 36 24 78l73 131l-46 25l7 13l118 22l42 -112l-8 -15l-47 29l-64 -116q-13 -24 -13 -43q0 -18 13.5 -30.5t45.5 -12.5h198zM624 400l-121 21l-6 12 l49 27l-71 120q-8 14 -19.5 22t-25.5 8t-27 -10t-21 -25l-99 -174l-64 37l106 185q22 38 49.5 54.5t57.5 16.5q31 0 59.5 -18t46.5 -50l73 -129l51 29l6 -14z" />
<glyph unicode="&#x2675;" horiz-adv-x="869" d="M536 0v-59h-16l-74 95l78 98l13 -2v-59h128q36 0 52.5 12t16.5 32q0 19 -16 46l-100 170l67 39l111 -194q23 -39 23 -73q0 -48 -40.5 -76.5t-102.5 -28.5h-140zM393 73v-73h-213q-60 0 -95 28.5t-35 75.5q0 36 24 78l73 131l-46 25l7 13l118 22l42 -112l-8 -15l-47 29 l-64 -116q-13 -24 -13 -43q0 -18 13.5 -30.5t45.5 -12.5h198zM624 400l-121 21l-6 12l49 27l-71 120q-8 14 -19.5 22t-25.5 8t-27 -10t-21 -25l-99 -174l-64 37l106 185q22 38 49.5 54.5t57.5 16.5q31 0 59.5 -18t46.5 -50l73 -129l51 29l6 -14zM505 214q0 -42 -24.5 -67.5 t-66.5 -25.5q-14 0 -27.5 3.5t-25 12.5t-20 24t-12.5 37l51 7q4 -19 13.5 -27t21.5 -8q18 0 28.5 12.5t10.5 30.5q0 19 -10.5 28.5t-26.5 9.5h-29v48h26q16 0 26.5 9.5t10.5 23.5t-10 24t-24 10q-11 0 -20 -9.5t-14 -26.5l-52 6q7 35 31 57.5t55 22.5q45 0 65.5 -25 t20.5 -58q0 -15 -5 -29t-22 -27q17 -14 23 -30t6 -33z" />
<glyph unicode="&#x2676;" horiz-adv-x="869" d="M536 0v-59h-16l-74 95l78 98l13 -2v-59h128q36 0 52.5 12t16.5 32q0 19 -16 46l-100 170l67 39l111 -194q23 -39 23 -73q0 -48 -40.5 -76.5t-102.5 -28.5h-140zM393 73v-73h-213q-60 0 -95 28.5t-35 75.5q0 36 24 78l73 131l-46 25l7 13l118 22l42 -112l-8 -15l-47 29 l-64 -116q-13 -24 -13 -43q0 -18 13.5 -30.5t45.5 -12.5h198zM624 400l-121 21l-6 12l49 27l-71 120q-8 14 -19.5 22t-25.5 8t-27 -10t-21 -25l-99 -174l-64 37l106 185q22 38 49.5 54.5t57.5 16.5q31 0 59.5 -18t46.5 -50l73 -129l51 29l6 -14zM477 167v-41h-51v41h-117v43 l96 206h56l-93 -200h58v70h51v-70h22v-49h-22z" />
<glyph unicode="&#x2677;" horiz-adv-x="869" d="M536 0v-59h-16l-74 95l78 98l13 -2v-59h128q36 0 52.5 12t16.5 32q0 19 -16 46l-100 170l67 39l111 -194q23 -39 23 -73q0 -48 -40.5 -76.5t-102.5 -28.5h-140zM393 73v-73h-213q-60 0 -95 28.5t-35 75.5q0 36 24 78l73 131l-46 25l7 13l118 22l42 -112l-8 -15l-47 29 l-64 -116q-13 -24 -13 -43q0 -18 13.5 -30.5t45.5 -12.5h198zM624 400l-121 21l-6 12l49 27l-71 120q-8 14 -19.5 22t-25.5 8t-27 -10t-21 -25l-99 -174l-64 37l106 185q22 38 49.5 54.5t57.5 16.5q31 0 59.5 -18t46.5 -50l73 -129l51 29l6 -14zM510 215q0 -41 -22 -69 t-67 -28q-31 0 -54.5 16t-32.5 60l51 10q8 -38 36 -38q13 0 20.5 5.5t11.5 14t5.5 18.5t1.5 19q0 19 -6.5 34.5t-28.5 15.5q-10 0 -18 -7t-15 -18h-47v162h151v-50h-102v-47q10 5 19.5 7t19.5 2q38 0 57.5 -25t19.5 -64v-18z" />
<glyph unicode="&#x2678;" horiz-adv-x="869" d="M536 0v-59h-16l-74 95l78 98l13 -2v-59h128q36 0 52.5 12t16.5 32q0 19 -16 46l-100 170l67 39l111 -194q23 -39 23 -73q0 -48 -40.5 -76.5t-102.5 -28.5h-140zM393 73v-73h-213q-60 0 -95 28.5t-35 75.5q0 36 24 78l73 131l-46 25l7 13l118 22l42 -112l-8 -15l-47 29 l-64 -116q-13 -24 -13 -43q0 -18 13.5 -30.5t45.5 -12.5h198zM624 400l-121 21l-6 12l49 27l-71 120q-8 14 -19.5 22t-25.5 8t-27 -10t-21 -25l-99 -174l-64 37l106 185q22 38 49.5 54.5t57.5 16.5q31 0 59.5 -18t46.5 -50l73 -129l51 29l6 -14zM514 211q0 -24 -7.5 -42 t-20 -29t-28.5 -16.5t-33 -5.5q-38 0 -62 22.5t-24 67.5q0 14 3.5 30t12.5 33q17 33 36.5 69t36.5 70h56l-55 -113h6q35 0 57 -25.5t22 -60.5zM460 209q0 20 -10 30t-24 10t-24.5 -10t-10.5 -30t9.5 -31t25.5 -11q14 0 24 11t10 31z" />
<glyph unicode="&#x2679;" horiz-adv-x="869" d="M536 0v-59h-16l-74 95l78 98l13 -2v-59h128q36 0 52.5 12t16.5 32q0 19 -16 46l-100 170l67 39l111 -194q23 -39 23 -73q0 -48 -40.5 -76.5t-102.5 -28.5h-140zM393 73v-73h-213q-60 0 -95 28.5t-35 75.5q0 36 24 78l73 131l-46 25l7 13l118 22l42 -112l-8 -15l-47 29 l-64 -116q-13 -24 -13 -43q0 -18 13.5 -30.5t45.5 -12.5h198zM624 400l-121 21l-6 12l49 27l-71 120q-8 14 -19.5 22t-25.5 8t-27 -10t-21 -25l-99 -174l-64 37l106 185q22 38 49.5 54.5t57.5 16.5q31 0 59.5 -18t46.5 -50l73 -129l51 29l6 -14zM412 115h-56l95 239h-61v-41 h-52v92h172v-44z" />
<glyph unicode="&#x267a;" horiz-adv-x="869" d="M536 0v-59h-16l-74 95l78 98l13 -2v-59h128q36 0 52.5 12t16.5 32q0 19 -16 46l-100 170l67 39l111 -194q23 -39 23 -73q0 -48 -40.5 -76.5t-102.5 -28.5h-140zM393 73v-73h-213q-60 0 -95 28.5t-35 75.5q0 36 24 78l73 131l-46 25l7 13l118 22l42 -112l-8 -15l-47 29 l-64 -116q-13 -24 -13 -43q0 -18 13.5 -30.5t45.5 -12.5h198zM624 400l-121 21l-6 12l49 27l-71 120q-8 14 -19.5 22t-25.5 8t-27 -10t-21 -25l-99 -174l-64 37l106 185q22 38 49.5 54.5t57.5 16.5q31 0 59.5 -18t46.5 -50l73 -129l51 29l6 -14z" />
<glyph unicode="&#x267b;" horiz-adv-x="889" d="M730 616l-82 -144h-167l52 33l-74 133q-12 21 -27.5 34.5t-29.5 21.5h181q28 0 37.5 -6t15.5 -17l46 -82zM321 695q36 0 63.5 -19t42.5 -39l-121 -220l-147 87l83 146q13 17 33 31t46 14zM738 495l86 -148q15 -25 15 -52q0 -24 -11 -44t-28 -34.5t-39 -22.5t-43 -8h-8 l-123 222zM303 290l-46 27l-72 -131q-17 -27 -25 -47.5t-8 -33.5l-88 152q-14 24 -14 39q0 8 5 23l50 86l-41 20h161zM469 80l86 137v-60h149q16 0 44 7.5t51 22.5l-100 -152q-15 -23 -32 -29t-31 -6h-81v-58zM448 0h-189q-11 0 -25.5 4.5t-27.5 14t-22 25.5t-9 40 q0 18 6.5 35.5t17.5 37.5h249v-157z" />
<glyph unicode="&#x267c;" horiz-adv-x="836" d="M786 352q0 -76 -29 -143t-79 -117t-117 -79t-143 -29t-143 29t-117 79t-79 117t-29 143t29 143t79 117t117 79t143 29t143 -29t117 -79t79 -117t29 -143zM593 538l-34 61q-5 9 -12 13t-27 4h-137q11 -5 22.5 -15t20.5 -26l55 -100l-39 -25h125l62 108zM323 617 q-20 0 -35.5 -9.5t-23.5 -24.5l-62 -109l111 -65l90 165q-12 15 -32.5 29t-47.5 14zM522 403l92 -166h6q16 0 32 6t29 16.5t21 25.5t8 33q0 9 -2 19t-9 20l-64 111zM251 415h-120l30 -14l-38 -64q-5 -8 -5 -19q0 -13 10 -30l69 -111q0 20 23 60l55 97l34 -19zM498 54v43h61 q9 0 22.5 5t24.5 22l75 113q-17 -10 -38.5 -16.5t-32.5 -6.5h-112v46l-64 -102zM418 214h-186q-18 -27 -18 -53q0 -18 6.5 -30.5t16.5 -20t20.5 -10.5t18.5 -3h142v117z" />
<glyph unicode="&#x267d;" horiz-adv-x="836" d="M786 353q0 -76 -29 -143t-79 -117t-117 -79t-143 -29t-143 29t-117 79t-79 117t-29 143t29 143t79 117t117 79t143 29t143 -29t117 -79t79 -117t29 -143zM767 353q0 72 -27.5 135.5t-74.5 111t-111 75t-136 27.5t-135.5 -27.5t-111 -75t-75 -111t-27.5 -135.5t27.5 -136 t75 -111t111 -74.5t135.5 -27.5t136 27.5t111 74.5t74.5 111t27.5 136zM631 558l-62 -108h-125l39 25l-55 100q-9 16 -20.5 26t-22.5 15h137q20 0 27 -4t12 -13l34 -61zM325 617q27 0 47.5 -14t32.5 -29l-90 -165l-111 65l62 109q8 15 23.5 24.5t35.5 9.5zM637 468l64 -111 q7 -10 9 -20t2 -19q0 -18 -8 -33t-21 -25.5t-29 -16.5t-32 -6h-6l-92 166zM311 315l-34 19l-55 -97q-23 -40 -23 -60l-69 111q-10 17 -10 30q0 11 5 19l38 64l-30 14h120zM436 158l64 102v-46h112q11 0 32.5 6.5t38.5 16.5l-75 -113q-11 -17 -24.5 -22t-22.5 -5h-61v-43z M420 97h-142q-8 0 -18.5 3t-20.5 10.5t-16.5 20t-6.5 30.5q0 26 18 53h186v-117z" />
<glyph unicode="&#x2693;" horiz-adv-x="698" d="M381 68q33 3 70 14.5t81 52.5l-40 35l142 41l-21 -152l-38 41q-54 -55 -111 -79t-115 -29q-58 5 -115 29t-110 79l-38 -41l-22 152l142 -41l-40 -35q22 -21 42 -33.5t39 -19.5t36.5 -10t34.5 -4v397h-128v48h128v12q-27 8 -44 32t-17 53q0 38 26.5 64t63.5 26q18 0 34 -7 t28 -19t19 -28.5t7 -35.5q0 -29 -15.5 -50.5t-40.5 -31.5v-15h130v-48h-130v-397h2z" />
<glyph unicode="&#x26a0;" horiz-adv-x="884" d="M437 525q24 0 36 -13.5t12 -32.5l-29 -281q-2 -8 -8.5 -13t-11.5 -5q-6 0 -12.5 5t-7.5 13l-23 281q0 16 12 31t32 15zM437 75q-6 0 -14 2t-14.5 6.5t-11.5 13t-5 21.5q0 4 2 11t7.5 14t14 11.5t21.5 4.5q17 0 29.5 -11.5t12.5 -31.5q0 -19 -12.5 -30t-29.5 -11zM391 669 q11 19 24 27.5t27 8.5q13 0 25.5 -8.5t22.5 -25.5l331 -588q10 -17 10 -37t-12.5 -33t-40.5 -13h-675q-29 0 -41.5 13.5t-12.5 32.5q0 18 11 37zM125 90q-5 -8 -8.5 -14t-3.5 -11t6 -7t23 -2h597q17 0 23 2t6 7t-4 11.5t-9 14.5l-297 526q-9 17 -19 17q-5 0 -10 -5t-9 -12z " />
<glyph unicode="&#x2706;" horiz-adv-x="432" d="M268 501q-26 0 -36 -38t-10 -125q0 -12 2 -36t7 -48.5t14 -43.5t23 -21v-201q-9 0 -24 6t-33 21t-37 41t-34.5 66t-25 95.5t-9.5 130.5q0 113 20.5 183t48 109t54.5 53.5t40 15.5v-208zM281 -12v201h60q8 0 14 -4.5t6 -15.5v-160q0 -8 -4.5 -14.5t-15.5 -6.5h-60z M281 501v208h60q8 0 14 -6t6 -14v-163q0 -25 -20 -25h-60z" />
<glyph unicode="&#x2708;" horiz-adv-x="890" d="M566 246l-208 -351h-96l115 351h-191l-61 -80h-75l38 127l-41 126h75l64 -84h192l-112 359h95l207 -359h247q25 0 38 -14.5t13 -31.5q0 -16 -12.5 -29.5t-37.5 -13.5h-250z" />
<glyph unicode="&#x2709;" horiz-adv-x="1070" d="M353 330l-229 228v-454zM712 337l227 -227v456zM169 64h726l-222 224l-143 -144l-137 136zM162 610l368 -371l366 371h-734zM1005 671v-671h-941v671h941z" />
<glyph unicode="&#x2713;" horiz-adv-x="764" d="M756 656q-35 -27 -75.5 -72.5t-82 -102.5t-82.5 -121.5t-78 -127t-67.5 -120t-50.5 -100.5q-36 -8 -62 -16t-39 -16q-7 29 -17.5 66.5t-23.5 77.5t-28 79t-30 71.5t-29.5 54t-26.5 27.5q23 20 52 28.5t49 8.5q13 0 31 -23.5t35.5 -61t31.5 -83.5t19 -91q37 65 91 142.5 t115.5 152.5t126.5 139.5t126 104.5z" />
<glyph unicode="&#x2716;" horiz-adv-x="742" d="M717 172l-173 -174l-173 175l-173 -175l-173 174l175 172l-175 172l173 174l173 -174l173 174l173 -174l-174 -172z" />
<glyph unicode="&#x271a;" horiz-adv-x="748" d="M264 666h230v-218h218v-230h-213v-218h-231v218h-217v230h213v218z" />
<glyph unicode="&#x272a;" horiz-adv-x="796" d="M752 346q0 -74 -28 -138.5t-76 -112.5t-112.5 -75.5t-138.5 -27.5t-138.5 27.5t-112.5 75.5t-76 112.5t-28 138.5q0 73 28 138t76 113t112.5 76t138.5 28t138.5 -28t112.5 -76t76 -113t28 -138zM484 468l-96 177l-91 -179l-196 -39l141 -140l-24 -199l170 92l189 -92 l-32 204l137 135z" />
<glyph unicode="&#x2794;" horiz-adv-x="728" d="M305 65l238 239h-519v86h519l-238 236h122l278 -279l-280 -281z" />
<glyph unicode="&#xe000;" horiz-adv-x="425" d="M374 153q0 -39 -13.5 -68.5t-36 -49.5t-51.5 -30.5t-61 -10.5t-61.5 10.5t-52 30.5t-35.5 49.5t-13 68.5v389q0 39 13 68.5t35.5 50t52 31t61.5 10.5t61 -10.5t51.5 -31t36 -50t13.5 -68.5v-389zM312 541q0 47 -27.5 74t-72.5 27t-73 -27t-28 -74v-386q0 -48 28 -75 t73 -27t72.5 27t27.5 75v386z" />
<glyph unicode="&#xe001;" horiz-adv-x="374" d="M241 0h-62v629l-100 -72l1 67l98 72h63v-696z" />
<glyph unicode="&#xe002;" horiz-adv-x="425" d="M212 642q-42 0 -68 -28.5t-34 -81.5l-63 10q9 72 52 115.5t115 43.5q78 0 121.5 -43t43.5 -118q0 -38 -13 -75t-35 -72l-213 -334h250v-59h-323v59l233 367q16 26 24.5 56.5t8.5 55.5q0 20 -5.5 38.5t-17 33t-30.5 23.5t-46 9z" />
<glyph unicode="&#xe003;" horiz-adv-x="425" d="M102 146q7 -41 28 -67.5t69 -26.5q30 0 50.5 10.5t33 29t18 44.5t5.5 57q0 72 -24 107t-78 35h-39v55h33q54 0 79 29t25 92q0 26 -5 50t-16.5 42t-31 29t-48.5 11q-24 0 -41 -8t-27.5 -21.5t-17 -30.5t-9.5 -36l-61 11q5 31 16.5 57t31 45.5t46.5 30.5t62 11 q49 0 80.5 -15t50 -40.5t26 -60t7.5 -73.5q0 -20 -3.5 -42.5t-12.5 -43t-25 -37.5t-41 -26q30 -7 47 -23.5t25.5 -39t11 -49t2.5 -54.5q0 -44 -8.5 -81t-28.5 -64.5t-53.5 -43t-82.5 -15.5q-28 0 -54.5 8t-47.5 25.5t-35 43.5t-18 62z" />
<glyph unicode="&#xe004;" horiz-adv-x="425" d="M344 111v-111h-62v111h-257v61l195 524h66l-197 -526h193v202h62v-202h56v-59h-56z" />
<glyph unicode="&#xe005;" horiz-adv-x="425" d="M231 455q46 0 74.5 -16.5t44.5 -46t21.5 -69t5.5 -85.5q0 -59 -7.5 -104.5t-26 -76.5t-51 -47t-82.5 -16q-140 0 -161 141l62 12q6 -44 29 -70.5t71 -26.5q35 0 55.5 14.5t31 39.5t13.5 58.5t3 71.5q0 36 -3.5 66.5t-14.5 52.5t-30.5 34t-50.5 12q-29 0 -54 -15t-39 -38 h-57v350h305v-58h-249l2 -225q24 23 52 32.5t56 9.5z" />
<glyph unicode="&#xe006;" horiz-adv-x="425" d="M228 396q38 0 66 -15t46 -41t26.5 -61.5t8.5 -76.5q0 -97 -40.5 -152.5t-125.5 -55.5q-161 0 -161 193q0 45 8 90t34 104l143 315h66l-142 -317l2 -1q14 9 32 13.5t37 4.5zM212 341q-31 0 -50.5 -12.5t-31 -33.5t-16 -48.5t-4.5 -56.5q0 -65 22 -102t78 -37q50 0 76 34 t26 109q0 32 -5 59t-16.5 46.5t-30.5 30.5t-48 11z" />
<glyph unicode="&#xe007;" horiz-adv-x="374" d="M138 0h-65l215 638h-206v-97h-58v155h329v-58z" />
<glyph unicode="&#xe008;" horiz-adv-x="425" d="M382 191q0 -54 -14 -92t-37 -61t-54 -33.5t-64 -10.5q-34 0 -64.5 10.5t-54 33.5t-37 61t-13.5 93q0 72 22 112.5t61 57.5q-42 22 -59 57.5t-17 97.5q0 48 13 83t35 57.5t51.5 33.5t62.5 11q34 0 64 -10.5t52 -33t34.5 -57.5t12.5 -84q0 -61 -19.5 -97.5t-55.5 -57.5 q42 -18 61.5 -58.5t19.5 -112.5zM213 643q-101 0 -101 -130q0 -64 26.5 -94.5t74.5 -30.5t74 31t26 97q0 127 -100 127zM213 336q-47 0 -77 -32t-30 -108q0 -79 30 -112t77 -33q54 0 79.5 35.5t25.5 109.5q0 77 -28 108.5t-77 31.5z" />
<glyph unicode="&#xe009;" horiz-adv-x="425" d="M193 299q-38 0 -66 15t-46 41t-26.5 61.5t-8.5 76.5q0 97 40.5 152.5t125.5 55.5q162 0 162 -193q0 -45 -8.5 -90t-34.5 -104l-143 -315h-66l142 317l-2 1q-14 -9 -32 -13.5t-37 -4.5zM209 354q31 0 50.5 11.5t31 31.5t16 48t4.5 60q0 65 -22 102t-78 37q-50 0 -76 -34 t-26 -109q0 -32 5 -59t16.5 -46.5t30.5 -30.5t48 -11z" />
</font>
</defs>
</svg>
